<?xml version="1.0" encoding="UTF-8" standalone="no"?>
<svg
   width="177.17"
   height="177.17"
   shape-rendering="geometricPrecision"
   image-rendering="optimizeQuality"
   fill-rule="evenodd"
   clip-rule="evenodd"
   viewBox="0 0 50 50"
   version="1.1"
   id="svg9094"
   sodipodi:docname="b+B.svg"
   inkscape:version="1.2.2 (732a01da63, 2022-12-09)"
   xmlns:inkscape="http://www.inkscape.org/namespaces/inkscape"
   xmlns:sodipodi="http://sodipodi.sourceforge.net/DTD/sodipodi-0.dtd"
   xmlns:xlink="http://www.w3.org/1999/xlink"
   xmlns="http://www.w3.org/2000/svg"
   xmlns:svg="http://www.w3.org/2000/svg">
  <sodipodi:namedview
     id="namedview9096"
     pagecolor="#ffffff"
     bordercolor="#000000"
     borderopacity="0.25"
     inkscape:showpageshadow="2"
     inkscape:pageopacity="0.0"
     inkscape:pagecheckerboard="0"
     inkscape:deskcolor="#d1d1d1"
     showgrid="false"
     inkscape:zoom="4.6170345"
     inkscape:cx="83.386857"
     inkscape:cy="123.34757"
     inkscape:window-width="1920"
     inkscape:window-height="1001"
     inkscape:window-x="-9"
     inkscape:window-y="-9"
     inkscape:window-maximized="1"
     inkscape:current-layer="svg9094" />
  <defs
     id="defs9088">
    <linearGradient
       id="0"
       x1="21.09"
       y1="37.1"
       x2="77.67"
       y2="37.469"
       gradientUnits="userSpaceOnUse">
      <stop
         stop-color="#fff"
         id="stop9083" />
      <stop
         offset="1"
         stop-color="#fff"
         stop-opacity="0"
         id="stop9085" />
    </linearGradient>
    <linearGradient
       inkscape:collect="always"
       xlink:href="#linearGradient5309"
       id="linearGradient6072"
       gradientUnits="userSpaceOnUse"
       gradientTransform="matrix(-0.87472423,-0.50502227,-0.50502227,0.87472423,0.12983613,3.3869087)"
       x1="-7.3500719"
       y1="-0.98877835"
       x2="-9.2275629"
       y2="2.2693684" />
    <linearGradient
       inkscape:collect="always"
       id="linearGradient5309">
      <stop
         style="stop-color:#ffffff;stop-opacity:1;"
         offset="0"
         id="stop5305" />
      <stop
         style="stop-color:#b4b4b4;stop-opacity:1;"
         offset="1"
         id="stop5307" />
    </linearGradient>
    <linearGradient
       inkscape:collect="always"
       xlink:href="#linearGradient5309"
       id="linearGradient5311"
       x1="-7.3500719"
       y1="-0.98877835"
       x2="-9.2275629"
       y2="2.2693684"
       gradientUnits="userSpaceOnUse"
       gradientTransform="matrix(-0.87472423,-0.50502227,-0.50502227,0.87472423,0.12983611,0.56476042)" />
  </defs>
  <path
     d="m25 42.16c-.229.94-.517 1.592-.847 1.956-.33.364-.762.745-1.312 1.143-.593.415-1.295.762-2.108 1.05-.813.288-1.71.364-2.701.212l-6.968-.965c-.288-.034-.533-.034-.762 0-.22.034-.432.051-.635.051-.347 0-.787.076-1.321.237-.542.152-.957.381-1.253.677l-2.404-3.946c.296-.33.559-.559.787-.694.237-.127.508-.271.821-.415.957-.449 1.981-.72 3.073-.821.466-.034.923-.042 1.363-.025.449.017.914 0 1.397-.051.889.152 1.786.288 2.684.406.906.127 1.812.254 2.718.39.991 0 1.66-.102 2.01-.296.186-.102.474-.288.872-.55.398-.262.796-.652 1.194-1.168-.881-.093-1.77-.262-2.684-.508-.906-.237-1.71-.491-2.404-.754l2.582-6.401c-1.295-.745-2.193-1.338-2.709-1.795-.508-.457-.914-.982-1.211-1.575-.432-.762-.711-1.499-.83-2.21-.127-.711-.178-1.346-.161-1.913.017-.991.245-2.083.703-3.285.457-1.194 1.312-2.269 2.565-3.209 1.041-.796 2.066-1.617 3.057-2.455.991-.847 1.973-1.829 2.946-2.955-1.219-.627-1.829-1.626-1.829-2.997 0-.931.322-1.719.974-2.388.652-.66 1.456-.991 2.396-.991.923 0 1.719.33 2.379.991.66.669.991 1.456.991 2.388 0 1.355-.61 2.354-1.829 2.997.957 1.126 1.93 2.108 2.913 2.955.982.838 2.02 1.659 3.09 2.455 1.236.94 2.083 2.01 2.523 3.209.449 1.202.694 2.295.72 3.285 0 .567-.051 1.202-.169 1.913-.118.711-.381 1.448-.796 2.21-.33.593-.745 1.118-1.253 1.575-.5.457-1.389 1.05-2.667 1.795l2.582 6.401c-.728.263-1.549.517-2.455.754-.914.246-1.787.415-2.633.508.381.517.771.906 1.168 1.168.398.263.694.449.897.55.347.195 1.016.296 2.01.296.889-.136 1.787-.263 2.692-.39.898-.118 1.803-.254 2.718-.406.44.051.889.068 1.346.051.457-.017.923-.008 1.406.025 1.058.102 2.083.373 3.073.821.296.144.567.288.804.415.245.135.508.364.804.694l-2.43 3.946c-.296-.296-.711-.525-1.253-.677-.533-.161-.965-.237-1.295-.237-.22 0-.44-.017-.66-.051-.22-.034-.474-.034-.754 0l-6.951.965c-.991.152-1.913.085-2.76-.195-.855-.279-1.558-.652-2.1-1.118-.542-.449-.982-.83-1.304-1.151-.322-.322-.593-.957-.804-1.897"
     fill="#1f1a17"
     id="path9090" />
  <path
     d="m24.09 23.705v2.108c0 .61.305.914.914.914.61 0 .914-.305.914-.914v-2.134h2.235c.576 0 .872-.296.872-.897 0-.593-.296-.889-.872-.889h-2.235v-2.235c0-.61-.305-.914-.914-.914-.61 0-.914.305-.914.914v2.235h-2.184c-.584 0-.872.296-.872.889 0 .601.288.897.872.897l2.184.025m7.51 13.741l-1.041-2.531c-1.685-.364-3.539-.542-5.554-.542-1.998 0-3.835.178-5.503.542l-1.041 2.506c2.049-.516 4.233-.77 6.545-.77 2.286 0 4.479.262 6.596.796m-2.083-5.114l-.72-1.736v-.669c-1.253-.178-2.523-.271-3.793-.271-1.236 0-2.498.093-3.768.271l-.025.669-.669 1.736c1.405-.246 2.887-.373 4.462-.373 1.592 0 3.09.127 4.513.373m-.864 9.381c-.66-.499-1.329-1.287-1.99-2.362h-.787c0 .813.186 1.6.567 2.362h2.21m-5.114 0c.381-.813.576-1.6.576-2.362h-.796c-.643 1.058-1.312 1.846-2.02 2.362h2.235"
     fill="url(#0)"
     id="path9092" />
  <g
     id="g8990"
     transform="matrix(1.2015255,0,0,1.2015255,33.087584,33.087586)">
    <rect
       style="fill:#ffdd55;stroke:#000000;stroke-width:1.31917;stroke-linecap:square;stroke-linejoin:round;stroke-dasharray:none;stroke-opacity:1"
       id="rect380"
       width="12.791572"
       height="12.79157"
       x="0.659585"
       y="0.659585"
       ry="3.360497" />
    <path
       id="rect5280-9-8"
       style="fill:url(#linearGradient6072);fill-opacity:1;stroke:#000000;stroke-width:0.11402;stroke-linecap:round;stroke-linejoin:round;stroke-miterlimit:4;stroke-dasharray:none;stroke-dashoffset:0;stroke-opacity:1;paint-order:normal"
       d="M 7.0545358,6.2374041 2.1736191,9.0556087 2.8539521,10.233109 7.0556492,7.8079602 11.25679,10.233109 11.937122,9.0556085 7.056206,6.2374041 l -5.568e-4,0.00167 z" />
    <path
       id="rect5280-9"
       style="fill:url(#linearGradient5311);fill-opacity:1;stroke:#000000;stroke-width:0.11402;stroke-linecap:round;stroke-linejoin:round;stroke-miterlimit:4;stroke-dasharray:none;stroke-dashoffset:0;stroke-opacity:1;paint-order:normal"
       d="M 7.0545358,3.4152558 2.1736191,6.2334604 2.8539521,7.41096 7.0556492,4.9858119 11.25679,7.4109601 11.937122,6.2334602 7.056206,3.4152558 l -5.568e-4,0.00167 z" />
  </g>
</svg>
