<?xml version="1.0" encoding="UTF-8" standalone="no"?>
<svg
   width="177.17"
   height="177.17"
   shape-rendering="geometricPrecision"
   image-rendering="optimizeQuality"
   fill-rule="evenodd"
   clip-rule="evenodd"
   viewBox="0 0 50 50"
   version="1.1"
   id="svg16816"
   sodipodi:docname="b+Q.svg"
   inkscape:version="1.2.2 (732a01da63, 2022-12-09)"
   xmlns:inkscape="http://www.inkscape.org/namespaces/inkscape"
   xmlns:sodipodi="http://sodipodi.sourceforge.net/DTD/sodipodi-0.dtd"
   xmlns:xlink="http://www.w3.org/1999/xlink"
   xmlns="http://www.w3.org/2000/svg"
   xmlns:svg="http://www.w3.org/2000/svg">
  <sodipodi:namedview
     id="namedview16818"
     pagecolor="#ffffff"
     bordercolor="#000000"
     borderopacity="0.25"
     inkscape:showpageshadow="2"
     inkscape:pageopacity="0.0"
     inkscape:pagecheckerboard="0"
     inkscape:deskcolor="#d1d1d1"
     showgrid="false"
     inkscape:zoom="4.6170345"
     inkscape:cx="83.386857"
     inkscape:cy="106.02043"
     inkscape:window-width="1920"
     inkscape:window-height="1001"
     inkscape:window-x="-9"
     inkscape:window-y="-9"
     inkscape:window-maximized="1"
     inkscape:current-layer="svg16816" />
  <defs
     id="defs16798">
    <linearGradient
       id="0"
       x1="21.253"
       y1="37.22"
       x2="77.76"
       y2="37.36"
       gradientUnits="userSpaceOnUse">
      <stop
         stop-color="#fff"
         id="stop16793" />
      <stop
         offset="1"
         stop-color="#fff"
         stop-opacity="0"
         id="stop16795" />
    </linearGradient>
    <linearGradient
       inkscape:collect="always"
       xlink:href="#linearGradient5309"
       id="linearGradient6072"
       gradientUnits="userSpaceOnUse"
       gradientTransform="matrix(-0.87472423,-0.50502227,-0.50502227,0.87472423,0.12983613,3.3869087)"
       x1="-7.3500719"
       y1="-0.98877835"
       x2="-9.2275629"
       y2="2.2693684" />
    <linearGradient
       inkscape:collect="always"
       id="linearGradient5309">
      <stop
         style="stop-color:#ffffff;stop-opacity:1;"
         offset="0"
         id="stop5305" />
      <stop
         style="stop-color:#b4b4b4;stop-opacity:1;"
         offset="1"
         id="stop5307" />
    </linearGradient>
    <linearGradient
       inkscape:collect="always"
       xlink:href="#linearGradient5309"
       id="linearGradient5311"
       x1="-7.3500719"
       y1="-0.98877835"
       x2="-9.2275629"
       y2="2.2693684"
       gradientUnits="userSpaceOnUse"
       gradientTransform="matrix(-0.87472423,-0.50502227,-0.50502227,0.87472423,0.12983611,0.56476042)" />
  </defs>
  <g
     fill="#1f1a17"
     id="g16812">
    <path
       d="m24.949 10.752c-.94 0-1.744-.33-2.396-.991-.652-.66-.974-1.465-.974-2.405 0-.931.322-1.727.974-2.388.652-.66 1.456-.991 2.396-.991.923 0 1.727.33 2.396.991.669.66.999 1.456.999 2.388 0 .94-.33 1.744-.999 2.405-.669.66-1.473.991-2.396.991"
       id="path16800" />
    <path
       d="m40.23 43.942c-.813.711-2.633 1.304-5.461 1.786-2.828.474-6.087.72-9.77.72-3.751 0-7.05-.254-9.898-.745-2.845-.499-4.64-1.118-5.385-1.863l1.566-5.952-.694-3.895-2.184-3.793-2.108-15.426 1.211-.474 6.799 11.455.152-13.64 1.685-.296 5.182 13.716 2.777-14.757h1.719l2.777 14.707 5.131-13.665 1.71.296.152 13.64 6.824-11.481 1.16.542-2.057 15.359-2.21 3.793-.694 3.946 1.617 6.03"
       id="path16802" />
    <path
       d="m14.535 11.989c-.948 0-1.753-.322-2.413-.974-.66-.652-.991-1.456-.991-2.396 0-.923.33-1.719.991-2.379.66-.66 1.465-.991 2.413-.991.923 0 1.719.33 2.379.991.66.66.991 1.456.991 2.379 0 .94-.33 1.744-.991 2.396-.66.652-1.456.974-2.379.974"
       id="path16804" />
    <path
       d="m35.36 11.989c-.94 0-1.736-.322-2.388-.974-.652-.652-.982-1.456-.982-2.396 0-.923.33-1.719.982-2.379.652-.66 1.448-.991 2.388-.991.948 0 1.753.33 2.413.991.66.66.991 1.456.991 2.379 0 .94-.33 1.744-.991 2.396-.66.652-1.465.974-2.413.974"
       id="path16806" />
    <path
       d="m5.4 14.723c-.94 0-1.736-.33-2.388-.982-.652-.652-.982-1.448-.982-2.396 0-.923.33-1.719.982-2.388.652-.677 1.448-1.01 2.388-1.01.948 0 1.744.33 2.413 1.01.66.669.991 1.465.991 2.388 0 .948-.33 1.744-.991 2.396-.669.652-1.465.982-2.413.982"
       id="path16808" />
    <path
       d="m44.541 14.723c-.94 0-1.744-.33-2.405-.982-.66-.652-.991-1.448-.991-2.396 0-.923.33-1.719.991-2.388.66-.677 1.465-1.01 2.405-1.01.931 0 1.727.33 2.388 1.01.66.669.991 1.465.991 2.388 0 .948-.33 1.744-.991 2.396-.66.652-1.456.982-2.388.982"
       id="path16810" />
  </g>
  <path
     fill="url(#0)"
     d="m37.2 35.729c-3.04-.838-7.095-1.262-12.15-1.262-5.097 0-9.195.432-12.302 1.287l.373 2.506c3.124-.813 7.095-1.219 11.93-1.219 4.809 0 8.729.398 11.752 1.194l.398-2.506m1.736-4.437c-1.372-.5-3.302-.906-5.791-1.228-2.489-.322-5.232-.483-8.246-.483-2.946 0-5.639.152-8.09.457-2.447.305-4.377.703-5.783 1.202l1.245 2.252c1.389-.406 3.192-.703 5.41-.889 2.21-.178 4.631-.271 7.264-.271 2.633 0 5.063.093 7.29.271 2.235.186 4.047.491 5.436.914l1.261-2.227m-1.092 11.853l-.737-2.929c-3.226-.737-7.281-1.109-12.158-1.109-4.826 0-8.865.373-12.11 1.109l-.787 2.955c3.141-.957 7.442-1.439 12.92-1.439 2.625 0 5.072.136 7.315.398 2.252.262 4.106.601 5.554 1.016"
     id="path16814" />
  <g
     id="g8990"
     transform="matrix(1.2015255,0,0,1.2015255,33.087584,33.148711)">
    <rect
       style="fill:#ffdd55;stroke:#000000;stroke-width:1.31917;stroke-linecap:square;stroke-linejoin:round;stroke-dasharray:none;stroke-opacity:1"
       id="rect380"
       width="12.791572"
       height="12.79157"
       x="0.659585"
       y="0.659585"
       ry="3.360497" />
    <path
       id="rect5280-9-8"
       style="fill:url(#linearGradient6072);fill-opacity:1;stroke:#000000;stroke-width:0.11402;stroke-linecap:round;stroke-linejoin:round;stroke-miterlimit:4;stroke-dasharray:none;stroke-dashoffset:0;stroke-opacity:1;paint-order:normal"
       d="M 7.0545358,6.2374041 2.1736191,9.0556087 2.8539521,10.233109 7.0556492,7.8079602 11.25679,10.233109 11.937122,9.0556085 7.056206,6.2374041 l -5.568e-4,0.00167 z" />
    <path
       id="rect5280-9"
       style="fill:url(#linearGradient5311);fill-opacity:1;stroke:#000000;stroke-width:0.11402;stroke-linecap:round;stroke-linejoin:round;stroke-miterlimit:4;stroke-dasharray:none;stroke-dashoffset:0;stroke-opacity:1;paint-order:normal"
       d="M 7.0545358,3.4152558 2.1736191,6.2334604 2.8539521,7.41096 7.0556492,4.9858119 11.25679,7.4109601 11.937122,6.2334602 7.056206,3.4152558 l -5.568e-4,0.00167 z" />
  </g>
</svg>
