<?xml version="1.0" encoding="UTF-8" standalone="no"?>
<svg
   width="177.17"
   height="177.17"
   shape-rendering="geometricPrecision"
   image-rendering="optimizeQuality"
   fill-rule="evenodd"
   clip-rule="evenodd"
   viewBox="0 0 50 50"
   version="1.1"
   id="svg5688"
   sodipodi:docname="w+Q.svg"
   inkscape:version="1.2.2 (732a01da63, 2022-12-09)"
   xmlns:inkscape="http://www.inkscape.org/namespaces/inkscape"
   xmlns:sodipodi="http://sodipodi.sourceforge.net/DTD/sodipodi-0.dtd"
   xmlns:xlink="http://www.w3.org/1999/xlink"
   xmlns="http://www.w3.org/2000/svg"
   xmlns:svg="http://www.w3.org/2000/svg">
  <sodipodi:namedview
     id="namedview5690"
     pagecolor="#ffffff"
     bordercolor="#000000"
     borderopacity="0.25"
     inkscape:showpageshadow="2"
     inkscape:pageopacity="0.0"
     inkscape:pagecheckerboard="0"
     inkscape:deskcolor="#d1d1d1"
     showgrid="false"
     inkscape:zoom="4.6170345"
     inkscape:cx="83.386857"
     inkscape:cy="106.02043"
     inkscape:window-width="1920"
     inkscape:window-height="1001"
     inkscape:window-x="-9"
     inkscape:window-y="-9"
     inkscape:window-maximized="1"
     inkscape:current-layer="svg5688" />
  <defs
     id="defs5680">
    <linearGradient
       id="0"
       x1="21.253"
       y1="37.22"
       x2="77.64"
       y2="37.35"
       gradientUnits="userSpaceOnUse">
      <stop
         stop-color="#fff"
         id="stop5675" />
      <stop
         offset="1"
         stop-color="#fff"
         stop-opacity="0"
         id="stop5677" />
    </linearGradient>
    <linearGradient
       inkscape:collect="always"
       xlink:href="#linearGradient20678"
       id="linearGradient6072"
       gradientUnits="userSpaceOnUse"
       gradientTransform="matrix(-0.87472423,-0.50502227,-0.50502227,0.87472423,0.12983613,3.3869087)"
       x1="-7.3500719"
       y1="-0.98877835"
       x2="-9.2275629"
       y2="2.2693684" />
    <linearGradient
       inkscape:collect="always"
       id="linearGradient20678">
      <stop
         style="stop-color:#ffffff;stop-opacity:1;"
         offset="0"
         id="stop20674" />
      <stop
         style="stop-color:#b4b4b4;stop-opacity:1;"
         offset="1"
         id="stop20676" />
    </linearGradient>
    <linearGradient
       inkscape:collect="always"
       xlink:href="#linearGradient20678"
       id="linearGradient5311"
       x1="-7.3500719"
       y1="-0.98877835"
       x2="-9.2275629"
       y2="2.2693684"
       gradientUnits="userSpaceOnUse"
       gradientTransform="matrix(-0.87472423,-0.50502227,-0.50502227,0.87472423,0.12983611,0.56476042)" />
  </defs>
  <g
     stroke="#1f1a17"
     stroke-width=".076"
     id="g5686">
    <path
       fill="#1f1a17"
       d="m44.541 14.723c-.94 0-1.744-.33-2.405-.982-.66-.652-.991-1.448-.991-2.396 0-.923.33-1.719.991-2.388.66-.677 1.465-1.01 2.405-1.01.931 0 1.727.33 2.388 1.01.66.669.991 1.465.991 2.388 0 .948-.33 1.744-.991 2.396-.66.652-1.456.982-2.388.982zm-4.31 29.22c-.813.711-2.633 1.304-5.461 1.786-2.828.474-6.087.72-9.77.72-3.751 0-7.05-.254-9.898-.745-2.845-.499-4.64-1.118-5.385-1.863l1.566-5.952-.694-3.895-2.184-3.793-2.108-15.426 1.211-.474 6.799 11.455.152-13.64 1.685-.296 5.182 13.716 2.777-14.757h1.719l2.777 14.707 5.131-13.665 1.71.296.152 13.64 6.824-11.481 1.16.542-2.057 15.359-2.21 3.793-.694 3.946 1.617 6.03zm-25.696-31.953c-.948 0-1.753-.322-2.413-.974-.66-.652-.991-1.456-.991-2.396 0-.923.33-1.719.991-2.379.66-.66 1.465-.991 2.413-.991.923 0 1.719.33 2.379.991.66.66.991 1.456.991 2.379 0 .94-.33 1.744-.991 2.396-.66.652-1.456.974-2.379.974zm-9.136 2.735c-.94 0-1.736-.33-2.388-.982-.652-.652-.982-1.448-.982-2.396 0-.923.33-1.719.982-2.388.652-.677 1.448-1.01 2.388-1.01.948 0 1.744.33 2.413 1.01.66.669.991 1.465.991 2.388 0 .948-.33 1.744-.991 2.396-.669.652-1.465.982-2.413.982zm19.55-3.971c-.94 0-1.744-.33-2.396-.991-.652-.66-.974-1.465-.974-2.405 0-.931.322-1.727.974-2.388.652-.66 1.456-.991 2.396-.991.923 0 1.727.33 2.396.991.669.66.999 1.456.999 2.388 0 .94-.33 1.744-.999 2.405-.669.66-1.473.991-2.396.991zm10.414 1.236c-.94 0-1.736-.322-2.388-.974-.652-.652-.982-1.456-.982-2.396 0-.923.33-1.719.982-2.379.652-.66 1.448-.991 2.388-.991.948 0 1.753.33 2.413.991.66.66.991 1.456.991 2.379 0 .94-.33 1.744-.991 2.396-.66.652-1.465.974-2.413.974z"
       id="path5682" />
    <path
       fill="url(#0)"
       d="m38.22 43.04c-3.02-1.253-7.417-1.88-13.166-1.88-5.876 0-10.312.643-13.327 1.93 2.896 1.143 7.315 1.71 13.25 1.71 2.845 0 5.444-.152 7.798-.466 2.362-.313 4.174-.745 5.444-1.295zm-13.267-34.03c1.109 0 1.66-.559 1.66-1.659 0-1.092-.55-1.643-1.66-1.643-1.092 0-1.634.55-1.634 1.643 0 1.101.542 1.659 1.634 1.659zm12.624 24.977c-3.192-.813-7.366-1.211-12.522-1.211-5.292 0-9.517.406-12.675 1.236l.373 2.379c3.217-.762 7.324-1.143 12.302-1.143 4.944 0 8.975.373 12.1 1.118l.423-2.379zm.618-1.49l1.617-2.853c-.796.322-1.609.474-2.43.474-2.218 0-3.988-.897-5.309-2.701-.991.821-2.1 1.236-3.327 1.236-1.583 0-2.853-.618-3.793-1.863-1.058 1.16-2.32 1.744-3.793 1.744-1.194 0-2.286-.406-3.277-1.219-1.389 1.77-3.183 2.65-5.385 2.65-.838 0-1.676-.152-2.506-.466l1.736 2.972c3.209-.923 7.62-1.389 13.225-1.389 5.706 0 10.118.474 13.242 1.414zm-11.11-5.927l-2.108-12.133-2.108 11.989c.051-.034.161-.119.347-.254.381-.745.957-1.118 1.736-1.118.847 0 1.389.372 1.634 1.118.102.102.271.237.5.398zm6.867.474v-11.489l-4.089 11.261c.313-.11.576-.262.796-.44.33-.415.779-.627 1.338-.627.66 0 1.194.296 1.592.872.042.068.102.136.169.212.068.076.136.144.195.212zm-13.936-.347l-4.064-11.142v11.337c.042-.068.119-.144.22-.245.33-.694.872-1.041 1.634-1.041.627 0 1.143.262 1.541.796.449.195.669.296.669.296zm-6.299 1.389l-5.334-9.203 1.363 8.382c.94.66 1.863.991 2.752.991.347 0 .754-.059 1.219-.169zm22.394.119c.381.119.804.178 1.27.178 1.01 0 1.947-.313 2.828-.94l1.363-8.585-5.461 9.347zm1.49 12.556l-.745-2.802c-3.243-.711-7.205-1.067-11.904-1.067-4.648 0-8.611.356-11.879 1.067l-.771 2.828c3.073-.931 7.298-1.389 12.675-1.389 5.241 0 9.449.449 12.624 1.363zm-23.06-30.514c1.084 0 1.634-.542 1.634-1.634 0-1.092-.55-1.634-1.634-1.634-1.109 0-1.668.542-1.668 1.634 0 1.092.559 1.634 1.668 1.634zm20.828 0c1.109 0 1.668-.542 1.668-1.634 0-1.092-.559-1.634-1.668-1.634-1.084 0-1.634.542-1.634 1.634 0 1.092.55 1.634 1.634 1.634zm-29.964 2.735c1.109 0 1.668-.55 1.668-1.643 0-1.109-.559-1.659-1.668-1.659-1.084 0-1.634.55-1.634 1.659 0 1.092.55 1.643 1.634 1.643zm39.14 0c1.092 0 1.642-.55 1.642-1.643 0-1.109-.55-1.659-1.642-1.659-1.101 0-1.66.55-1.66 1.659 0 1.092.559 1.643 1.66 1.643z"
       id="path5684" />
  </g>
  <g
     id="g8990"
     transform="matrix(1.2015255,0,0,1.2015255,33.087584,33.087585)">
    <rect
       style="fill:#ffdd55;stroke:#000000;stroke-width:1.31917;stroke-linecap:square;stroke-linejoin:round;stroke-dasharray:none;stroke-opacity:1"
       id="rect380"
       width="12.791572"
       height="12.79157"
       x="0.659585"
       y="0.659585"
       ry="3.360497" />
    <path
       id="rect5280-9-8"
       style="fill:url(#linearGradient6072);fill-opacity:1;stroke:#000000;stroke-width:0.11402;stroke-linecap:round;stroke-linejoin:round;stroke-miterlimit:4;stroke-dasharray:none;stroke-dashoffset:0;stroke-opacity:1;paint-order:normal"
       d="M 7.0545358,6.2374041 2.1736191,9.0556087 2.8539521,10.233109 7.0556492,7.8079602 11.25679,10.233109 11.937122,9.0556085 7.056206,6.2374041 l -5.568e-4,0.00167 z" />
    <path
       id="rect5280-9"
       style="fill:url(#linearGradient5311);fill-opacity:1;stroke:#000000;stroke-width:0.11402;stroke-linecap:round;stroke-linejoin:round;stroke-miterlimit:4;stroke-dasharray:none;stroke-dashoffset:0;stroke-opacity:1;paint-order:normal"
       d="M 7.0545358,3.4152558 2.1736191,6.2334604 2.8539521,7.41096 7.0556492,4.9858119 11.25679,7.4109601 11.937122,6.2334602 7.056206,3.4152558 l -5.568e-4,0.00167 z" />
  </g>
</svg>
