<?xml version="1.0" encoding="UTF-8" standalone="no"?>
<svg
   clip-rule="evenodd"
   fill-rule="evenodd"
   height="177.17"
   image-rendering="optimizeQuality"
   shape-rendering="geometricPrecision"
   viewBox="0 0 50 50"
   width="177.17"
   version="1.1"
   id="svg27109"
   sodipodi:docname="wY.svg"
   inkscape:version="1.2.2 (732a01da63, 2022-12-09)"
   xmlns:inkscape="http://www.inkscape.org/namespaces/inkscape"
   xmlns:sodipodi="http://sodipodi.sourceforge.net/DTD/sodipodi-0.dtd"
   xmlns="http://www.w3.org/2000/svg"
   xmlns:svg="http://www.w3.org/2000/svg">
  <defs
     id="defs27113" />
  <sodipodi:namedview
     id="namedview27111"
     pagecolor="#ffffff"
     bordercolor="#000000"
     borderopacity="0.25"
     inkscape:showpageshadow="2"
     inkscape:pageopacity="0.0"
     inkscape:pagecheckerboard="0"
     inkscape:deskcolor="#d1d1d1"
     showgrid="false"
     inkscape:zoom="4.6170345"
     inkscape:cx="72.990574"
     inkscape:cy="88.693294"
     inkscape:window-width="1920"
     inkscape:window-height="1001"
     inkscape:window-x="-9"
     inkscape:window-y="-9"
     inkscape:window-maximized="1"
     inkscape:current-layer="svg27109" />
  <linearGradient
     id="a"
     gradientUnits="userSpaceOnUse"
     x1="50.227522"
     x2=".075777"
     y1="23.357861"
     y2="23.357861">
    <stop
       offset="0"
       stop-color="#a8a6a5"
       id="stop27066" />
    <stop
       offset="0.74695122"
       stop-color="#fff"
       id="stop27068" />
  </linearGradient>
  <g
     stroke="#1f1a17"
     transform="matrix(.87253523 0 0 .87253523 3.186619 8.027513)"
     id="g27107">
    <path
       d="m.887186 42.611739h48.277876v-15.787279c0-8.076737-16.73686-18.5353648-18.075555-18.9937143-3.143097-.505829-7.892291-.598533-11.612323-.154897-2.109809.2466795-18.642246 11.0701393-18.642246 19.1051793 0 8.398128.05225 5.248532.05225 15.830711z"
       fill="url(#a)"
       stroke-linecap="square"
       stroke-width="1.940654"
       id="path27071" />
    <g
       fill="none"
       id="g27105">
      <path
         d="m1.176444 26.503616 47.687858-.17341"
         stroke-linecap="square"
         stroke-width="1.940654"
         id="path27073" />
      <g
         stroke-width=".846644"
         id="g27103">
        <g
           transform="translate(-55.875578 -2.1091)"
           id="g27087">
          <path
             d="m56.763004 36.242774 8.583815 8.641619"
             id="path27075" />
          <path
             d="m58.554911 28.901733 15.895955 15.838151"
             id="path27077" />
          <path
             d="m66.878611 28.265895 16.6474 16.416186"
             id="path27079" />
          <path
             d="m76.936414 28.728322 16.069365 16.011562"
             id="path27081" />
          <path
             d="m85.838148 28.554912 16.242772 16.127169"
             id="path27083" />
          <path
             d="m94.789569 28.084367 10.605181 10.802537"
             id="path27085" />
        </g>
        <g
           transform="matrix(-1 0 0 1 106.28392 -2.1091)"
           id="g27101">
          <path
             d="m56.763004 36.242774 8.583815 8.641619"
             id="path27089" />
          <path
             d="m58.554911 28.901733 15.895955 15.838151"
             id="path27091" />
          <path
             d="m66.878611 28.265895 16.6474 16.416186"
             id="path27093" />
          <path
             d="m76.936414 28.728322 16.069365 16.011562"
             id="path27095" />
          <path
             d="m85.838148 28.554912 16.242772 16.127169"
             id="path27097" />
          <path
             d="m94.789569 28.084367 10.605181 10.802537"
             id="path27099" />
        </g>
      </g>
    </g>
  </g>
</svg>
