<?xml version="1.0" encoding="UTF-8" standalone="no"?>
<svg
   xmlns:dc="http://purl.org/dc/elements/1.1/"
   xmlns:cc="http://creativecommons.org/ns#"
   xmlns:rdf="http://www.w3.org/1999/02/22-rdf-syntax-ns#"
   xmlns:svg="http://www.w3.org/2000/svg"
   xmlns="http://www.w3.org/2000/svg"
   xmlns:sodipodi="http://sodipodi.sourceforge.net/DTD/sodipodi-0.dtd"
   xmlns:inkscape="http://www.inkscape.org/namespaces/inkscape"
   height="60"
   width="52.157"
   version="1.1"
   id="svg49"
   sodipodi:docname="bS.svg"
   inkscape:version="1.0.1 (3bc2e813f5, 2020-09-07)">
  <metadata
     id="metadata55">
    <rdf:RDF>
      <cc:Work
         rdf:about="">
        <dc:format>image/svg+xml</dc:format>
        <dc:type
           rdf:resource="http://purl.org/dc/dcmitype/StillImage" />
      </cc:Work>
    </rdf:RDF>
  </metadata>
  <defs
     id="defs53" />
  <sodipodi:namedview
     pagecolor="#ffffff"
     bordercolor="#666666"
     borderopacity="1"
     objecttolerance="10"
     gridtolerance="10"
     guidetolerance="10"
     inkscape:pageopacity="0"
     inkscape:pageshadow="2"
     inkscape:window-width="2560"
     inkscape:window-height="1377"
     id="namedview51"
     showgrid="false"
     inkscape:zoom="12.25"
     inkscape:cx="26.078501"
     inkscape:cy="30"
     inkscape:window-x="-8"
     inkscape:window-y="-8"
     inkscape:window-maximized="1"
     inkscape:current-layer="svg49" />
  <filter
     id="a">
    <feGaussianBlur
       in="SourceAlpha"
       result="blur"
       stdDeviation="2"
       id="feGaussianBlur2" />
    <feOffset
       dx="2"
       dy="2"
       result="offsetBlur"
       id="feOffset4" />
    <feBlend
       in="SourceGraphic"
       in2="offsetBlur"
       mode="normal"
       id="feBlend6" />
  </filter>
  <g
     transform="matrix(0.75999999,0,0,-0.76,-66.428297,68.850236)"
     id="g47"
     style="stroke-width:1.31579">
    <g
       fill="#feec99"
       filter="url(#a)"
       transform="matrix(0.98185054,0,0,-0.98185054,-4.360504,104.33768)"
       id="g11"
       style="stroke-width:1.7313">
      <path
         d="m -37.299339,-31.009999 c -4.096,1.034 -8.171,2.152 -12.207999,3.395 -0.467,0.163 -1.13,0.263 -1.201,0.865 -0.709,3.416 -1.178,6.885 -1.737,10.331 -1.73,11.2549998 -3.378,22.5279998 -5.1,33.78 0.155,0.682 1.013,0.424 1.51,0.48 12.893999,0.025 25.787999,0.03 38.679999,-0.033 0.672,-0.156 0.28,-0.952 0.279,-1.409 -2.011,-13.1200002 -3.876,-26.2630002 -5.998,-39.366 -0.277,-1.356 -0.348,-2.782 -0.816,-4.087 -0.347,-0.497 -1.073,-0.468 -1.588,-0.704 -3.832,-1.137 -7.673,-2.267 -11.55,-3.231 -0.09,-0.017 -0.18,-0.032 -0.271,-0.021 z"
         fill="#feec99"
         transform="rotate(180,45.578499,23.8125)"
         id="path9"
         style="stroke-width:2.27803" />
    </g>
    <g
       opacity="0.503"
       stroke="#c83737"
       stroke-width="0.737421"
       transform="matrix(-1,0,0,1,136.0902,-41.304037)"
       id="g17">
      <path
         d="M 11.008159,82.58332 C 10.090155,87.01554 9.8597704,91.076235 9.4947248,95.542255 8.794306,98.864159 4.3026767,102.3356 1.7286094,101.61448 2.7858536,95.697431 2.4611523,87.028382 5.7457335,76.377646 c 2.0224789,-0.285803 4.1016705,-0.404608 6.3068705,-0.63341 0.734706,0.03806 1.277065,0.185819 1.786182,0.52466 0.683473,0.966396 1.445475,3.704333 2.054281,5.271275 l 0.429002,3.710109 c -1.437072,0.588245 -2.243128,1.176489 -3.312739,1.764733 z"
         fill="#e6e6e6"
         id="path13"
         style="stroke-width:0.970291" />
      <path
         d="M 13.094165,86.84578 C 11.764858,83.976067 11.37443,82.564608 9.7026116,79.841696 9.025123,79.006695 8.3364577,78.188474 7.5534393,77.511767 6.6629804,77.223643 6.4417538,76.868544 5.5512949,77.16953"
         fill="none"
         id="path15"
         style="stroke-width:0.970291" />
    </g>
    <g
       transform="matrix(-0.70055036,0,0,0.70055036,342.46251,-5.981807)"
       id="g45"
       style="stroke-width:1.31579">
      <g
         transform="translate(-0.190919)"
         id="g41"
         style="stroke-width:1.31579">
        <g
           stroke="#000000"
           transform="translate(31.466251,-52.325905)"
           id="g31"
           style="stroke-width:1.7313">
          <g
             stroke="#000000"
             id="g27"
             style="stroke-width:2.27803">
            <path
               d="m 282.83014,136.55533 c 0.20417,-5.88578 -0.28226,-11.14236 -3.00897,-13.32971 2.0213,-0.87359 3.21146,-2.97937 4.36491,-4.57868 1.15345,1.59931 2.34361,3.70509 4.36491,4.57868 -2.72671,2.18735 -3.21314,7.44393 -3.00897,13.32971 v 4e-5 c -0.47902,0.154 -0.91154,0.22963 -1.35594,0.23289 -0.4444,-0.003 -0.87692,-0.0789 -1.35594,-0.23289 z"
               transform="matrix(0.88178822,0,0,0.88934863,33.594141,15.217364)"
               id="path19"
               style="stroke-width:1.31579" />
            <path
               d="M 97.158521,111.62733 C 94.394717,233.01747 116.77323,335.81939 275.14301,330.70243 433.51279,335.81939 455.8913,233.01747 453.1275,111.62733 442.06243,243.91414 401.6145,279.03078 275.14301,286.66523 148.67152,279.03078 108.22359,243.91414 97.158521,111.62733 Z"
               fill="#cccccc"
               stroke-width="14.1333"
               transform="matrix(0.06852995,0,0,0.08094496,265.43337,113.5891)"
               id="path21" />
            <path
               d="m 166.79579,305.11894 -54.46388,95.97506 -8.75401,-6.96231 -40.589685,61.71251 -7.283307,-9.9888 c -17.702449,21.02166 -27.021349,32.76168 -44.723798,53.78334 14.215968,20.56041 44.129031,49.69009 71.960742,55.39697 13.292856,-25.8462 83.133858,-195.79358 102.033538,-237.33888 m 195.23448,-12.57789 54.46388,95.97506 8.75401,-6.96231 40.58969,61.71251 7.2833,-9.9888 c 17.70245,21.02166 27.02135,32.76168 44.7238,53.78334 -14.21597,20.56041 -44.12903,49.69009 -71.96074,55.39697 -13.29286,-25.8462 -83.13386,-195.79358 -102.03354,-237.33888"
               stroke-width="17.6666"
               transform="matrix(0.06852995,0,0,0.08094496,265.43337,113.5891)"
               id="path23" />
            <path
               d="m 273.59596,150.94137 c 7.36818,2.99836 14.49096,3.09401 21.34407,0 l -4.02618,-11.42603 c -4.02592,1.60044 -9.1948,1.93413 -13.22891,-0.091 z"
               stroke-width="1.29631"
               id="path25" />
          </g>
          <path
             d="m 277.40633,142.09248 c 4.27412,2.18112 9.43959,2.24116 13.60743,-0.0312"
             fill="none"
             stroke="#ffffff"
             id="path29"
             style="stroke-width:2.27803" />
        </g>
        <g
           fill="none"
           stroke="#ffffff"
           id="g39"
           style="stroke-width:1.7313">
          <path
             d="m 305.38637,89.887027 c 2.9497,1.930803 1.52329,1.133877 2.58145,1.911579 m 19.45159,-1.999967 c -2.9497,1.930803 -1.83265,0.736129 -2.89081,1.513831"
             transform="translate(-0.795495,2.740039)"
             id="path33"
             style="stroke-width:1.31579" />
          <path
             d="m 303.46433,92.472532 4.1095,2.131956 m 24.46328,-2.131956 -4.1095,2.131956"
             transform="translate(-2.069544,4.683662)"
             id="path35"
             style="stroke-width:1.31579" />
          <path
             d="m 305.43749,99.100685 4.50536,-11.901808 m 11.65089,-0.223192 4.25,12.265625"
             id="path37"
             style="stroke-width:1.31579" />
        </g>
      </g>
      <path
         d="m 308.93871,82.397114 c 5.87216,-5.233942 8.03769,-4.798704 13.61977,0.08525 -2.86506,1.169669 -3.08015,1.033401 -6.69829,1.68198 -2.51513,-0.679778 -0.54627,-0.174205 -3.60898,-0.454728 z"
         stroke="#000000"
         id="path43"
         style="stroke-width:1.7313" />
    </g>
  </g>
</svg>
