<?xml version="1.0" encoding="UTF-8" standalone="no"?>
<!-- Created with Inkscape (http://www.inkscape.org/) -->

<svg
   width="100"
   height="100"
   viewBox="0 0 26.458333 26.458333"
   version="1.1"
   id="svg5"
   inkscape:version="1.2.2 (732a01da63, 2022-12-09)"
   sodipodi:docname="pass.svg"
   xmlns:inkscape="http://www.inkscape.org/namespaces/inkscape"
   xmlns:sodipodi="http://sodipodi.sourceforge.net/DTD/sodipodi-0.dtd"
   xmlns="http://www.w3.org/2000/svg"
   xmlns:svg="http://www.w3.org/2000/svg">
  <sodipodi:namedview
     id="namedview7"
     pagecolor="#ffffff"
     bordercolor="#000000"
     borderopacity="0.25"
     inkscape:showpageshadow="2"
     inkscape:pageopacity="0.0"
     inkscape:pagecheckerboard="0"
     inkscape:deskcolor="#d1d1d1"
     inkscape:document-units="mm"
     showgrid="false"
     inkscape:zoom="8.2445"
     inkscape:cx="66.89308"
     inkscape:cy="67.863424"
     inkscape:window-width="1920"
     inkscape:window-height="1001"
     inkscape:window-x="-9"
     inkscape:window-y="-9"
     inkscape:window-maximized="1"
     inkscape:current-layer="layer1" />
  <defs
     id="defs2" />
  <g>
    <ellipse
       style="fill:#0078d7;stroke:#000000;stroke-width:1.05833333;stroke-linecap:square;stroke-dasharray:none;stroke-opacity:1;fill-opacity:1"
       id="background"
       cx="13.229165"
       cy="13.229164"
       rx="11.906248"
       ry="11.906247" />
    <path
       id="foreground"
       style="fill:#ffffff;fill-opacity:1;stroke:#ffffff;stroke-width:0;stroke-linecap:butt;stroke-linejoin:round;stroke-dasharray:none;stroke-dashoffset:0;stroke-opacity:1;image-rendering:auto"
       d="m 13.229166,3.9687505 -2.778125,2.7781249 2.778125,2.7781248 V 7.672917 a 5.5562497,5.5562497 0 0 1 5.55625,5.556251 5.5562497,5.5562497 0 0 1 -3.271893,5.06248 l 1.377486,1.377487 a 7.4083326,7.4083326 0 0 0 3.74649,-6.439967 7.4083326,7.4083326 0 0 0 -7.408333,-7.4083344 z m -3.6607575,2.821533 a 7.4083326,7.4083326 0 0 0 -3.7475747,6.4388845 7.4083326,7.4083326 0 0 0 7.4083322,7.408331 v 1.852084 l 2.778125,-2.778125 -2.778125,-2.778125 v 1.852083 A 5.5562497,5.5562497 0 0 1 7.672917,13.229168 5.5562497,5.5562497 0 0 1 10.945171,8.1670469 Z" />
  </g>
</svg>
