<?xml version="1.0" encoding="UTF-8" standalone="no"?>
<svg width="20" height="20" viewBox="0 0 22.489847 22.489745" version="1.1" xmlns="http://www.w3.org/2000/svg" xmlns:svg="http://www.w3.org/2000/svg"><g transform="translate(-1.9841234,-1.9841577)"><g style="display:inline;stroke:#000005;stroke-width:1.323;stroke-linecap:butt;stroke-linejoin:miter;stroke-dasharray:none;stroke-opacity:1" transform="matrix(0.99997894,0,0,0.99989578,3.7390779e-5,0.00224054)"><path style="display:inline;fill:#0000fa;fill-opacity:1;stroke:#000005;stroke-width:1.323;stroke-linecap:butt;stroke-linejoin:miter;stroke-dasharray:none;stroke-opacity:1" d="M 22.395016,7.9354385 A 10.583333,10.583333 0 0 0 22.348406,7.8609086 10.58321,10.582755 60 0 1 22.6953,8.4948265 10.583333,10.583333 0 0 0 22.395015,7.9354393 Z M 22.164877,7.5688645 A 10.583333,10.583333 0 0 0 21.913439,7.1829614 10.58321,10.582755 60 0 1 22.164877,7.5688645 Z M 22.711153,8.527444 A 10.58321,10.582755 60 0 1 23.030892,9.2373068 10.583333,10.583333 0 0 0 22.711153,8.527444 Z M 21.706047,6.9023077 a 10.583333,10.583333 0 0 0 -0.276261,-0.3596365 10.58321,10.582755 60 0 1 0.276261,0.3596365 z m 1.338638,2.3682089 A 10.58321,10.582755 60 0 1 23.309994,10.007031 10.583333,10.583333 0 0 0 23.044685,9.2705166 Z M 21.202792,6.2787052 A 10.583333,10.583333 0 0 0 20.897584,5.938169 10.58321,10.582755 60 0 1 21.202792,6.2787052 Z m 2.116046,3.7560398 a 10.58321,10.582755 60 0 1 0.209709,0.759068 10.583333,10.583333 0 0 0 -0.209709,-0.759068 z m -2.6737,-4.3488316 A 10.583333,10.583333 0 0 0 20.325857,5.3809492 10.58321,10.582755 60 0 1 20.645138,5.6859134 Z M 23.5341,10.816863 A 10.58321,10.582755 60 0 1 23.683193,11.580496 10.583333,10.583333 0 0 0 23.5341,10.816863 Z M 20.043389,5.1376759 a 10.583333,10.583333 0 0 0 -0.331822,-0.270871 10.58321,10.582755 60 0 1 0.331822,0.270871 z m 3.647465,6.4932941 a 10.58321,10.582755 60 0 1 0.08906,0.770245 10.583333,10.583333 0 0 0 -0.08906,-0.770245 z M 19.411183,4.6452088 a 10.583333,10.583333 0 0 0 -0.353763,-0.246865 10.58321,10.582755 60 0 1 0.353763,0.246865 z m 4.370586,7.7829832 a 10.58321,10.582755 60 0 1 0.03051,0.778391 10.583333,10.583333 0 0 0 -0.03051,-0.778391 z M 18.738672,4.1986892 a 10.583333,10.583333 0 0 0 -0.367937,-0.2165857 10.58321,10.582755 60 0 1 0.367937,0.2165857 z m 5.073446,9.0282778 -5.291622,-2.7e-5 a 5.2916675,5.2916665 60 0 1 -2.644635,4.582623 l 2.645834,4.582718 a 10.583333,10.583333 0 0 0 5.290437,-9.165306 z M 18.041028,3.8078529 A 10.583333,10.583333 0 0 0 17.64963,3.616728 10.58321,10.582755 60 0 1 18.041028,3.8078529 Z M 17.317283,3.4720633 A 10.583333,10.583333 0 0 0 16.904154,3.3084022 10.58321,10.582755 60 0 1 17.317283,3.4720633 Z M 16.565959,3.1897909 A 10.583333,10.583333 0 0 0 16.140855,3.0581065 10.58321,10.582755 60 0 1 16.565959,3.1897909 Z M 15.79143,2.9644783 a 10.583333,10.583333 0 0 0 -0.425076,-0.0965 10.58321,10.582755 60 0 1 0.425076,0.0965 z M 14.999151,2.7983392 a 10.583333,10.583333 0 0 0 -0.422809,-0.0626 10.58321,10.582755 60 0 1 0.422809,0.0626 z M 14.201314,2.693888 a 10.583333,10.583333 0 0 0 -0.426377,-0.02951 10.58321,10.582755 60 0 1 0.426377,0.02951 z m -0.801604,-0.0438 a 10.583333,10.583333 0 0 0 -0.426936,0.0036 10.58321,10.582755 60 0 1 0.426936,-0.0036 z m -0.803959,0.01723 a 10.583333,10.583333 0 0 0 -0.42314,0.036051 10.58321,10.582755 60 0 1 0.42314,-0.036051 z m -0.803495,0.07902 a 10.583333,10.583333 0 0 0 -0.411783,0.06709 10.58321,10.582755 60 0 1 0.411783,-0.06709 z M 11.004345,2.8843877 A 10.583333,10.583333 0 0 0 10.584258,2.9866969 10.58321,10.582755 60 0 1 11.004345,2.8843877 Z M 10.231311,3.0812744 A 10.583333,10.583333 0 0 0 9.8037648,3.2213083 10.58321,10.582755 60 0 1 10.231311,3.0812744 Z M 9.4686081,3.3384326 A 10.583333,10.583333 0 0 0 9.0545369,3.5100735 10.58321,10.582755 60 0 1 9.4686081,3.3384326 Z m -0.737845,0.312615 A 10.583333,10.583333 0 0 0 8.3218499,3.8584969 10.58321,10.582755 60 0 1 8.7307631,3.6510476 Z m -0.715219,0.3693766 a 10.583333,10.583333 0 0 0 -0.07763,0.04124 A 10.583333,10.583333 0 0 0 7.6273343,4.256497 10.58321,10.582755 60 0 1 8.0155493,4.0204329 Z M 18.521247,22.392539 a 10.58321,10.582755 60 0 1 -0.713654,0.37622 10.583333,10.583333 0 0 0 0.713654,-0.37622 z M 7.3315191,4.442798 A 10.583333,10.583333 0 0 0 6.9553162,4.7131037 10.58321,10.582755 60 0 1 7.3315191,4.442798 Z M 17.599106,22.8593 a 10.58321,10.582755 60 0 1 -0.52126,0.225766 10.583333,10.583333 0 0 0 0.52126,-0.225766 z M 6.6813048,4.915463 A 10.583333,10.583333 0 0 0 6.29548,5.2414495 10.58321,10.582755 60 0 1 6.6813048,4.915463 Z M 16.762658,23.195434 a 10.58321,10.582755 60 0 1 -0.451645,0.155137 10.583333,10.583333 0 0 0 0.451645,-0.155137 z M 6.075763,5.4303626 A 10.583333,10.583333 0 0 0 5.6879419,5.8118022 10.58321,10.582755 60 0 1 6.075763,5.4303626 Z m 9.940625,17.9990164 a 10.58321,10.582755 60 0 1 -0.481006,0.124952 10.583333,10.583333 0 0 0 0.481006,-0.124952 z M 5.5016731,5.9987062 A 10.583333,10.583333 0 0 0 5.155967,6.395213 10.58321,10.582755 60 0 1 5.5016731,5.9987062 Z M 15.200242,23.617741 a 10.58321,10.582755 60 0 1 -0.452613,0.08111 10.583333,10.583333 0 0 0 0.452613,-0.08111 z M 4.9718081,6.609541 A 10.583333,10.583333 0 0 0 4.569956,7.1506452 10.58321,10.582755 60 0 1 4.9718081,6.609541 Z m 9.4267269,17.128556 a 10.58321,10.582755 60 0 1 -0.452196,0.04566 10.583333,10.583333 0 0 0 0.452196,-0.04566 z M 4.4964929,7.2497468 A 10.583333,10.583333 0 0 0 4.0646441,7.9352689 10.58321,10.582755 60 0 1 4.4964929,7.2497468 Z M 13.596808,23.796405 a 10.58321,10.582755 60 0 1 -0.454977,0.01087 10.583333,10.583333 0 0 0 0.454977,-0.01087 z M 4.064197,7.9355258 A 10.583333,10.583333 0 0 0 3.6886202,8.6482319 10.58321,10.582755 60 0 1 4.064197,7.9355258 Z M 12.787247,23.7936 A 10.58321,10.582755 60 0 1 12.343396,23.77 10.583333,10.583333 0 0 0 12.787247,23.7936 Z M 3.618826,8.8084638 A 10.583333,10.583333 0 0 0 3.3667642,9.3919756 10.58321,10.582755 60 0 1 3.618826,8.8084638 Z m 8.36397,14.9209032 a 10.58321,10.582755 60 0 1 -0.443622,-0.05834 10.583333,10.583333 0 0 0 0.443622,0.05834 z M 3.3088522,9.5572849 A 10.583333,10.583333 0 0 0 3.1038979,10.154174 10.58321,10.582755 60 0 1 3.3088522,9.5572849 Z M 11.202893,23.607402 a 10.58321,10.582755 60 0 1 -0.45398,-0.09592 10.583333,10.583333 0 0 0 0.45398,0.09592 z M 3.0488551,10.359594 A 10.583333,10.583333 0 0 0 2.9002592,10.931109 10.58321,10.582755 60 0 1 3.0488551,10.359594 Z M 10.41925,23.423149 A 10.58321,10.582755 60 0 1 9.9769166,23.293655 10.583333,10.583333 0 0 0 10.41925,23.423149 Z M 2.8517232,11.187072 a 10.583333,10.583333 0 0 0 -0.095,0.531022 10.58321,10.582755 60 0 1 0.095,-0.531022 z M 9.647004,23.178019 a 10.58321,10.582755 60 0 1 -0.4245269,-0.16066 10.583333,10.583333 0 0 0 0.4245269,0.16066 z M 2.72282,12.021104 A 10.583333,10.583333 0 0 0 2.67285,12.51539 10.58321,10.582755 60 0 1 2.72282,12.021104 Z M 8.8996319,22.876757 A 10.58321,10.582755 60 0 1 8.4910543,22.68481 10.583333,10.583333 0 0 0 8.8996319,22.876757 Z M 2.6612381,12.831185 a 10.583333,10.583333 0 0 0 -0.01114,0.493344 10.58321,10.582755 60 0 1 0.01114,-0.493344 z m 5.5163492,9.687918 A 10.58321,10.582755 60 0 1 7.7874051,22.298034 10.583333,10.583333 0 0 0 8.1775873,22.519103 Z M 2.6610651,13.626697 a 10.583333,10.583333 0 0 0 0.02703,0.500545 10.58321,10.582755 60 0 1 -0.02703,-0.500545 z m 4.8284789,8.484092 a 10.58321,10.582755 60 0 1 -0.3831712,-0.25853 10.583333,10.583333 0 0 0 0.3831712,0.25853 z M 2.7240634,14.444811 a 10.583333,10.583333 0 0 0 0.06289,0.47686 10.58321,10.582755 60 0 1 -0.06289,-0.47686 z m 4.1109885,7.207263 A 10.58321,10.582755 60 0 1 6.4726527,21.365442 10.583333,10.583333 0 0 0 6.8350519,21.652074 Z M 2.8467554,15.239202 A 10.583333,10.583333 0 0 0 2.947725,15.717943 10.58321,10.582755 60 0 1 2.8467554,15.239202 Z m 3.3649182,5.901587 A 10.58321,10.582755 60 0 1 5.8679747,20.822473 10.583333,10.583333 0 0 0 6.2116736,21.140789 Z M 3.0264622,16.011416 a 10.583333,10.583333 0 0 0 0.1411688,0.48119 10.58321,10.582755 60 0 1 -0.1411688,-0.48119 z m 2.6094764,4.578646 a 10.58321,10.582755 60 0 1 -0.3208089,-0.34585 10.583333,10.583333 0 0 0 0.3208089,0.34585 z M 3.2721647,16.791473 a 10.583333,10.583333 0 0 0 0.1700689,0.449588 10.58321,10.582755 60 0 1 -0.1700689,-0.449588 z m 1.8189377,3.191833 A 10.58321,10.582755 60 0 1 4.8042563,19.620831 10.583333,10.583333 0 0 0 5.0911024,19.983306 Z M 3.5734986,17.541798 a 10.583333,10.583333 0 0 0 0.2046858,0.436167 10.58321,10.582755 60 0 1 -0.2046858,-0.436167 z m 1.0324668,1.811025 A 10.58321,10.582755 60 0 1 4.3431566,18.962745 10.583333,10.583333 0 0 0 4.6059654,19.352823 Z M 3.9293773,18.263616 a 10.583333,10.583333 0 0 0 0.1347811,0.255148 10.583333,10.583333 0 0 0 0.097786,0.15597 10.58321,10.582755 60 0 1 -0.2326107,-0.411093 z" /><path style="display:inline;opacity:1;fill:#ff0000;fill-opacity:1;stroke:#000005;stroke-width:1.323;stroke-linecap:butt;stroke-linejoin:miter;stroke-dasharray:none;stroke-opacity:1" d="m 4.0637313,7.9374997 a 10.583333,10.583333 0 0 0 -0.04124,0.077631 10.582755,10.58321 30 0 1 0.375539,-0.6173797 10.583333,10.583333 0 0 0 -0.334299,0.5397487 z M 3.8613388,8.3200932 A 10.583333,10.583333 0 0 0 3.6528603,8.730798 10.582755,10.58321 30 0 1 3.8613388,8.3200932 Z M 4.4183552,7.3677149 A 10.582755,10.58321 30 0 1 4.8732468,6.7358822 10.583333,10.583333 0 0 0 4.4183552,7.3677149 Z M 3.5134981,9.0507285 A 10.583333,10.583333 0 0 0 3.3401717,9.4697944 10.582755,10.58321 30 0 1 3.5134981,9.0507285 Z M 4.8951031,6.7073278 A 10.582755,10.58321 30 0 1 5.4002894,6.1093051 10.583333,10.583333 0 0 0 4.8951031,6.7073278 Z M 3.225064,9.7983578 A 10.583333,10.583333 0 0 0 3.0827557,10.232945 10.582755,10.58321 30 0 1 3.225064,9.7983578 Z M 5.4198708,6.0877915 A 10.582755,10.58321 30 0 1 5.9723887,5.5266439 10.583333,10.583333 0 0 0 5.4198708,6.0877915 Z M 2.9905228,10.577699 A 10.583333,10.583333 0 0 0 2.8860569,11.006686 10.582755,10.58321 30 0 1 2.9905228,10.577699 Z M 5.9895756,5.5103112 A 10.582755,10.58321 30 0 1 6.5763542,4.9993763 10.583333,10.583333 0 0 0 5.9895756,5.5103112 Z M 2.8166111,11.37295 A 10.583333,10.583333 0 0 0 2.747939,11.795751 10.582755,10.58321 30 0 1 2.8166111,11.37295 Z M 6.6162368,4.9675046 A 10.582755,10.58321 30 0 1 7.2387574,4.5052505 10.583333,10.583333 0 0 0 6.6162368,4.9675046 Z M 2.7062265,12.166689 a 10.583333,10.583333 0 0 0 -0.036911,0.4298 10.582755,10.58321 30 0 1 0.036911,-0.4298 z M 7.2611946,4.4901593 A 10.582755,10.58321 30 0 1 7.9200434,4.0745368 10.583333,10.583333 0 0 0 7.2611946,4.4901593 Z M 2.6557839,12.97236 a 10.583333,10.583333 0 0 0 -0.00363,0.426936 10.582755,10.58321 30 0 1 0.00363,-0.426936 z M 7.937779,4.0644884 10.583567,8.6471809 a 5.2916665,5.2916675 30 0 1 5.290985,-9.901e-4 l 2.645834,-4.582718 A 10.583333,10.583333 0 0 0 7.937779,4.0644884 Z M 2.6661327,13.771957 a 10.583333,10.583333 0 0 0 0.030178,0.434522 10.582755,10.58321 30 0 1 -0.030178,-0.434522 z m 0.071071,0.794675 a 10.583333,10.583333 0 0 0 0.064832,0.439612 10.582755,10.58321 30 0 1 -0.064832,-0.439612 z m 0.1312069,0.791802 a 10.583333,10.583333 0 0 0 0.098508,0.433993 10.582755,10.58321 30 0 1 -0.098508,-0.433993 z m 0.1921369,0.78342 a 10.583333,10.583333 0 0 0 0.1289687,0.416374 10.582755,10.58321 30 0 1 -0.1289687,-0.416374 z m 0.2522594,0.769202 a 10.583333,10.583333 0 0 0 0.1571916,0.397462 10.582755,10.58321 30 0 1 -0.1571916,-0.397462 z m 0.3084604,0.743172 a 10.583333,10.583333 0 0 0 0.1876337,0.38401 10.582755,10.58321 30 0 1 -0.1876337,-0.38401 z m 0.3628715,0.716109 A 10.583333,10.583333 0 0 0 4.200752,18.738259 10.582755,10.58321 30 0 1 3.9841388,18.370337 Z m 0.416904,0.687634 a 10.583333,10.583333 0 0 0 0.2427877,0.348425 10.582755,10.58321 30 0 1 -0.2427877,-0.348425 z m 0.4701801,0.656335 A 10.583333,10.583333 0 0 0 5.1352115,20.037379 10.582755,10.58321 30 0 1 4.8712229,19.714306 Z M 5.384732,20.327633 A 10.583333,10.583333 0 0 0 5.6833797,20.640284 10.582755,10.58321 30 0 1 5.384732,20.327633 Z m 0.5570274,0.571024 a 10.583333,10.583333 0 0 0 0.3350459,0.300249 10.582755,10.58321 30 0 1 -0.3350459,-0.300249 z m 0.6040564,0.531942 a 10.583333,10.583333 0 0 0 0.3556793,0.272779 10.582755,10.58321 30 0 1 -0.3556793,-0.272779 z m 0.6396574,0.48268 a 10.583333,10.583333 0 0 0 0.3841109,0.250409 10.582755,10.58321 30 0 1 -0.3841109,-0.250409 z m 0.677497,0.434713 a 10.583333,10.583333 0 0 0 0.07453,0.04661 10.583333,10.583333 0 0 0 0.3240175,0.171558 10.582755,10.58321 30 0 1 -0.3985475,-0.218168 z M 18.520834,4.0637313 a 10.582755,10.58321 30 0 1 0.682645,0.429928 10.583333,10.583333 0 0 0 -0.682645,-0.429928 z M 8.5707661,22.72919 A 10.583333,10.583333 0 0 0 8.99296,22.919836 10.582755,10.58321 30 0 1 8.5707661,22.72919 Z M 19.386131,4.6289486 A 10.582755,10.58321 30 0 1 19.842279,4.9674908 10.583333,10.583333 0 0 0 19.386131,4.6289486 Z M 9.3052135,23.05596 A 10.583333,10.583333 0 0 0 9.7804382,23.2271 10.582755,10.58321 30 0 1 9.3052135,23.05596 Z M 20.095455,5.1852672 A 10.582755,10.58321 30 0 1 20.455632,5.4988325 10.583333,10.583333 0 0 0 20.095455,5.1852672 Z M 10.053899,23.322926 a 10.583333,10.583333 0 0 0 0.524248,0.145143 10.582755,10.58321 30 0 1 -0.524248,-0.145143 z M 20.671192,5.7145828 A 10.582755,10.58321 30 0 1 21.019907,6.068671 10.583333,10.583333 0 0 0 20.671192,5.7145828 Z M 10.833144,23.53593 a 10.583333,10.583333 0 0 0 0.516239,0.101137 10.582755,10.58321 30 0 1 -0.516239,-0.101137 z M 21.242392,6.3272056 A 10.582755,10.58321 30 0 1 21.538944,6.6786248 10.583333,10.583333 0 0 0 21.242392,6.3272056 Z M 11.627076,23.689388 a 10.583333,10.583333 0 0 0 0.669536,0.07746 10.582755,10.58321 30 0 1 -0.669536,-0.07746 z M 21.747477,6.9613258 A 10.582755,10.58321 30 0 1 22.01312,7.3301071 10.583333,10.583333 0 0 0 21.747477,6.9613258 Z M 12.419168,23.780921 a 10.583333,10.583333 0 0 0 0.809603,0.03123 10.582755,10.58321 30 0 1 -0.809603,-0.03123 z M 22.198836,7.6264875 A 10.582755,10.58321 30 0 1 22.43574,8.0150742 10.583333,10.583333 0 0 0 22.198836,7.6264875 Z M 13.229218,23.81241 a 10.583333,10.583333 0 0 0 0.805009,-0.03109 10.582755,10.58321 30 0 1 -0.805009,0.03109 z M 22.601188,8.3289907 A 10.582755,10.58321 30 0 1 22.802677,8.7251764 10.583333,10.583333 0 0 0 22.601188,8.3289907 Z M 14.20789,23.761644 a 10.583333,10.583333 0 0 0 0.631367,-0.07346 10.582755,10.58321 30 0 1 -0.631367,0.07346 z M 22.947786,9.0577826 A 10.582755,10.58321 30 0 1 23.119072,9.4711401 10.583333,10.583333 0 0 0 22.947786,9.0577826 Z M 15.011374,23.65568 a 10.583333,10.583333 0 0 0 0.619399,-0.12095 10.582755,10.58321 30 0 1 -0.619399,0.12095 z M 23.232112,9.7941813 A 10.582755,10.58321 30 0 1 23.376034,10.2353 10.583333,10.583333 0 0 0 23.232112,9.7941813 Z M 15.836194,23.479688 a 10.583333,10.583333 0 0 0 0.569243,-0.157068 10.582755,10.58321 30 0 1 -0.569243,0.157068 z m 7.628172,-12.914727 a 10.582755,10.58321 30 0 1 0.109022,0.447821 10.583333,10.583333 0 0 0 -0.109022,-0.447821 z m -6.81299,12.671709 a 10.583333,10.583333 0 0 0 0.507377,-0.183238 10.582755,10.58321 30 0 1 -0.507377,0.183238 z M 23.6382,11.356312 a 10.582755,10.58321 30 0 1 0.07313,0.447981 10.583333,10.583333 0 0 0 -0.07313,-0.447981 z m -6.200079,11.574976 a 10.583333,10.583333 0 0 0 0.45305,-0.203863 10.582755,10.58321 30 0 1 -0.45305,0.203863 z m 6.312863,-10.777103 a 10.582755,10.58321 30 0 1 0.03806,0.449812 10.583333,10.583333 0 0 0 -0.03806,-0.449812 z m -5.580523,10.425393 a 10.583333,10.583333 0 0 0 0.432815,-0.237028 10.582755,10.58321 30 0 1 -0.432815,0.237028 z m 5.63181,-9.621256 a 10.582755,10.58321 30 0 1 0.0036,0.448442 10.583333,10.583333 0 0 0 -0.0036,-0.448442 z m -4.942788,9.223651 a 10.583333,10.583333 0 0 0 0.419967,-0.273684 10.582755,10.58321 30 0 1 -0.419967,0.273684 z m 4.933201,-8.42363 a 10.582755,10.58321 30 0 1 -0.03231,0.461101 10.583333,10.583333 0 0 0 0.03231,-0.461101 z m -4.256191,7.960016 a 10.583333,10.583333 0 0 0 0.38153,-0.292892 10.582755,10.58321 30 0 1 -0.38153,0.292892 z m 4.186176,-7.163854 a 10.582755,10.58321 30 0 1 -0.06703,0.457165 10.583333,10.583333 0 0 0 0.06703,-0.457165 z m -3.559562,6.660403 a 10.583333,10.583333 0 0 0 0.364118,-0.326813 10.582755,10.58321 30 0 1 -0.364118,0.326813 z m 3.428466,-5.864897 a 10.582755,10.58321 30 0 1 -0.10382,0.456808 10.583333,10.583333 0 0 0 0.10382,-0.456808 z m -2.849562,5.32316 a 10.583333,10.583333 0 0 0 0.346139,-0.362852 10.582755,10.58321 30 0 1 -0.346139,0.362852 z m 2.66049,-4.549193 a 10.582755,10.58321 30 0 1 -0.139111,0.450754 10.583333,10.583333 0 0 0 0.139111,-0.450754 z m -2.107787,3.946383 a 10.583333,10.583333 0 0 0 0.304325,-0.372076 10.582755,10.58321 30 0 1 -0.304325,0.372076 z m 1.854741,-3.171163 a 10.582755,10.58321 30 0 1 -0.17049,0.429654 10.583333,10.583333 0 0 0 0.17049,-0.429654 z m -1.355602,2.53504 a 10.583333,10.583333 0 0 0 0.275391,-0.395344 10.582755,10.58321 30 0 1 -0.275391,0.395344 z m 1.052159,-1.799656 a 10.582755,10.58321 30 0 1 -0.206416,0.422636 10.583333,10.583333 0 0 0 0.206416,-0.422636 z m -0.604985,1.130548 a 10.583333,10.583333 0 0 0 0.153575,-0.244297 10.583333,10.583333 0 0 0 0.08617,-0.16268 10.582755,10.58321 30 0 1 -0.239741,0.406977 z" /><path style="display:inline;fill:#ff00ff;fill-opacity:1;stroke:#000005;stroke-width:1.323;stroke-linecap:butt;stroke-linejoin:miter;stroke-dasharray:none;stroke-opacity:1" d="m 13.229161,2.6458398 a 10.583333,10.583333 0 0 0 -0.08785,0.0031 10.58321,10.582755 0 0 1 0.722436,0.016536 10.583333,10.583333 0 0 0 -0.634586,-0.019637 z m -0.432532,0.01602 a 10.583333,10.583333 0 0 0 -0.45992,0.024805 10.58321,10.582755 0 0 1 0.45992,-0.024805 z m 1.103292,0.0062 a 10.58321,10.582755 0 0 1 0.774629,0.078031 10.583333,10.583333 0 0 0 -0.774629,-0.078031 z m -1.909961,0.057878 a 10.583333,10.583333 0 0 0 -0.449585,0.059428 10.58321,10.582755 0 0 1 0.449585,-0.059428 z m 2.720247,0.024805 a 10.58321,10.582755 0 0 1 0.770496,0.138493 10.583333,10.583333 0 0 0 -0.770496,-0.138493 z m -3.51193,0.099219 a 10.583333,10.583333 0 0 0 -0.447518,0.094051 10.58321,10.582755 0 0 1 0.447518,-0.094051 z m 4.310848,0.045475 A 10.58321,10.582755 0 0 1 16.271352,3.0933577 10.583333,10.583333 0 0 0 15.509125,2.8954368 Z M 10.406077,3.0365137 A 10.583333,10.583333 0 0 0 9.9823298,3.1605371 10.58321,10.582755 0 0 1 10.406077,3.0365137 Z m 5.888013,0.063562 A 10.58321,10.582755 0 0 1 17.029962,3.3527734 10.583333,10.583333 0 0 0 16.29409,3.1000757 Z M 9.6304138,3.283527 A 10.583333,10.583333 0 0 0 9.2299208,3.4354557 10.58321,10.582755 0 0 1 9.6304138,3.283527 Z m 7.4470912,0.08785 A 10.58321,10.582755 0 0 1 17.789089,3.6793685 10.583333,10.583333 0 0 0 17.077505,3.371377 Z M 8.8878228,3.5848006 A 10.583333,10.583333 0 0 0 8.4971498,3.7677352 10.58321,10.582755 0 0 1 8.8878228,3.5848006 Z M 17.813377,3.6912541 A 10.58321,10.582755 0 0 1 18.502741,4.0540226 10.583333,10.583333 0 0 0 17.813377,3.6912541 Z M 8.1648698,3.9439518 a 10.583333,10.583333 0 0 0 -0.371553,0.2103231 10.58321,10.582755 0 0 1 0.371553,-0.2103231 z m 10.3554412,0.1204061 -2.645834,4.582666 a 5.2916675,5.2916665 0 0 1 2.64635,4.5816321 h 5.291667 A 10.583333,10.583333 0 0 0 18.520311,4.0643579 Z M 7.4775738,4.3527124 a 10.583333,10.583333 0 0 0 -0.361219,0.243396 10.58321,10.582755 0 0 1 0.361219,-0.243396 z m -0.652674,0.4588867 a 10.583333,10.583333 0 0 0 -0.348299,0.2759522 10.58321,10.582755 0 0 1 0.348299,-0.2759522 z m -0.620117,0.5095296 a 10.583333,10.583333 0 0 0 -0.326595,0.3023072 10.58321,10.582755 0 0 1 0.326595,-0.3023072 z m -0.582393,0.5581055 a 10.583333,10.583333 0 0 0 -0.296106,0.3198771 10.58321,10.582755 0 0 1 0.296106,-0.3198771 z m -0.540019,0.603064 a 10.583333,10.583333 0 0 0 -0.265617,0.3348632 10.58321,10.582755 0 0 1 0.265617,-0.3348632 z m -0.489376,0.6387207 a 10.583333,10.583333 0 0 0 -0.238745,0.3545003 10.58321,10.582755 0 0 1 0.238745,-0.3545003 z m -0.438733,0.6723104 a 10.583333,10.583333 0 0 0 -0.210323,0.3715535 10.58321,10.582755 0 0 1 0.210323,-0.3715535 z m -0.387056,0.7048665 a 10.583333,10.583333 0 0 0 -0.180351,0.3844726 10.58321,10.582755 0 0 1 0.180351,-0.3844726 z m -0.333313,0.7353556 a 10.583333,10.583333 0 0 0 -0.147795,0.3901571 10.58321,10.582755 0 0 1 0.147795,-0.3901571 z m -0.274402,0.7513753 a 10.583333,10.583333 0 0 0 -0.12144,0.4149613 10.58321,10.582755 0 0 1 0.12144,-0.4149613 z m -0.216008,0.7679113 a 10.583333,10.583333 0 0 0 -0.0925,0.440283 10.58321,10.582755 0 0 1 0.0925,-0.440283 z m -0.158646,0.789099 a 10.583333,10.583333 0 0 0 -0.05839,0.444417 10.58321,10.582755 0 0 1 0.05839,-0.444417 z m -0.09819,0.7953 a 10.583333,10.583333 0 0 0 -0.0248,0.457854 10.58321,10.582755 0 0 1 0.0248,-0.457854 z m -0.03772,0.804086 a 10.583333,10.583333 0 0 0 -0.0031,0.08785 10.583333,10.583333 0 0 0 0.01344,0.366386 10.58321,10.582755 0 0 1 -0.01033,-0.454236 z m 21.1635662,0.08785 a 10.58321,10.582755 0 0 1 -0.03101,0.806152 10.583333,10.583333 0 0 0 0.03101,-0.806152 z M 2.6726978,13.944891 a 10.583333,10.583333 0 0 0 0.04599,0.460954 10.58321,10.582755 0 0 1 -0.04599,-0.460954 z m 21.0829512,0.31626 a 10.58321,10.582755 0 0 1 -0.06511,0.564307 10.583333,10.583333 0 0 0 0.06511,-0.564307 z M 2.7569308,14.744326 a 10.583333,10.583333 0 0 0 0.0894,0.497127 10.58321,10.582755 0 0 1 -0.0894,-0.497127 z m 20.8715952,0.409277 a 10.58321,10.582755 0 0 1 -0.09147,0.468705 10.583333,10.583333 0 0 0 0.09147,-0.468705 z M 2.9000748,15.52619 a 10.583333,10.583333 0 0 0 0.136426,0.526583 10.58321,10.582755 0 0 1 -0.136426,-0.526583 z m 20.5579192,0.390674 a 10.58321,10.582755 0 0 1 -0.132292,0.47904 10.583333,10.583333 0 0 0 0.132292,-0.47904 z M 3.1052308,16.307538 a 10.583333,10.583333 0 0 0 0.170532,0.497644 10.58321,10.582755 0 0 1 -0.170532,-0.497644 z m 20.1078162,0.410311 a 10.58321,10.582755 0 0 1 -0.156062,0.432531 10.583333,10.583333 0 0 0 0.156062,-0.432531 z M 3.3692968,17.071832 a 10.583333,10.583333 0 0 0 0.267684,0.618567 10.58321,10.582755 0 0 1 -0.267684,-0.618567 z m 19.5471282,0.400493 a 10.58321,10.582755 0 0 1 -0.186552,0.414445 10.583333,10.583333 0 0 0 0.186552,-0.414445 z M 3.6860738,17.80357 a 10.583333,10.583333 0 0 0 0.377754,0.716753 10.58321,10.582755 0 0 1 -0.377754,-0.716753 z m 18.8799842,0.392225 a 10.58321,10.582755 0 0 1 -0.218074,0.399458 10.583333,10.583333 0 0 0 0.218074,-0.399458 z M 4.0638278,18.520839 a 10.583333,10.583333 0 0 0 0.429432,0.681612 10.58321,10.582755 0 0 1 -0.429432,-0.681612 z m 18.0950202,0.374654 a 10.58321,10.582755 0 0 1 -0.242362,0.372588 10.583333,10.583333 0 0 0 0.242362,-0.372588 z M 4.5971288,19.343011 a 10.583333,10.583333 0 0 0 0.379305,0.510047 10.58321,10.582755 0 0 1 -0.379305,-0.510047 z m 17.1038662,0.217041 a 10.58321,10.582755 0 0 1 -0.272335,0.355017 10.583333,10.583333 0 0 0 0.272335,-0.355017 z M 5.0906388,19.985866 a 10.583333,10.583333 0 0 0 0.414445,0.47594 10.58321,10.582755 0 0 1 -0.414445,-0.47594 z m 16.1147792,0.188619 a 10.58321,10.582755 0 0 1 -0.310059,0.345199 10.583333,10.583333 0 0 0 0.310059,-0.345199 z m -15.5499562,0.4377 a 10.583333,10.583333 0 0 0 0.420647,0.414445 10.58321,10.582755 0 0 1 -0.420647,-0.414445 z M 20.65403,20.761013 a 10.58321,10.582755 0 0 1 -0.333313,0.318326 10.583333,10.583333 0 0 0 0.333313,-0.318326 z M 6.2735128,21.196645 a 10.583333,10.583333 0 0 0 0.412378,0.347782 10.58321,10.582755 0 0 1 -0.412378,-0.347782 z m 13.7821042,0.110588 a 10.58321,10.582755 0 0 1 -0.351399,0.287321 10.583333,10.583333 0 0 0 0.351399,-0.287321 z M 6.9313538,21.725295 a 10.583333,10.583333 0 0 0 0.403076,0.290421 10.58321,10.582755 0 0 1 -0.403076,-0.290421 z m 12.4896772,0.07855 a 10.58321,10.582755 0 0 1 -0.37052,0.257865 10.583333,10.583333 0 0 0 0.37052,-0.257865 z M 7.6021138,22.183667 a 10.583333,10.583333 0 0 0 0.421679,0.256315 10.58321,10.582755 0 0 1 -0.421679,-0.256315 z m 11.1481572,0.06666 a 10.58321,10.582755 0 0 1 -0.38654,0.227377 10.583333,10.583333 0 0 0 0.38654,-0.227377 z M 8.2909608,22.581573 a 10.583333,10.583333 0 0 0 0.447001,0.22686 10.58321,10.582755 0 0 1 -0.447001,-0.22686 z m 9.7616782,0.06046 a 10.58321,10.582755 0 0 1 -0.415479,0.202571 10.583333,10.583333 0 0 0 0.415479,-0.202571 z m -9.0216722,0.294039 a 10.583333,10.583333 0 0 0 0.444417,0.183968 10.58321,10.582755 0 0 1 -0.444417,-0.183968 z m 8.2971682,0.04341 a 10.58321,10.582755 0 0 1 -0.429431,0.170532 10.583333,10.583333 0 0 0 0.429431,-0.170532 z m -7.5478602,0.24753 a 10.583333,10.583333 0 0 0 0.4650882,0.151929 10.58321,10.582755 0 0 1 -0.4650882,-0.151929 z m 6.7933842,0.03669 a 10.58321,10.582755 0 0 1 -0.447518,0.138493 10.583333,10.583333 0 0 0 0.447518,-0.138493 z m -6.034773,0.193787 a 10.583333,10.583333 0 0 0 0.487308,0.118339 10.58321,10.582755 0 0 1 -0.487308,-0.118339 z m 5.269962,0.02945 a 10.58321,10.582755 0 0 1 -0.45992,0.104904 10.583333,10.583333 0 0 0 0.45992,-0.104904 z m -4.471562,0.147794 a 10.583333,10.583333 0 0 0 0.47439,0.07751 10.58321,10.582755 0 0 1 -0.47439,-0.07751 z m 3.673678,0.02067 a 10.58321,10.582755 0 0 1 -0.457336,0.06718 10.583333,10.583333 0 0 0 0.457336,-0.06718 z m -2.87321,0.09353 a 10.583333,10.583333 0 0 0 0.480074,0.04082 10.58321,10.582755 0 0 1 -0.480074,-0.04082 z m 2.084628,0.01137 a 10.58321,10.582755 0 0 1 -0.469222,0.03256 10.583333,10.583333 0 0 0 0.469222,-0.03256 z m -1.281576,0.04134 a 10.583333,10.583333 0 0 0 0.288355,0.01085 10.583333,10.583333 0 0 0 0.183968,-0.0067 10.58321,10.582755 0 0 1 -0.472323,-0.0041 z" /><path style="display:inline;fill:#ff8000;fill-opacity:1;stroke:#000005;stroke-width:1.323;stroke-linecap:butt;stroke-linejoin:miter;stroke-dasharray:none;stroke-opacity:1" d="m 4.0637308,18.520828 a 10.583333,10.583333 0 0 0 0.04661,0.07453 10.58321,10.582755 60 0 1 -0.3468974,-0.633916 10.583333,10.583333 0 0 0 0.3002874,0.559386 z m 0.2301398,0.366574 a 10.583333,10.583333 0 0 0 0.2514417,0.3859 10.58321,10.582755 60 0 1 -0.2514417,-0.3859 z M 3.7475939,17.928823 a 10.58321,10.582755 60 0 1 -0.3197376,-0.709864 10.583333,10.583333 0 0 0 0.3197376,0.709864 z m 1.0051043,1.625136 A 10.583333,10.583333 0 0 0 5.0289569,19.913597 10.58321,10.582755 60 0 1 4.7526982,19.553959 Z M 3.4140565,17.185753 A 10.58321,10.582755 60 0 1 3.148747,16.449238 10.583333,10.583333 0 0 0 3.4140565,17.185753 Z m 1.8418912,2.991812 A 10.583333,10.583333 0 0 0 5.5611572,20.518101 10.58321,10.582755 60 0 1 5.2559477,20.177565 Z M 3.1399062,16.421523 a 10.58321,10.582755 60 0 1 -0.209709,-0.759068 10.583333,10.583333 0 0 0 0.209709,0.759068 z m 2.6737002,4.348831 a 10.583333,10.583333 0 0 0 0.319281,0.304964 10.58321,10.582755 60 0 1 -0.319281,-0.304964 z m -2.8889602,-5.13095 a 10.58321,10.582755 60 0 1 -0.1490934,-0.763633 10.583333,10.583333 0 0 0 0.1490934,0.763633 z m 3.4907116,5.679187 A 10.583333,10.583333 0 0 0 6.7471784,21.589464 10.58321,10.582755 60 0 1 6.4153578,21.318591 Z M 2.7678925,14.825296 a 10.58321,10.582755 60 0 1 -0.089063,-0.770245 10.583333,10.583333 0 0 0 0.089063,0.770245 z m 4.2796713,6.985761 A 10.583333,10.583333 0 0 0 7.4013264,22.057923 10.58321,10.582755 60 0 1 7.0475638,21.811057 Z M 2.6769782,14.028074 a 10.58321,10.582755 60 0 1 -0.030515,-0.778391 10.583333,10.583333 0 0 0 0.030515,0.778391 z m 5.0430962,8.229503 A 10.583333,10.583333 0 0 0 8.0879961,22.47419 10.58321,10.582755 60 0 1 7.7200744,22.257577 Z m -5.0734458,-9.028278 5.2916221,2.7e-5 A 5.2916675,5.2916665 60 0 1 10.582886,8.6467031 L 7.937052,4.0639851 A 10.583333,10.583333 0 0 0 2.6466286,13.229299 Z m 5.7710909,9.419114 A 10.583333,10.583333 0 0 0 8.8091161,22.83954 10.58321,10.582755 60 0 1 8.4177195,22.648413 Z M 9.141464,22.984202 A 10.583333,10.583333 0 0 0 9.5545951,23.147861 10.58321,10.582755 60 0 1 9.141464,22.984202 Z m 0.7513241,0.282272 A 10.583333,10.583333 0 0 0 10.317891,23.39816 10.58321,10.582755 60 0 1 9.8927881,23.266474 Z m 0.7745299,0.225314 a 10.583333,10.583333 0 0 0 0.425075,0.0965 10.58321,10.582755 60 0 1 -0.425075,-0.0965 z m 0.792278,0.166139 a 10.583333,10.583333 0 0 0 0.422809,0.0626 10.58321,10.582755 60 0 1 -0.422809,-0.0626 z m 0.797837,0.104451 a 10.583333,10.583333 0 0 0 0.426378,0.02951 10.58321,10.582755 60 0 1 -0.426378,-0.02951 z m 0.801604,0.0438 a 10.583333,10.583333 0 0 0 0.426936,-0.0036 10.58321,10.582755 60 0 1 -0.426936,0.0036 z m 0.80396,-0.01723 a 10.583333,10.583333 0 0 0 0.423139,-0.03605 10.58321,10.582755 60 0 1 -0.423139,0.03605 z m 0.803494,-0.07902 a 10.583333,10.583333 0 0 0 0.411783,-0.06709 10.58321,10.582755 60 0 1 -0.411783,0.06709 z m 0.787911,-0.138049 a 10.583333,10.583333 0 0 0 0.420087,-0.10231 10.58321,10.582755 60 0 1 -0.420087,0.10231 z m 0.773034,-0.196887 a 10.583333,10.583333 0 0 0 0.427547,-0.140034 10.58321,10.582755 60 0 1 -0.427547,0.140034 z m 0.762703,-0.257158 a 10.583333,10.583333 0 0 0 0.414072,-0.171641 10.58321,10.582755 60 0 1 -0.414072,0.171641 z m 0.737845,-0.312615 a 10.583333,10.583333 0 0 0 0.408913,-0.20745 10.58321,10.582755 60 0 1 -0.408913,0.20745 z m 0.715219,-0.369377 a 10.583333,10.583333 0 0 0 0.07763,-0.04124 10.583333,10.583333 0 0 0 0.31058,-0.194832 10.58321,10.582755 60 0 1 -0.388215,0.236064 z M 7.9375002,4.0637275 A 10.58321,10.582755 60 0 1 8.6511534,3.6875069 10.583333,10.583333 0 0 0 7.9375002,4.0637275 Z M 19.127228,22.013468 a 10.583333,10.583333 0 0 0 0.376203,-0.270305 10.58321,10.582755 60 0 1 -0.376203,0.270305 z M 8.8596414,3.5969668 A 10.58321,10.582755 60 0 1 9.3809006,3.3712002 10.583333,10.583333 0 0 0 8.8596414,3.5969668 Z M 19.777442,21.540803 a 10.583333,10.583333 0 0 0 0.385825,-0.325986 10.58321,10.582755 60 0 1 -0.385825,0.325986 z M 9.696089,3.2608326 A 10.58321,10.582755 60 0 1 10.147734,3.1056954 10.583333,10.583333 0 0 0 9.696089,3.2608326 Z M 20.382984,21.025904 a 10.583333,10.583333 0 0 0 0.387822,-0.38144 10.58321,10.582755 60 0 1 -0.387822,0.38144 z M 10.442358,3.0268871 A 10.58321,10.582755 60 0 1 10.923365,2.9019353 10.583333,10.583333 0 0 0 10.442358,3.0268871 Z M 20.957074,20.45756 A 10.583333,10.583333 0 0 0 21.30278,20.061053 10.58321,10.582755 60 0 1 20.957074,20.45756 Z M 11.258505,2.8385249 a 10.58321,10.582755 60 0 1 0.452614,-0.081112 10.583333,10.583333 0 0 0 -0.452614,0.081112 z M 21.486939,19.846725 a 10.583333,10.583333 0 0 0 0.401852,-0.541104 10.58321,10.582755 60 0 1 -0.401852,0.541104 z M 12.060212,2.7181691 a 10.58321,10.582755 60 0 1 0.452196,-0.045664 10.583333,10.583333 0 0 0 -0.452196,0.045664 z m 9.902042,16.4883499 a 10.583333,10.583333 0 0 0 0.431849,-0.685521 10.58321,10.582755 60 0 1 -0.431849,0.685521 z M 12.861939,2.6598608 a 10.58321,10.582755 60 0 1 0.454977,-0.010871 10.583333,10.583333 0 0 0 -0.454977,0.010871 z M 22.39455,18.52074 A 10.583333,10.583333 0 0 0 22.770127,17.808035 10.58321,10.582755 60 0 1 22.39455,18.52074 Z M 13.6715,2.662666 A 10.58321,10.582755 60 0 1 14.115351,2.6862637 10.583333,10.583333 0 0 0 13.6715,2.662666 Z m 9.168421,14.985136 a 10.583333,10.583333 0 0 0 0.252062,-0.583511 10.58321,10.582755 60 0 1 -0.252062,0.583511 z M 14.475951,2.7268989 a 10.58321,10.582755 60 0 1 0.443622,0.05834 10.583333,10.583333 0 0 0 -0.443622,-0.05834 z m 8.673944,14.1720831 a 10.583333,10.583333 0 0 0 0.204954,-0.59689 10.58321,10.582755 60 0 1 -0.204954,0.59689 z M 15.255854,2.8488646 a 10.58321,10.582755 60 0 1 0.453981,0.095919 10.583333,10.583333 0 0 0 -0.453981,-0.095919 z m 8.154038,13.2478074 a 10.583333,10.583333 0 0 0 0.148596,-0.571514 10.58321,10.582755 60 0 1 -0.148596,0.571514 z M 16.039497,3.0331167 a 10.58321,10.582755 60 0 1 0.442334,0.1294945 10.583333,10.583333 0 0 0 -0.442334,-0.1294945 z m 7.567527,12.2360773 a 10.583333,10.583333 0 0 0 0.095,-0.531021 10.58321,10.582755 60 0 1 -0.095,0.531021 z M 16.811743,3.2782475 a 10.58321,10.582755 60 0 1 0.424527,0.16066 10.583333,10.583333 0 0 0 -0.424527,-0.16066 z m 6.924184,11.1569145 a 10.583333,10.583333 0 0 0 0.04997,-0.494285 10.58321,10.582755 60 0 1 -0.04997,0.494285 z M 17.559115,3.5795091 a 10.58321,10.582755 60 0 1 0.408578,0.1919472 10.583333,10.583333 0 0 0 -0.408578,-0.1919472 z m 6.238394,10.0455719 a 10.583333,10.583333 0 0 0 0.01114,-0.493343 10.58321,10.582755 60 0 1 -0.01114,0.493343 z M 18.28116,3.9371633 a 10.58321,10.582755 60 0 1 0.390184,0.221065 10.583333,10.583333 0 0 0 -0.390184,-0.221065 z m 5.516522,8.8924057 a 10.583333,10.583333 0 0 0 -0.02703,-0.500545 10.58321,10.582755 60 0 1 0.02703,0.500545 z M 18.969203,4.3454773 a 10.58321,10.582755 60 0 1 0.383171,0.2585299 10.583333,10.583333 0 0 0 -0.383171,-0.2585299 z m 4.765481,7.6659777 a 10.583333,10.583333 0 0 0 -0.06289,-0.47686 10.58321,10.582755 60 0 1 0.06289,0.47686 z M 19.623695,4.8041917 a 10.58321,10.582755 60 0 1 0.3624,0.2866322 10.583333,10.583333 0 0 0 -0.3624,-0.2866322 z m 3.988297,6.4128733 a 10.583333,10.583333 0 0 0 -0.10097,-0.478742 10.58321,10.582755 60 0 1 0.10097,0.478742 z M 20.247074,5.3154771 A 10.58321,10.582755 60 0 1 20.590772,5.6337926 10.583333,10.583333 0 0 0 20.247074,5.3154771 Z M 23.432285,10.44485 A 10.583333,10.583333 0 0 0 23.291116,9.9636597 10.58321,10.582755 60 0 1 23.432285,10.44485 Z M 20.822809,5.8662044 a 10.58321,10.582755 60 0 1 0.320809,0.3458504 10.583333,10.583333 0 0 0 -0.320809,-0.3458504 z m 2.363774,3.7985892 A 10.583333,10.583333 0 0 0 23.016514,9.2152048 10.58321,10.582755 60 0 1 23.186583,9.6647936 Z M 21.367645,6.4729602 A 10.58321,10.582755 60 0 1 21.654492,6.8354348 10.583333,10.583333 0 0 0 21.367645,6.4729602 Z M 22.885249,8.914468 A 10.583333,10.583333 0 0 0 22.680563,8.4783017 10.58321,10.582755 60 0 1 22.885249,8.914468 Z M 21.852782,7.1034422 a 10.58321,10.582755 60 0 1 0.262809,0.3900782 10.583333,10.583333 0 0 0 -0.262809,-0.3900782 z m 0.676589,1.0892074 A 10.583333,10.583333 0 0 0 22.39459,7.9375018 10.583333,10.583333 0 0 0 22.296804,7.7815309 10.58321,10.582755 60 0 1 22.529415,8.1926246 Z" /><path style="display:inline;fill:#fffd00;fill-opacity:1;stroke:#000005;stroke-width:1.323;stroke-linecap:butt;stroke-linejoin:miter;stroke-dasharray:none;stroke-opacity:1" d="m 13.229412,23.810495 a 10.583333,10.583333 0 0 0 0.08785,-0.0031 10.58321,10.582755 0 0 1 -0.722436,-0.01654 10.583333,10.583333 0 0 0 0.634586,0.01964 z m 0.432532,-0.01602 a 10.583333,10.583333 0 0 0 0.459921,-0.0248 10.58321,10.582755 0 0 1 -0.459921,0.0248 z m -1.103292,-0.0062 a 10.58321,10.582755 0 0 1 -0.774629,-0.07803 10.583333,10.583333 0 0 0 0.774629,0.07803 z m 1.909962,-0.05788 a 10.583333,10.583333 0 0 0 0.449585,-0.05943 10.58321,10.582755 0 0 1 -0.449585,0.05943 z m -2.720248,-0.02481 a 10.58321,10.582755 0 0 1 -0.770495,-0.138493 10.583333,10.583333 0 0 0 0.770495,0.138493 z m 3.511931,-0.09922 a 10.583333,10.583333 0 0 0 0.447518,-0.09405 10.58321,10.582755 0 0 1 -0.447518,0.09405 z m -4.310849,-0.04547 a 10.58321,10.582755 0 0 1 -0.762226,-0.197921 10.583333,10.583333 0 0 0 0.762226,0.197921 z m 5.103049,-0.141077 a 10.583333,10.583333 0 0 0 0.423747,-0.124023 10.58321,10.582755 0 0 1 -0.423747,0.124023 z m -5.888014,-0.06356 A 10.58321,10.582755 0 0 1 9.4286112,23.10356 10.583333,10.583333 0 0 0 10.164483,23.356258 Z m 6.663676,-0.183451 a 10.583333,10.583333 0 0 0 0.400494,-0.151929 10.58321,10.582755 0 0 1 -0.400494,0.151929 z M 9.3810684,23.084958 A 10.58321,10.582755 0 0 1 8.6694852,22.776966 10.583333,10.583333 0 0 0 9.3810684,23.084958 Z M 17.570751,22.871534 A 10.583333,10.583333 0 0 0 17.961424,22.6886 10.58321,10.582755 0 0 1 17.570751,22.871534 Z M 8.6451968,22.765081 a 10.58321,10.582755 0 0 1 -0.6893639,-0.362769 10.583333,10.583333 0 0 0 0.6893639,0.362769 z m 9.6485072,-0.252698 a 10.583333,10.583333 0 0 0 0.371553,-0.210323 10.58321,10.582755 0 0 1 -0.371553,0.210323 z M 7.9382625,22.391977 10.584097,17.809311 A 5.2916675,5.2916665 0 0 1 7.9377468,13.227679 H 2.6460795 a 10.583333,10.583333 0 0 0 5.292183,9.164298 z M 18.981,22.103623 A 10.583333,10.583333 0 0 0 19.342219,21.860227 10.58321,10.582755 0 0 1 18.981,22.103623 Z m 0.652674,-0.458887 a 10.583333,10.583333 0 0 0 0.348298,-0.275952 10.58321,10.582755 0 0 1 -0.348298,0.275952 z m 0.620117,-0.50953 a 10.583333,10.583333 0 0 0 0.326595,-0.302307 10.58321,10.582755 0 0 1 -0.326595,0.302307 z m 0.582392,-0.558105 a 10.583333,10.583333 0 0 0 0.296109,-0.319876 10.58321,10.582755 0 0 1 -0.296109,0.319876 z m 0.54002,-0.603064 a 10.583333,10.583333 0 0 0 0.265618,-0.334863 10.58321,10.582755 0 0 1 -0.265618,0.334863 z m 0.489376,-0.638721 a 10.583333,10.583333 0 0 0 0.238745,-0.354499 10.58321,10.582755 0 0 1 -0.238745,0.354499 z m 0.438734,-0.67231 a 10.583333,10.583333 0 0 0 0.21035,-0.371537 10.58321,10.582755 0 0 1 -0.21035,0.371537 z m 0.387058,-0.704864 a 10.583333,10.583333 0 0 0 0.180349,-0.384475 10.58321,10.582755 0 0 1 -0.180349,0.384475 z m 0.333314,-0.735357 a 10.583333,10.583333 0 0 0 0.14779,-0.390159 10.58321,10.582755 0 0 1 -0.14779,0.390159 z m 0.274401,-0.751375 a 10.583333,10.583333 0 0 0 0.121441,-0.414961 10.58321,10.582755 0 0 1 -0.121441,0.414961 z m 0.216008,-0.767911 a 10.583333,10.583333 0 0 0 0.0925,-0.440283 10.58321,10.582755 0 0 1 -0.0925,0.440283 z M 23.67374,14.9144 a 10.583333,10.583333 0 0 0 0.05839,-0.444417 10.58321,10.582755 0 0 1 -0.05839,0.444417 z m 0.09819,-0.7953 a 10.583333,10.583333 0 0 0 0.0248,-0.457854 10.58321,10.582755 0 0 1 -0.0248,0.457854 z m 0.03772,-0.804086 a 10.583333,10.583333 0 0 0 0.0031,-0.08785 10.583333,10.583333 0 0 0 -0.01344,-0.366386 10.58321,10.582755 0 0 1 0.01033,0.454236 z M 2.6460806,13.227162 a 10.58321,10.582755 0 0 1 0.03101,-0.806152 10.583333,10.583333 0 0 0 -0.03101,0.806152 z M 23.785876,12.511444 a 10.583333,10.583333 0 0 0 -0.04599,-0.460954 10.58321,10.582755 0 0 1 0.04599,0.460954 z M 2.7029245,12.195184 a 10.58321,10.582755 0 0 1 0.06511,-0.564307 10.583333,10.583333 0 0 0 -0.06511,0.564307 z M 23.701643,11.712009 a 10.583333,10.583333 0 0 0 -0.0894,-0.497127 10.58321,10.582755 0 0 1 0.0894,0.497127 z M 2.8300476,11.302732 a 10.58321,10.582755 0 0 1 0.09147,-0.468705 10.583333,10.583333 0 0 0 -0.09147,0.468705 z M 23.558498,10.930145 a 10.583333,10.583333 0 0 0 -0.136426,-0.526583 10.58321,10.582755 0 0 1 0.136426,0.526583 z M 3.0005793,10.539471 a 10.58321,10.582755 0 0 1 0.1322921,-0.47904 10.583333,10.583333 0 0 0 -0.1322921,0.47904 z M 23.353343,10.148797 a 10.583333,10.583333 0 0 0 -0.170532,-0.497644 10.58321,10.582755 0 0 1 0.170532,0.497644 z M 3.2455264,9.7384863 A 10.58321,10.582755 0 0 1 3.4015883,9.3059551 10.583333,10.583333 0 0 0 3.2455264,9.7384863 Z M 23.089277,9.3845027 A 10.583333,10.583333 0 0 0 22.821593,8.7659366 10.58321,10.582755 0 0 1 23.089277,9.3845027 Z M 3.5421487,8.9840098 A 10.58321,10.582755 0 0 1 3.7287005,8.5695645 10.583333,10.583333 0 0 0 3.5421487,8.9840098 Z M 22.7725,8.6527648 A 10.583333,10.583333 0 0 0 22.394745,7.9360121 10.58321,10.582755 0 0 1 22.7725,8.6527648 Z M 3.8925157,8.2605397 A 10.58321,10.582755 0 0 1 4.1105897,7.8610825 10.583333,10.583333 0 0 0 3.8925157,8.2605397 Z M 22.394746,7.935496 A 10.583333,10.583333 0 0 0 21.965313,7.2538843 10.58321,10.582755 0 0 1 22.394746,7.935496 Z M 4.2997256,7.5608419 A 10.58321,10.582755 0 0 1 4.5420873,7.1882545 10.583333,10.583333 0 0 0 4.2997256,7.5608419 Z M 21.861445,7.1133244 A 10.583333,10.583333 0 0 0 21.48214,6.6032768 10.58321,10.582755 0 0 1 21.861445,7.1133244 Z M 4.7575784,6.8962833 A 10.58321,10.582755 0 0 1 5.0299134,6.5412654 10.583333,10.583333 0 0 0 4.7575784,6.8962833 Z M 21.367934,6.470469 A 10.583333,10.583333 0 0 0 20.95349,5.9945286 10.58321,10.582755 0 0 1 21.367934,6.470469 Z M 5.2531553,6.2818504 A 10.58321,10.582755 0 0 1 5.5632141,5.9366508 10.583333,10.583333 0 0 0 5.2531553,6.2818504 Z M 20.803112,5.84415 A 10.583333,10.583333 0 0 0 20.382464,5.4297051 10.58321,10.582755 0 0 1 20.803112,5.84415 Z M 5.8045438,5.6953217 A 10.58321,10.582755 0 0 1 6.1378563,5.3769964 10.583333,10.583333 0 0 0 5.8045438,5.6953217 Z M 20.185061,5.2596897 A 10.583333,10.583333 0 0 0 19.772683,4.9119068 10.58321,10.582755 0 0 1 20.185061,5.2596897 Z M 6.4029563,5.1491024 A 10.58321,10.582755 0 0 1 6.7543555,4.8617812 10.583333,10.583333 0 0 0 6.4029563,5.1491024 Z M 19.52722,4.7310404 A 10.583333,10.583333 0 0 0 19.124141,4.4406226 10.58321,10.582755 0 0 1 19.52722,4.7310404 Z M 7.0375425,4.6524901 A 10.58321,10.582755 0 0 1 7.4080627,4.3946247 10.583333,10.583333 0 0 0 7.0375425,4.6524901 Z M 18.85646,4.2726683 a 10.583333,10.583333 0 0 0 -0.421678,-0.256319 10.58321,10.582755 0 0 1 0.421678,0.256319 z M 7.7083026,4.2060079 a 10.58321,10.582755 0 0 1 0.38654,-0.2273768 10.583333,10.583333 0 0 0 -0.38654,0.2273768 z M 18.167613,3.8747625 a 10.583333,10.583333 0 0 0 -0.447,-0.2268638 10.58321,10.582755 0 0 1 0.447,0.2268638 z M 8.4059344,3.8143021 A 10.58321,10.582755 0 0 1 8.8214134,3.6117313 10.583333,10.583333 0 0 0 8.4059344,3.8143021 Z M 17.427606,3.5202634 A 10.583333,10.583333 0 0 0 16.983189,3.3362977 10.58321,10.582755 0 0 1 17.427606,3.5202634 Z M 9.1304388,3.4768526 A 10.58321,10.582755 0 0 1 9.5598695,3.3063211 10.583333,10.583333 0 0 0 9.1304388,3.4768526 Z M 16.678298,3.2293228 A 10.583333,10.583333 0 0 0 16.213211,3.0773944 10.58321,10.582755 0 0 1 16.678298,3.2293228 Z M 9.8849144,3.1926333 A 10.58321,10.582755 0 0 1 10.332433,3.0541398 10.583333,10.583333 0 0 0 9.8849144,3.1926333 Z M 15.919687,2.9988461 A 10.583333,10.583333 0 0 0 15.43238,2.8805069 10.58321,10.582755 0 0 1 15.919687,2.9988461 Z m -5.269961,-0.02945 a 10.58321,10.582755 0 0 1 0.459919,-0.1049035 10.583333,10.583333 0 0 0 -0.459919,0.1049035 z m 4.471561,-0.1477937 a 10.583333,10.583333 0 0 0 -0.474389,-0.07751 10.58321,10.582755 0 0 1 0.474389,0.07751 z m -3.673677,-0.02067 a 10.58321,10.582755 0 0 1 0.457335,-0.067179 10.583333,10.583333 0 0 0 -0.457335,0.067179 z m 2.873209,-0.09353 a 10.583333,10.583333 0 0 0 -0.480074,-0.04082 10.58321,10.582755 0 0 1 0.480074,0.04082 z m -2.084627,-0.01137 a 10.58321,10.582755 0 0 1 0.469222,-0.03256 10.583333,10.583333 0 0 0 -0.469222,0.03256 z m 1.281575,-0.041339 a 10.583333,10.583333 0 0 0 -0.288355,-0.01085 10.583333,10.583333 0 0 0 -0.183967,0.0067 10.58321,10.582755 0 0 1 0.472323,0.0041 z" /><path style="display:inline;fill:#00ff00;fill-opacity:1;stroke:#000005;stroke-width:1.323;stroke-linecap:butt;stroke-linejoin:miter;stroke-dasharray:none;stroke-opacity:1" d="m 22.394842,18.518834 a 10.583333,10.583333 0 0 0 0.04124,-0.07763 10.582755,10.58321 30 0 1 -0.375542,0.617378 10.583333,10.583333 0 0 0 0.334301,-0.539748 z m 0.202393,-0.382593 a 10.583333,10.583333 0 0 0 0.208483,-0.410703 10.582755,10.58321 30 0 1 -0.208483,0.410703 z m -0.557016,0.952379 a 10.582755,10.58321 30 0 1 -0.45489,0.631833 10.583333,10.583333 0 0 0 0.45489,-0.631833 z m 0.904856,-1.683016 a 10.583333,10.583333 0 0 0 0.173324,-0.419067 10.582755,10.58321 30 0 1 -0.173324,0.419067 z m -1.38161,2.343399 a 10.582755,10.58321 30 0 1 -0.505186,0.598022 10.583333,10.583333 0 0 0 0.505186,-0.598022 z m 1.670038,-3.091032 a 10.583333,10.583333 0 0 0 0.142309,-0.434586 10.582755,10.58321 30 0 1 -0.142309,0.434586 z m -2.194803,3.71057 a 10.582755,10.58321 30 0 1 -0.552517,0.561147 10.583333,10.583333 0 0 0 0.552517,-0.561147 z m 2.429349,-4.489908 a 10.583333,10.583333 0 0 0 0.104466,-0.428988 10.582755,10.58321 30 0 1 -0.104466,0.428988 z m -2.999052,5.067389 a 10.582755,10.58321 30 0 1 -0.586779,0.510935 10.583333,10.583333 0 0 0 0.586779,-0.510935 z m 3.172965,-5.862638 a 10.583333,10.583333 0 0 0 0.06867,-0.422802 10.582755,10.58321 30 0 1 -0.06867,0.422802 z m -3.799625,6.405445 a 10.582755,10.58321 30 0 1 -0.62252,0.462253 10.583333,10.583333 0 0 0 0.62252,-0.462253 z m 3.910011,-7.199185 a 10.583333,10.583333 0 0 0 0.03691,-0.4298 10.582755,10.58321 30 0 1 -0.03691,0.4298 z m -4.554968,7.67653 a 10.582755,10.58321 30 0 1 -0.658849,0.415622 10.583333,10.583333 0 0 0 0.658849,-0.415622 z m 4.60541,-8.482201 a 10.583333,10.583333 0 0 0 0.0036,-0.426936 10.582755,10.58321 30 0 1 -0.0036,0.426936 z m -5.281995,8.907872 -2.645788,-4.582693 a 5.2916665,5.2916675 30 0 1 -5.290985,9.91e-4 l -2.6458334,4.582718 a 10.583333,10.583333 0 0 0 10.5826064,-0.001 z m 5.271647,-9.707468 a 10.583333,10.583333 0 0 0 -0.03018,-0.434523 10.582755,10.58321 30 0 1 0.03018,0.434523 z m -0.07107,-0.794676 a 10.583333,10.583333 0 0 0 -0.06483,-0.439611 10.582755,10.58321 30 0 1 0.06483,0.439611 z m -0.131207,-0.791802 a 10.583333,10.583333 0 0 0 -0.09851,-0.433993 10.582755,10.58321 30 0 1 0.09851,0.433993 z M 23.398027,10.314481 A 10.583333,10.583333 0 0 0 23.26906,9.8981046 10.582755,10.58321 30 0 1 23.398027,10.314481 Z M 23.145768,9.5452775 A 10.583333,10.583333 0 0 0 22.988577,9.1478141 10.582755,10.58321 30 0 1 23.145768,9.5452775 Z M 22.837307,8.802105 A 10.583333,10.583333 0 0 0 22.649675,8.4180962 10.582755,10.58321 30 0 1 22.837307,8.802105 Z m -0.36287,-0.7161098 a 10.583333,10.583333 0 0 0 -0.216586,-0.367937 10.582755,10.58321 30 0 1 0.216586,0.367937 z M 22.057536,7.3983611 A 10.583333,10.583333 0 0 0 21.814745,7.0499368 10.582755,10.58321 30 0 1 22.057536,7.3983611 Z M 21.587355,6.7420242 A 10.583333,10.583333 0 0 0 21.323362,6.4189548 10.582755,10.58321 30 0 1 21.587355,6.7420242 Z M 21.073845,6.1286985 A 10.583333,10.583333 0 0 0 20.775199,5.816047 10.582755,10.58321 30 0 1 21.073845,6.1286985 Z M 20.516819,5.5576746 A 10.583333,10.583333 0 0 0 20.181773,5.2574257 10.582755,10.58321 30 0 1 20.516819,5.5576746 Z M 19.912762,5.0257336 A 10.583333,10.583333 0 0 0 19.557081,4.7529579 10.582755,10.58321 30 0 1 19.912762,5.0257336 Z M 19.273107,4.5430486 A 10.583333,10.583333 0 0 0 18.888994,4.2926441 10.582755,10.58321 30 0 1 19.273107,4.5430486 Z M 18.595608,4.1083391 a 10.583333,10.583333 0 0 0 -0.07453,-0.04661 10.583333,10.583333 0 0 0 -0.32402,-0.1715536 10.582755,10.58321 30 0 1 0.398545,0.218172 z M 7.9377414,22.392602 A 10.582755,10.58321 30 0 1 7.2550983,21.96267 10.583333,10.583333 0 0 0 7.9377414,22.392602 Z M 17.887809,3.727143 A 10.583333,10.583333 0 0 0 17.465616,3.5364945 10.582755,10.58321 30 0 1 17.887809,3.727143 Z M 7.0724442,21.827385 A 10.582755,10.58321 30 0 1 6.616295,21.488844 10.583333,10.583333 0 0 0 7.0724442,21.827385 Z M 17.153362,3.4003734 A 10.583333,10.583333 0 0 0 16.678137,3.2292326 10.582755,10.58321 30 0 1 17.153362,3.4003734 Z M 6.3631197,21.271067 A 10.582755,10.58321 30 0 1 6.0029442,20.957499 10.583333,10.583333 0 0 0 6.3631197,21.271067 Z M 16.404675,3.1334086 A 10.583333,10.583333 0 0 0 15.880428,2.9882655 10.582755,10.58321 30 0 1 16.404675,3.1334086 Z M 5.7873821,20.741751 A 10.582755,10.58321 30 0 1 5.4386673,20.387663 10.583333,10.583333 0 0 0 5.7873821,20.741751 Z M 15.62543,2.920404 A 10.583333,10.583333 0 0 0 15.109192,2.8192671 10.582755,10.58321 30 0 1 15.62543,2.920404 Z M 5.2161826,20.129129 A 10.582755,10.58321 30 0 1 4.9196305,19.77771 10.583333,10.583333 0 0 0 5.2161826,20.129129 Z M 14.831499,2.7669448 a 10.583333,10.583333 0 0 0 -0.669536,-0.077462 10.582755,10.58321 30 0 1 0.669536,0.077462 z M 4.7110979,19.495008 A 10.582755,10.58321 30 0 1 4.4454536,19.126227 10.583333,10.583333 0 0 0 4.7110979,19.495008 Z M 14.039407,2.6754127 a 10.583333,10.583333 0 0 0 -0.809604,-0.031231 10.582755,10.58321 30 0 1 0.809604,0.031231 z M 4.2597379,18.829846 A 10.582755,10.58321 30 0 1 4.0228348,18.44126 10.583333,10.583333 0 0 0 4.2597379,18.829846 Z M 13.229357,2.6439229 a 10.583333,10.583333 0 0 0 -0.80501,0.031094 10.582755,10.58321 30 0 1 0.80501,-0.031094 z M 3.8573868,18.127343 A 10.582755,10.58321 30 0 1 3.6558975,17.731158 10.583333,10.583333 0 0 0 3.8573868,18.127343 Z M 12.250685,2.6946893 a 10.583333,10.583333 0 0 0 -0.631367,0.073464 10.582755,10.58321 30 0 1 0.631367,-0.073464 z M 3.5107886,17.398552 A 10.582755,10.58321 30 0 1 3.3395015,16.985194 10.583333,10.583333 0 0 0 3.5107886,17.398552 Z M 11.4472,2.8006547 A 10.583333,10.583333 0 0 0 10.827802,2.9216035 10.582755,10.58321 30 0 1 11.4472,2.8006547 Z M 3.2264625,16.662153 A 10.582755,10.58321 30 0 1 3.0825403,16.221035 10.583333,10.583333 0 0 0 3.2264625,16.662153 Z M 10.622381,2.9766454 A 10.583333,10.583333 0 0 0 10.053137,3.1337148 10.582755,10.58321 30 0 1 10.622381,2.9766454 Z M 2.994208,15.891372 A 10.582755,10.58321 30 0 1 2.8851865,15.443553 10.583333,10.583333 0 0 0 2.994208,15.891372 Z M 9.8071982,3.2196631 A 10.583333,10.583333 0 0 0 9.2998204,3.4029015 10.582755,10.58321 30 0 1 9.8071982,3.2196631 Z M 2.8203745,15.100022 a 10.582755,10.58321 30 0 1 -0.073128,-0.447981 10.583333,10.583333 0 0 0 0.073128,0.447981 z M 9.020454,3.5250455 A 10.583333,10.583333 0 0 0 8.5674053,3.7289132 10.582755,10.58321 30 0 1 9.020454,3.5250455 Z M 2.7075887,14.302148 a 10.582755,10.58321 30 0 1 -0.038058,-0.449812 10.583333,10.583333 0 0 0 0.038058,0.449812 z M 8.2881121,3.8767546 A 10.583333,10.583333 0 0 0 7.8552944,4.113779 10.582755,10.58321 30 0 1 8.2881121,3.8767546 Z M 2.6563038,13.498012 a 10.582755,10.58321 30 0 1 -0.00364,-0.448442 10.583333,10.583333 0 0 0 0.00364,0.448442 z M 7.5990921,4.2743607 A 10.583333,10.583333 0 0 0 7.1791223,4.5480422 10.582755,10.58321 30 0 1 7.5990921,4.2743607 Z M 2.6658925,12.697992 a 10.582755,10.58321 30 0 1 0.032308,-0.461101 10.583333,10.583333 0 0 0 -0.032308,0.461101 z M 6.9220834,4.737976 A 10.583333,10.583333 0 0 0 6.5405559,5.0308696 10.582755,10.58321 30 0 1 6.9220834,4.737976 Z m -4.1861785,7.163852 a 10.582755,10.58321 30 0 1 0.067031,-0.457163 10.583333,10.583333 0 0 0 -0.067031,0.457163 z M 6.2954674,5.2414255 A 10.583333,10.583333 0 0 0 5.9313501,5.5682384 10.582755,10.58321 30 0 1 6.2954674,5.2414255 Z M 2.8670016,11.106324 a 10.582755,10.58321 30 0 1 0.1038204,-0.45681 10.583333,10.583333 0 0 0 -0.1038204,0.45681 z M 5.7165632,5.7831635 A 10.583333,10.583333 0 0 0 5.370425,6.1460142 10.582755,10.58321 30 0 1 5.7165632,5.7831635 Z M 3.0560783,10.332359 A 10.582755,10.58321 30 0 1 3.1951887,9.8816054 10.583333,10.583333 0 0 0 3.0560783,10.332359 Z M 5.1638657,6.3859764 A 10.583333,10.583333 0 0 0 4.8595456,6.7580543 10.582755,10.58321 30 0 1 5.1638657,6.3859764 Z M 3.3091264,9.557139 A 10.582755,10.58321 30 0 1 3.4796152,9.1274858 10.583333,10.583333 0 0 0 3.3091264,9.557139 Z M 4.6647316,7.022102 A 10.583333,10.583333 0 0 0 4.3893434,7.4174483 10.582755,10.58321 30 0 1 4.6647316,7.022102 Z M 3.6125714,8.8217569 A 10.582755,10.58321 30 0 1 3.8189846,8.3991188 10.583333,10.583333 0 0 0 3.6125714,8.8217569 Z M 4.2175583,7.6912109 A 10.583333,10.583333 0 0 0 4.0639844,7.9355087 10.583333,10.583333 0 0 0 3.9778032,8.0981788 10.582755,10.58321 30 0 1 4.2175155,7.6911851 Z" /></g></g></svg>