<svg width="177.17" height="177.17" clip-rule="evenodd" fill-rule="evenodd" image-rendering="optimizeQuality" shape-rendering="geometricPrecision" version="1.1" viewBox="0 0 50 50" xmlns="http://www.w3.org/2000/svg" xmlns:xlink="http://www.w3.org/1999/xlink">
<defs>
<linearGradient id="0" x1="21.13" x2="62.182" y1="37.35" y2="37.35" gradientTransform="matrix(1 0 0 .97324 0 1.243)" gradientUnits="userSpaceOnUse">
<stop stop-color="#fff" offset="0"/>
<stop offset="1"/>
</linearGradient>
<linearGradient id="a" x1="42.331" x2="53.248" y1="11.497" y2="11.497" gradientUnits="userSpaceOnUse" xlink:href="#0"/>
</defs>
<path d="m25 46.45h-13.394c-0.66-1.607-0.991-3.288-0.991-5.04 0-2.975 0.864-5.644 2.599-8.02 1.736-2.365 3.971-4.054 6.697-5.068-1.168-0.527-2.125-1.327-2.862-2.398-0.737-1.071-1.101-2.283-1.101-3.634 0-1.689 0.576-3.156 1.736-4.392 1.152-1.244 2.574-1.961 4.267-2.151-1.346-0.981-2.02-2.282-2.02-3.889 0-1.351 0.491-2.513 1.482-3.477 0.982-0.964 2.176-1.442 3.581-1.442 1.389 0 2.582 0.478 3.573 1.442s1.49 2.126 1.49 3.477c0 1.607-0.669 2.909-2.02 3.889 1.693 0.19 3.116 0.906 4.267 2.151 1.16 1.236 1.736 2.703 1.736 4.392 0 1.351-0.373 2.563-1.126 3.634s-1.71 1.87-2.862 2.398c2.726 1.014 4.961 2.703 6.697 5.068 1.736 2.373 2.599 5.04 2.599 8.02 0 1.739-0.322 3.42-0.965 5.04h-13.394" fill="#1f1a17"/>
<path d="m25 44.808h12.175c.347-1.154.525-2.291.525-3.403 0-2.513-.711-4.787-2.142-6.831-1.431-2.044-3.277-3.552-5.52-4.516-1.584-.62-1.643-.659-1.643-1.739 0-.849.559-1.475 1.668-1.879 1.532-1.047 2.303-2.431 2.303-4.153 0-1.244-.432-2.324-1.287-3.263-.864-.931-1.905-1.467-3.124-1.615-.999-.082-1.49-.626-1.49-1.64 0-.453.178-.873.542-1.261.898-.676 1.346-1.557 1.346-2.653 0-.898-.339-1.673-.999-2.316-.66-.643-1.448-.964-2.354-.964-.94 0-1.744.321-2.396.964-.652.643-.974 1.417-.974 2.316 0 1.079.44 1.961 1.338 2.653.364.354.542.775.542 1.261 0 1.014-.483 1.557-1.465 1.64-1.236.148-2.286.684-3.133 1.615-.855.939-1.279 2.02-1.279 3.263 0 1.722.77 3.106 2.303 4.153 1.109.412 1.668 1.046 1.668 1.879 0 1.079-.067 1.118-1.668 1.739-2.244.964-4.081 2.472-5.503 4.516-1.422 2.044-2.134 4.318-2.134 6.831 0 1.195.178 2.324.525 3.403h12.175" fill="url(#0)"/>
<g transform="translate(48.405 -2.6877)">
<g transform="matrix(3.7944 0 0 3.7944 -188.1 -21.116)" stroke-width=".26355">
<ellipse cx="43.401" cy="11.497" rx="3.1749" ry="3.1749" fill="url(#a)" fill-rule="evenodd" stroke="#1f1a17" stroke-linejoin="round" stroke-width=".43912" style="mix-blend-mode:normal"/>
</g>
<g fill="#1f1a17" stroke-width=".28222" aria-label="N">
<path d="m-19.419 28.663h-1.8069l-4.8745-10.169h-0.06724q0.15128 2.328 0.15128 3.5046v6.6646h-1.4455v-12.287h1.7901l4.8577 10.119h0.05043q-0.11766-2.5465-0.11766-3.3954v-6.7235h1.4624z" fill="#1f1a17" stroke-width=".28222"/>
</g>
</g>
<path d="m18.366 31.364c0.31085 0.19066 0.77796 0.42882 1.2027 0.62025 0.39956 0.18008 1.2116 0.47404 1.7224 0.61953 0.49073 0.14818 1.3943 0.34626 1.8967 0.40436 0.4359 0.05773 1.0591 0.11045 1.7573 0.11847 0.77844 0.0017 1.4437-0.06957 2.0223-0.15179 0.63023-0.09448 1.3244-0.26176 1.7897-0.39246 0.45907-0.13107 1.0044-0.3434 1.3177-0.47001 0.23328-0.09427 1.1133-0.48694 1.5265-0.74829" fill="none" stroke="#fff" stroke-linecap="round" stroke-opacity="0" stroke-width=".21166"/>
</svg>
