<?xml version="1.0" encoding="UTF-8" standalone="no"?>
<svg
   xmlns:dc="http://purl.org/dc/elements/1.1/"
   xmlns:cc="http://creativecommons.org/ns#"
   xmlns:rdf="http://www.w3.org/1999/02/22-rdf-syntax-ns#"
   xmlns:svg="http://www.w3.org/2000/svg"
   xmlns="http://www.w3.org/2000/svg"
   xmlns:sodipodi="http://sodipodi.sourceforge.net/DTD/sodipodi-0.dtd"
   xmlns:inkscape="http://www.inkscape.org/namespaces/inkscape"
   height="60"
   width="52.157"
   version="1.1"
   id="svg59"
   sodipodi:docname="b+L.svg"
   inkscape:version="1.0.1 (3bc2e813f5, 2020-09-07)">
  <metadata
     id="metadata65">
    <rdf:RDF>
      <cc:Work
         rdf:about="">
        <dc:format>image/svg+xml</dc:format>
        <dc:type
           rdf:resource="http://purl.org/dc/dcmitype/StillImage" />
      </cc:Work>
    </rdf:RDF>
  </metadata>
  <defs
     id="defs63" />
  <sodipodi:namedview
     pagecolor="#ffffff"
     bordercolor="#666666"
     borderopacity="1"
     objecttolerance="10"
     gridtolerance="10"
     guidetolerance="10"
     inkscape:pageopacity="0"
     inkscape:pageshadow="2"
     inkscape:window-width="2560"
     inkscape:window-height="1377"
     id="namedview61"
     showgrid="false"
     inkscape:zoom="12.25"
     inkscape:cx="26.078501"
     inkscape:cy="30"
     inkscape:window-x="-8"
     inkscape:window-y="-8"
     inkscape:window-maximized="1"
     inkscape:current-layer="svg59" />
  <filter
     id="a">
    <feGaussianBlur
       in="SourceAlpha"
       result="blur"
       stdDeviation="2"
       id="feGaussianBlur2" />
    <feOffset
       dx="2"
       dy="2"
       result="offsetBlur"
       id="feOffset4" />
    <feBlend
       in="SourceGraphic"
       in2="offsetBlur"
       mode="normal"
       id="feBlend6" />
  </filter>
  <g
     transform="matrix(0.75999999,0,0,-0.76,-66.428297,68.850236)"
     id="g57"
     style="stroke-width:1.31579">
    <g
       fill="#feec99"
       filter="url(#a)"
       transform="matrix(0.98185054,0,0,-0.98185054,-4.360504,104.33768)"
       id="g11"
       style="stroke-width:1.7313">
      <path
         d="m -37.299339,-31.009999 c -4.096,1.034 -8.171,2.152 -12.207999,3.395 -0.467,0.163 -1.13,0.263 -1.201,0.865 -0.709,3.416 -1.178,6.885 -1.737,10.331 -1.73,11.2549998 -3.378,22.5279998 -5.1,33.78 0.155,0.682 1.013,0.424 1.51,0.48 12.893999,0.025 25.787999,0.03 38.679999,-0.033 0.672,-0.156 0.28,-0.952 0.279,-1.409 -2.011,-13.1200002 -3.876,-26.2630002 -5.998,-39.366 -0.277,-1.356 -0.348,-2.782 -0.816,-4.087 -0.347,-0.497 -1.073,-0.468 -1.588,-0.704 -3.832,-1.137 -7.673,-2.267 -11.55,-3.231 -0.09,-0.017 -0.18,-0.032 -0.271,-0.021 z"
         fill="#feec99"
         transform="rotate(180,45.578499,23.8125)"
         id="path9"
         style="stroke-width:2.27803" />
    </g>
    <g
       transform="matrix(-1,0,0,1,485.29569,-66.8258)"
       id="g55"
       style="stroke-width:1.31579">
      <g
         opacity="0.5"
         transform="matrix(1.0885728,0,0,1.0885728,335.18788,85.933156)"
         id="g39"
         style="stroke-width:1.7313">
        <g
           opacity="1"
           stroke="#c83737"
           stroke-width="6.49772"
           transform="matrix(0.08856987,0,0,0.08856987,-7.546046,-92.942195)"
           id="g25">
          <path
             d="m 372.13918,1585.4711 v -265.4503 h 15 v 265.4503 z"
             fill="#c83737"
             id="path13"
             style="stroke-width:8.54964" />
          <g
             id="g23"
             style="stroke-width:6.49772">
            <path
               d="m 373.444,1325.1424 -13.45088,-8.5711 2.65158,-111.3407 16.68695,-28.5677 17.54212,27.7552 2.37276,111.2472 -13.38185,9.2233 z"
               fill="#e6e6e6"
               opacity="1"
               stroke-width="11.4391"
               id="path15" />
            <g
               fill="none"
               stroke-width="5.94238"
               id="g21">
              <path
                 d="m 379.55142,1181.0173 v 105.0984 l 16.53494,13.1272"
                 id="path17"
                 style="stroke-width:5.94238" />
              <path
                 d="m 379.55142,1286.1157 -16.3174,14.4958"
                 id="path19"
                 style="stroke-width:5.94238" />
            </g>
          </g>
        </g>
        <g
           fill="#c83737"
           id="g37"
           style="stroke-width:2.27803">
          <g
             transform="translate(-0.508475,-2.894278)"
             id="g31"
             style="stroke-width:1.31579">
            <path
               d="m 19.295321,41.674955 h 14.583302 v 1.328548 H 19.295321 Z"
               opacity="1"
               stroke="#c83737"
               stroke-width="0.575503"
               id="path27" />
            <path
               d="m 26.586972,33.935709 a 8.4032872,8.4032872 0 0 0 -8.403519,8.403519 8.4032872,8.4032872 0 0 0 8.403519,8.40352 8.4032872,8.4032872 0 0 0 8.403519,-8.40352 8.4032872,8.4032872 0 0 0 -8.403519,-8.403519 z m 0,1.832411 a 6.570505,6.570505 0 0 1 6.569866,6.571108 6.570505,6.570505 0 0 1 -6.569866,6.569864 6.570505,6.570505 0 0 1 -6.571107,-6.569864 6.570505,6.570505 0 0 1 6.571107,-6.571108 z"
               opacity="1"
               id="path29"
               style="stroke-width:1.7313" />
          </g>
          <path
             d="M 20.452808,44.131214 30.76476,33.819263 31.704185,34.758688 21.392234,45.07064 Z"
             opacity="1"
             stroke="#c83737"
             stroke-width="0.575503"
             id="path33" />
          <path
             d="M 21.392234,33.819263 31.704185,44.131214 30.76476,45.07064 20.452808,34.758688 Z"
             opacity="1"
             stroke="#c83737"
             stroke-width="0.575503"
             id="path35" />
        </g>
      </g>
      <g
         stroke="#000000"
         id="g53"
         style="stroke-width:1.7313">
        <g
           stroke-linejoin="round"
           stroke-width="1.72755"
           transform="matrix(0.46731469,0,0,0.56880109,374.36899,86.584322)"
           id="g45">
          <path
             d="m -23.355851,44.732625 c -4.132306,8.932558 -4.332216,7.649629 -13.389243,13.799134 8.912868,3.135271 18.70037,2.896518 26.778486,0 -9.057027,-6.149505 -9.438551,-5.164998 -13.389243,-13.799134 z"
             id="path41"
             style="stroke-width:1.72755" />
          <path
             d="m -26.817667,58.549927 c -0.101781,8.756321 -0.371109,15.836633 -11.545204,21.428518 -5.232221,2.785963 -6.963446,4.475105 -7.614698,9.332185 6.784589,1.493568 14.836273,2.210393 22.882279,2.179259 8.046006,0.03113 16.0976895,-0.685691 22.882279,-2.179259 C -0.864263,84.45355 -2.595488,82.764408 -7.827709,79.978445 -19.001804,74.38656 -19.271132,67.306248 -19.372913,58.549927 v 4e-6 c -1.240718,0.01919 -2.481542,0.02015 -3.722377,0.01942 -1.240835,7.29e-4 -2.481659,-2.33e-4 -3.722377,-0.01942 z"
             id="path43"
             style="stroke-width:1.72755" />
        </g>
        <g
           fill="#ffdd55"
           transform="matrix(0.66146316,0,0,0.66146316,-38.528977,31.351285)"
           id="g51"
           style="stroke-width:2.27803">
          <path
             d="m 89.878164,104.45867 c 71.228006,71.22916 31.757136,135.82089 52.509626,165.37853 28.87071,49.94709 71.08258,59.60515 129.34256,59.36887 1.13228,-0.005 2.26995,-0.0394 3.41266,-0.10377 1.14271,0.0644 2.28038,0.0992 3.41266,0.10377 58.25998,0.23628 100.47185,-9.42178 129.34256,-59.36887 20.75249,-29.55764 -18.71838,-94.14937 52.50963,-165.37853 -11.60482,-5.014637 -42.72517,25.60524 -62.89753,25.52484 -25.61193,-15.17069 -47.03143,3.07994 -52.25128,16.77733 37.83854,-11.30105 70.07869,121.46792 -45.53806,137.91415 -7.06656,1.97083 -16.16354,2.51444 -24.57798,2.71917 -8.41444,-0.20473 -17.51142,-0.74834 -24.57798,-2.71917 -115.61675,-16.44623 -83.3766,-149.2152 -45.53806,-137.91415 -5.21985,-13.69739 -26.63935,-31.94802 -52.25128,-16.77733 -20.17236,0.0804 -51.29271,-30.539477 -62.897526,-25.52484 z"
             stroke-width="17.6666"
             transform="matrix(0.06852995,0,0,0.08094496,589.01947,105.57931)"
             id="path47" />
          <ellipse
             cx="608"
             cy="124.95992"
             rx="3.9469099"
             ry="3.8181541"
             id="ellipse49"
             style="stroke-width:1.31579" />
        </g>
      </g>
    </g>
  </g>
</svg>
