<?xml version="1.0" encoding="UTF-8" standalone="no"?>
<svg
   xmlns:dc="http://purl.org/dc/elements/1.1/"
   xmlns:cc="http://creativecommons.org/ns#"
   xmlns:rdf="http://www.w3.org/1999/02/22-rdf-syntax-ns#"
   xmlns:svg="http://www.w3.org/2000/svg"
   xmlns="http://www.w3.org/2000/svg"
   xmlns:sodipodi="http://sodipodi.sourceforge.net/DTD/sodipodi-0.dtd"
   xmlns:inkscape="http://www.inkscape.org/namespaces/inkscape"
   height="60"
   width="52.157"
   version="1.1"
   id="svg73"
   sodipodi:docname="b+S.svg"
   inkscape:version="1.0.1 (3bc2e813f5, 2020-09-07)">
  <metadata
     id="metadata79">
    <rdf:RDF>
      <cc:Work
         rdf:about="">
        <dc:format>image/svg+xml</dc:format>
        <dc:type
           rdf:resource="http://purl.org/dc/dcmitype/StillImage" />
      </cc:Work>
    </rdf:RDF>
  </metadata>
  <defs
     id="defs77" />
  <sodipodi:namedview
     pagecolor="#ffffff"
     bordercolor="#666666"
     borderopacity="1"
     objecttolerance="10"
     gridtolerance="10"
     guidetolerance="10"
     inkscape:pageopacity="0"
     inkscape:pageshadow="2"
     inkscape:window-width="2560"
     inkscape:window-height="1377"
     id="namedview75"
     showgrid="false"
     inkscape:zoom="12.25"
     inkscape:cx="26.078501"
     inkscape:cy="30"
     inkscape:window-x="-8"
     inkscape:window-y="-8"
     inkscape:window-maximized="1"
     inkscape:current-layer="svg73" />
  <filter
     id="a">
    <feGaussianBlur
       in="SourceAlpha"
       result="blur"
       stdDeviation="2"
       id="feGaussianBlur2" />
    <feOffset
       dx="2"
       dy="2"
       result="offsetBlur"
       id="feOffset4" />
    <feBlend
       in="SourceGraphic"
       in2="offsetBlur"
       mode="normal"
       id="feBlend6" />
  </filter>
  <g
     transform="matrix(0.75999999,0,0,-0.76,-66.428297,68.850236)"
     id="g71"
     style="stroke-width:1.31579">
    <g
       fill="#feec99"
       filter="url(#a)"
       transform="matrix(0.98185054,0,0,-0.98185054,-4.360504,104.33768)"
       id="g11"
       style="stroke-width:1.7313">
      <path
         d="m -37.299339,-31.009999 c -4.096,1.034 -8.171,2.152 -12.207999,3.395 -0.467,0.163 -1.13,0.263 -1.201,0.865 -0.709,3.416 -1.178,6.885 -1.737,10.331 -1.73,11.2549998 -3.378,22.5279998 -5.1,33.78 0.155,0.682 1.013,0.424 1.51,0.48 12.893999,0.025 25.787999,0.03 38.679999,-0.033 0.672,-0.156 0.28,-0.952 0.279,-1.409 -2.011,-13.1200002 -3.876,-26.2630002 -5.998,-39.366 -0.277,-1.356 -0.348,-2.782 -0.816,-4.087 -0.347,-0.497 -1.073,-0.468 -1.588,-0.704 -3.832,-1.137 -7.673,-2.267 -11.55,-3.231 -0.09,-0.017 -0.18,-0.032 -0.271,-0.021 z"
         fill="#feec99"
         transform="rotate(180,45.578499,23.8125)"
         id="path9"
         style="stroke-width:2.27803" />
    </g>
    <g
       opacity="0.469"
       transform="matrix(-0.70055036,0,0,0.70055036,342.73495,-15.524924)"
       id="g39"
       style="stroke-width:1.7313">
      <g
         transform="translate(-0.190919)"
         id="g35"
         style="stroke-width:1.31579">
        <g
           stroke="#000000"
           transform="translate(31.466251,-52.325905)"
           id="g25"
           style="stroke-width:1.7313">
          <g
             stroke="#c83737"
             id="g21"
             style="stroke-width:2.27803">
            <path
               d="m 282.83014,136.55533 c 0.20417,-5.88578 -0.28226,-11.14236 -3.00897,-13.32971 2.0213,-0.87359 3.21146,-2.97937 4.36491,-4.57868 1.15345,1.59931 2.34361,3.70509 4.36491,4.57868 -2.72671,2.18735 -3.21314,7.44393 -3.00897,13.32971 v 4e-5 c -0.47902,0.154 -0.91154,0.22963 -1.35594,0.23289 -0.4444,-0.003 -0.87692,-0.0789 -1.35594,-0.23289 z"
               fill="#c83737"
               transform="matrix(0.88178822,0,0,0.88934863,33.594141,15.217364)"
               id="path13"
               style="stroke-width:2.99741" />
            <path
               d="M 97.158521,111.62733 C 94.394717,233.01747 116.77323,335.81939 275.14301,330.70243 433.51279,335.81939 455.8913,233.01747 453.1275,111.62733 442.06243,243.91414 401.6145,279.03078 275.14301,286.66523 148.67152,279.03078 108.22359,243.91414 97.158521,111.62733 Z"
               fill="#cccccc"
               stroke-width="14.1333"
               transform="matrix(0.06852995,0,0,0.08094496,265.43337,113.5891)"
               id="path15" />
            <path
               d="m 166.79579,305.11894 -54.46388,95.97506 -8.75401,-6.96231 -40.589685,61.71251 -7.283307,-9.9888 c -17.702449,21.02166 -27.021349,32.76168 -44.723798,53.78334 14.215968,20.56041 44.129031,49.69009 71.960742,55.39697 13.292856,-25.8462 83.133858,-195.79358 102.033538,-237.33888 m 195.23448,-12.57789 54.46388,95.97506 8.75401,-6.96231 40.58969,61.71251 7.2833,-9.9888 c 17.70245,21.02166 27.02135,32.76168 44.7238,53.78334 -14.21597,20.56041 -44.12903,49.69009 -71.96074,55.39697 -13.29286,-25.8462 -83.13386,-195.79358 -102.03354,-237.33888"
               fill="#c83737"
               stroke-width="17.6666"
               transform="matrix(0.06852995,0,0,0.08094496,265.43337,113.5891)"
               id="path17" />
            <path
               d="m 273.59596,150.94137 c 7.36818,2.99836 14.49096,3.09401 21.34407,0 l -4.02618,-11.42603 c -4.02592,1.60044 -9.1948,1.93413 -13.22891,-0.091 z"
               fill="#c83737"
               stroke-width="1.29631"
               id="path19" />
          </g>
          <path
             d="m 277.40633,142.09248 c 4.27412,2.18112 9.43959,2.24116 13.60743,-0.0312"
             fill="none"
             stroke="#ffffff"
             id="path23"
             style="stroke-width:2.27803" />
        </g>
        <g
           fill="none"
           stroke="#ffffff"
           id="g33"
           style="stroke-width:1.7313">
          <path
             d="m 305.38637,89.887027 c 2.9497,1.930803 1.52329,1.133877 2.58145,1.911579 m 19.45159,-1.999967 c -2.9497,1.930803 -1.83265,0.736129 -2.89081,1.513831"
             transform="translate(-0.795495,2.740039)"
             id="path27"
             style="stroke-width:1.31579" />
          <path
             d="m 303.46433,92.472532 4.1095,2.131956 m 24.46328,-2.131956 -4.1095,2.131956"
             transform="translate(-2.069544,4.683662)"
             id="path29"
             style="stroke-width:1.31579" />
          <path
             d="m 305.43749,99.100685 4.50536,-11.901808 m 11.65089,-0.223192 4.25,12.265625"
             id="path31"
             style="stroke-width:1.31579" />
        </g>
      </g>
      <path
         d="m 308.93871,82.397114 c 5.87216,-5.233942 8.03769,-4.798704 13.61977,0.08525 -2.86506,1.169669 -3.08015,1.033401 -6.69829,1.68198 -2.51513,-0.679778 -0.54627,-0.174205 -3.60898,-0.454728 z"
         fill="#c83737"
         stroke="#c83737"
         id="path37"
         style="stroke-width:2.27803" />
    </g>
    <g
       transform="matrix(0.77823846,0,0,0.77823846,-12.404353,-9.583197)"
       id="g69"
       style="stroke-width:1.31579">
      <g
         stroke-width="0.789474"
         transform="matrix(1.3333333,0,0,-1.3333333,-0.729282,396.85067)"
         id="g61">
        <path
           d="m 118.60844,240.09519 2.67478,-0.26751"
           fill="none"
           stroke="#000000"
           stroke-width="1.26805"
           id="path41" />
        <g
           stroke-width="0.789474"
           id="g57">
          <g
             stroke="#000000"
             id="g53"
             style="stroke-width:1.03878">
            <path
               d="m 114.12377,227.21925 c 6.70858,0.47145 12.9961,0.0676 22.13114,7.8e-4 m -0.68919,4.89257 c -3.94553,6.47303 -10.01346,4.3595 -14.24184,4.30206 -3.53388,-2.09503 -4.05315,-2.26484 -5.34821,-3.84263 -1.3691,-1.83911 -1.71727,-3.11737 -1.82673,-5.37509 6.82666,-2.46 13.64966,-2.96499 21.81871,-0.47024 0.12545,2.0048 -0.17388,3.70643 -0.40193,5.3859 z"
               stroke-width="0.789474"
               id="path43" />
            <g
               stroke-width="2.04533"
               transform="matrix(0.38598818,0,0,-0.38598818,-302.31996,294.27845)"
               id="g49">
              <path
                 d="m 1134.2935,141.96442 c 2.5462,12.29332 3.1852,23.55617 4.1977,35.94324 1.9427,9.21372 14.4008,18.84221 21.5403,16.84207 -2.9324,-16.41167 -2.0318,-40.45637 -11.142,-69.99753 -5.6096,-0.79271 -11.3765,-1.12223 -17.4929,-1.75684 -2.0378,0.10556 -3.5421,0.51539 -4.9542,1.45521 -1.8957,2.68042 -6.0037,11.52099 -7.6923,15.8671 l 0.8046,9.0439 c 3.9859,1.63157 6.2216,3.26314 9.1883,4.89471 z"
                 fill="#e6e6e6"
                 id="path45"
                 style="stroke-width:2.69122" />
              <path
                 d="m 1128.5077,153.78689 c 3.687,-7.95951 4.7699,-11.87437 9.4069,-19.42671 1.8791,-2.31598 3.7892,-4.58542 5.961,-6.46235 2.4698,-0.79915 3.0834,-1.78406 5.5532,-0.94924"
                 fill="none"
                 id="path47"
                 style="stroke-width:2.69122" />
            </g>
            <path
               d="m 121.6349,236.4114 -1.59644,12.29524 c -0.57482,3.32753 0.18894,5.11782 2.96111,4.60161 2.55408,-0.72649 4.17288,-3.15936 5.47802,-6.16442 l 1.29757,-10.54107 c -4.45943,0.42362 -5.93175,0.11668 -8.14026,-0.19136 z"
               stroke-width="0.789474"
               id="path51" />
          </g>
          <path
             d="m 114.54599,230.80364 c 0.1922,-0.076 0.28172,-0.0623 0.6685,0.0624 4.96534,1.60019 9.50674,3.31691 20.20183,0.88876 0.0996,-0.0226 0.34425,-0.0966 0.52144,-0.0774"
             fill="none"
             stroke="#ffffff"
             stroke-width="1.26805"
             id="path55" />
        </g>
        <path
           d="m 126.31358,239.41157 5.67198,-0.3317"
           fill="none"
           stroke="#000000"
           stroke-width="1.26805"
           id="path59" />
      </g>
      <g
         fill="none"
         stroke="#ffffff"
         stroke-width="1.69072"
         id="g67">
        <path
           d="m 151.09502,93.550953 c 0.27883,0.02426 0.8801,-0.147211 1.00137,-0.177081 8.97454,-2.21056 17.80113,-2.648229 27.99307,0.597059 0.25245,0.08038 0.75606,0.09065 1.02577,0.112359"
           id="path63"
           style="stroke-width:1.69073" />
        <path
           d="m 160.92364,80.518445 c 5.12147,-0.579576 7.62988,-0.658679 11.07811,-0.247688 0.44048,0.0525 0.57399,0.10651 0.70272,0.09169"
           id="path65"
           style="stroke-width:1.69073" />
      </g>
    </g>
  </g>
</svg>
