<?xml version="1.0" encoding="UTF-8" standalone="no"?>
<svg
   xmlns:dc="http://purl.org/dc/elements/1.1/"
   xmlns:cc="http://creativecommons.org/ns#"
   xmlns:rdf="http://www.w3.org/1999/02/22-rdf-syntax-ns#"
   xmlns:svg="http://www.w3.org/2000/svg"
   xmlns="http://www.w3.org/2000/svg"
   xmlns:sodipodi="http://sodipodi.sourceforge.net/DTD/sodipodi-0.dtd"
   xmlns:inkscape="http://www.inkscape.org/namespaces/inkscape"
   height="60"
   width="52.157"
   version="1.1"
   id="svg73"
   sodipodi:docname="bN.svg"
   inkscape:version="1.0.1 (3bc2e813f5, 2020-09-07)">
  <metadata
     id="metadata79">
    <rdf:RDF>
      <cc:Work
         rdf:about="">
        <dc:format>image/svg+xml</dc:format>
        <dc:type
           rdf:resource="http://purl.org/dc/dcmitype/StillImage" />
      </cc:Work>
    </rdf:RDF>
  </metadata>
  <defs
     id="defs77" />
  <sodipodi:namedview
     pagecolor="#ffffff"
     bordercolor="#666666"
     borderopacity="1"
     objecttolerance="10"
     gridtolerance="10"
     guidetolerance="10"
     inkscape:pageopacity="0"
     inkscape:pageshadow="2"
     inkscape:window-width="2560"
     inkscape:window-height="1377"
     id="namedview75"
     showgrid="false"
     inkscape:zoom="12.25"
     inkscape:cx="26.078501"
     inkscape:cy="30"
     inkscape:window-x="-8"
     inkscape:window-y="-8"
     inkscape:window-maximized="1"
     inkscape:current-layer="svg73" />
  <filter
     id="a">
    <feGaussianBlur
       in="SourceAlpha"
       result="blur"
       stdDeviation="2"
       id="feGaussianBlur2" />
    <feOffset
       dx="2"
       dy="2"
       result="offsetBlur"
       id="feOffset4" />
    <feBlend
       in="SourceGraphic"
       in2="offsetBlur"
       mode="normal"
       id="feBlend6" />
  </filter>
  <g
     transform="matrix(0.75999999,0,0,-0.76,-66.428297,68.850236)"
     id="g71"
     style="stroke-width:1.31579">
    <g
       fill="#feec99"
       filter="url(#a)"
       transform="matrix(0.98185054,0,0,-0.98185054,-4.360504,104.33768)"
       id="g11"
       style="stroke-width:1.7313">
      <path
         d="m -37.299339,-31.009999 c -4.096,1.034 -8.171,2.152 -12.207999,3.395 -0.467,0.163 -1.13,0.263 -1.201,0.865 -0.709,3.416 -1.178,6.885 -1.737,10.331 -1.73,11.2549998 -3.378,22.5279998 -5.1,33.78 0.155,0.682 1.013,0.424 1.51,0.48 12.893999,0.025 25.787999,0.03 38.679999,-0.033 0.672,-0.156 0.28,-0.952 0.279,-1.409 -2.011,-13.1200002 -3.876,-26.2630002 -5.998,-39.366 -0.277,-1.356 -0.348,-2.782 -0.816,-4.087 -0.347,-0.497 -1.073,-0.468 -1.588,-0.704 -3.832,-1.137 -7.673,-2.267 -11.55,-3.231 -0.09,-0.017 -0.18,-0.032 -0.271,-0.021 z"
         fill="#feec99"
         transform="rotate(180,45.578499,23.8125)"
         id="path9"
         style="stroke-width:2.27803" />
    </g>
    <g
       opacity="0.5"
       transform="matrix(-0.70055036,0,0,0.70055036,293.04212,-15.392851)"
       id="g49"
       style="stroke-width:1.7313">
      <g
         transform="translate(-71.190918,-1.25)"
         id="g35"
         style="stroke-width:1.31579">
        <g
           stroke="#000000"
           stroke-width="1.57895"
           transform="translate(31.466251,-52.325905)"
           id="g25">
          <g
             stroke="#c83737"
             id="g21"
             style="stroke-width:2.07756">
            <path
               d="m 89.878164,104.45867 c 71.228006,71.22916 31.757136,135.82089 52.509626,165.37853 28.87071,49.94709 71.08258,59.60515 129.34256,59.36887 1.13228,-0.005 2.26995,-0.0394 3.41266,-0.10377 1.14271,0.0644 2.28038,0.0992 3.41266,0.10377 58.25998,0.23628 100.47185,-9.42178 129.34256,-59.36887 20.75249,-29.55764 -18.71838,-94.14937 52.50963,-165.37853 -11.60482,-5.014637 -42.72517,25.60524 -62.89753,25.52484 -25.61193,-15.17069 -47.03143,3.07994 -52.25128,16.77733 37.83854,-11.30105 70.07869,121.46792 -45.53806,137.91415 -7.06656,1.97083 -16.16354,2.51444 -24.57798,2.71917 -8.41444,-0.20473 -17.51142,-0.74834 -24.57798,-2.71917 -115.61675,-16.44623 -83.3766,-149.2152 -45.53806,-137.91415 -5.21985,-13.69739 -26.63935,-31.94802 -52.25128,-16.77733 -20.17236,0.0804 -51.29271,-30.539477 -62.897526,-25.52484 z"
               fill="#ffe680"
               stroke-width="10.5999"
               transform="matrix(0.06852995,0,0,0.08094496,265.43337,113.5891)"
               id="path13" />
            <path
               d="M 141.48799,275.71389 C 96.3615,247.41948 61.475551,250.53281 32.684484,254.90925 L 3.2053119,306.58103 c 41.9436441,-36.20347 152.1169981,6.5772 144.4425381,111.86711 7.77058,-26.63095 28.13289,-63.41773 39.83168,-101.8333 m 220.3852,-40.90095 c 45.12649,-28.29441 80.01244,-25.18108 108.80351,-20.80464 l 29.47917,51.67178 c -41.94365,-36.20347 -152.117,6.5772 -144.44254,111.86711 -7.77058,-26.63095 -28.13289,-63.41773 -39.83168,-101.8333"
               fill="#c83737"
               stroke-width="21.1999"
               transform="matrix(0.06852995,0,0,0.08094496,265.45547,113.567)"
               id="path15" />
            <path
               d="m 128.12147,339.22317 -29.4431,64.09739 c -3.406729,-2.03298 6.60864,9.49088 -6.592588,1.00836 -14.054409,23.33805 -19.002142,29.83307 -33.968561,54.71538 21.968053,17.08583 24.658308,18.3091 46.105949,25.56024 13.29286,-25.8462 25.73879,-42.37374 44.63847,-83.91904 m 270.02255,-61.46233 29.4431,64.09739 c 3.40673,-2.03298 -6.60864,9.49088 6.59259,1.00836 14.05441,23.33805 19.00214,29.83307 33.96856,54.71538 -21.96805,17.08583 -24.65831,18.3091 -46.10595,25.56024 -13.29286,-25.8462 -25.73879,-42.37374 -44.63847,-83.91904"
               fill="#c83737"
               stroke-width="21.1999"
               transform="matrix(0.06852995,0,0,0.08094496,265.43337,113.5891)"
               id="path17" />
            <path
               d="m 273.60415,150.86398 c 7.36252,3.09155 14.47983,3.19017 21.32768,0 l -4.02309,-11.78114 c -5.55216,2.37564 -8.76694,2.0991 -13.5,0.43745 z"
               fill="#c83737"
               stroke-width="1.57895"
               id="path19" />
          </g>
          <path
             d="m 277.18758,142.27998 c 4.81103,1.65454 8.50637,2.05563 13.82618,-0.0312"
             fill="none"
             stroke="#ffffff"
             stroke-width="1.57895"
             id="path23" />
        </g>
        <g
           fill="none"
           stroke="#ffffff"
           id="g33"
           style="stroke-width:1.7313">
          <path
             d="m 305.23169,89.290406 c 2.11001,3.521793 1.58958,3.630848 1.98483,5.204045 m 18.98755,-5.204045 c -2.11001,3.521793 -1.58958,3.630848 -1.98483,5.204045"
             stroke-width="0.921053"
             id="path27" />
          <path
             d="m 305.59374,98.600685 4.20267,-11.855774 m 11.86297,-0.04956 4.05936,12.202205"
             id="path29"
             style="stroke-width:1.31579" />
          <path
             d="m 304.32322,90.316294 c 2.37517,2.019191 2.25563,1.306863 3.2696,2.526507 m 21.9062,-2.526507 c -2.37517,2.019191 -2.25563,1.306863 -3.2696,2.526507"
             stroke-width="0.921053"
             transform="translate(-1.25,3.5625)"
             id="path31" />
        </g>
      </g>
      <g
         stroke="#c83737"
         id="g43"
         style="stroke-width:2.27803">
        <path
           d="m 239.02396,80.488643 c 3.43837,-2.880918 8.29988,-2.419643 11.03729,0.134758 -2.36495,3.350653 -9.49455,2.30614 -11.03729,-0.134758 z"
           fill="#c83737"
           id="path37"
           style="stroke-width:2.99741" />
        <ellipse
           cx="244.60133"
           cy="79.253181"
           fill="#ffe680"
           opacity="1"
           rx="3.9469099"
           ry="3.8181541"
           stroke-width="0.795176"
           id="ellipse39" />
        <path
           d="m 240.01855,99.644866 -1.37002,4.684584 -0.57452,-0.13259 -0.92807,2.87263 c 4.64374,1.9522 10.66192,1.84371 14.49568,0 l -0.92807,-2.87263 -0.57452,0.13259 -1.37002,-4.684584"
           fill="#c83737"
           id="path41"
           style="stroke-width:2.99741" />
      </g>
      <path
         d="m 239.87499,99.850685 c 3.26168,0.718635 6.23809,0.676575 9,0.0625"
         fill="none"
         stroke="#ffffff"
         stroke-width="0.921053"
         id="path45" />
      <path
         d="m 238.68749,103.85068 c 3.26168,0.71864 8.55059,0.80158 11.3125,0.1875"
         fill="none"
         stroke="#ffffff"
         stroke-width="0.921053"
         id="path47" />
    </g>
    <g
       transform="matrix(-1.0454056,0,0,1.0454056,148.8925,18.791326)"
       id="g69"
       style="stroke-width:1.31579">
      <g
         transform="matrix(0.70055036,0,0,0.70055036,-244.80436,-23.951026)"
         id="g65"
         style="stroke-width:1.31579">
        <g
           stroke-width="1.82413"
           transform="matrix(0.57705753,0,0,0.57705753,442.02738,27.098826)"
           id="g61">
          <path
             d="m -112.14407,62.364407 c -1.60042,3.019221 -0.97881,6.472265 -0.97881,9.788135 -2.63655,5.43328 -4.42105,9.610707 -4.05509,14.542373 -3.42623,3.817142 -6.43917,7.882263 -8.38983,12.584746 -0.5563,2.330509 -1.03731,4.661019 -0.13983,6.991529 l 1.25848,0.69915 c 1.62281,3.36412 2.10136,4.10929 5.73305,3.63559 l 0.69915,-3.49576 0.97881,-1.67797 -0.69915,4.47458 0.97882,2.37712 c 5.56198,-1.79145 5.43612,-4.78392 8.35427,-9.28613 4.41588,-2.03977 6.33241,-3.073074 10.662675,-4.696923 l 1.957627,-1.258474 2.936441,-4.894068 -2.65678,4.754237 0.699152,3.076271 c 0,0 0.139831,2.796607 0,3.495767 -0.294711,4.50663 -4.287614,9.94882 -7.518745,12.72909 -4.41838,3.3646 -5.27045,6.49044 -5.90498,11.88108 21.569882,11.97113 32.153352,6.36401 42.08898,-0.27966 -0.434978,-2.47227 -0.77116,-4.23377 -1.702104,-7.63819 -2.387924,-8.0077 -2.831998,-13.06774 -3.191964,-26.899951 -0.666509,-10.140918 -11.048936,-24.3155 -24.247991,-23.642768 l -6.514721,-10.056384 c -2.7431,2.441895 -2.34212,6.067326 -2.79661,9.508474 l -2.09746,-0.279661 z"
             stroke="#000000"
             stroke-width="1.82413"
             id="path51" />
          <g
             stroke="#ffffff"
             id="g59"
             style="stroke-width:2.40017">
            <path
               d="m -95.838861,96.831416 c 1.503563,-2.62438 1.69516,-6.972687 1.543213,-8.543845"
               fill="none"
               stroke-width="2.27838"
               id="path53" />
            <path
               d="m -108.57407,80.454025 c -3.30499,-0.203236 -3.02905,1.490129 -3.90984,4.357502 3.36607,0.262252 3.05167,-1.430004 3.90984,-4.357502 z"
               fill="#ffffff"
               stroke-width="2.61062"
               id="path55" />
            <path
               d="m -93.159425,74.220209 c 1.993886,-1.136997 5.954671,1.094626 7.399151,2.314543 4.78472,4.040876 10.222665,9.277577 10.30886,16.01737 1.315854,10.469988 0.825136,25.072578 4.796708,33.888458"
               fill="none"
               stroke-width="3.90579"
               id="path57" />
          </g>
        </g>
        <path
           d="m 373.99999,91.163185 2.125,-3"
           fill="none"
           stroke="#ffffff"
           stroke-width="1.31476"
           id="path63" />
      </g>
      <path
         d="m 15.075681,36.961255 c -0.361906,-0.675822 0.138456,-0.84001 0.949351,-1.607275"
         fill="none"
         stroke="#ffffff"
         stroke-width="0.921053"
         id="path67" />
    </g>
  </g>
</svg>
