<?xml version="1.0" encoding="UTF-8" standalone="no"?>
<svg
   xmlns:dc="http://purl.org/dc/elements/1.1/"
   xmlns:cc="http://creativecommons.org/ns#"
   xmlns:rdf="http://www.w3.org/1999/02/22-rdf-syntax-ns#"
   xmlns:svg="http://www.w3.org/2000/svg"
   xmlns="http://www.w3.org/2000/svg"
   xmlns:sodipodi="http://sodipodi.sourceforge.net/DTD/sodipodi-0.dtd"
   xmlns:inkscape="http://www.inkscape.org/namespaces/inkscape"
   height="60"
   width="52.157"
   version="1.1"
   id="svg73"
   sodipodi:docname="w+P.svg"
   inkscape:version="1.0.1 (3bc2e813f5, 2020-09-07)">
  <metadata
     id="metadata79">
    <rdf:RDF>
      <cc:Work
         rdf:about="">
        <dc:format>image/svg+xml</dc:format>
        <dc:type
           rdf:resource="http://purl.org/dc/dcmitype/StillImage" />
      </cc:Work>
    </rdf:RDF>
  </metadata>
  <defs
     id="defs77" />
  <sodipodi:namedview
     pagecolor="#ffffff"
     bordercolor="#666666"
     borderopacity="1"
     objecttolerance="10"
     gridtolerance="10"
     guidetolerance="10"
     inkscape:pageopacity="0"
     inkscape:pageshadow="2"
     inkscape:window-width="2560"
     inkscape:window-height="1377"
     id="namedview75"
     showgrid="false"
     inkscape:zoom="12.25"
     inkscape:cx="26.078501"
     inkscape:cy="30"
     inkscape:window-x="-8"
     inkscape:window-y="-8"
     inkscape:window-maximized="1"
     inkscape:current-layer="svg73" />
  <filter
     id="a">
    <feGaussianBlur
       in="SourceAlpha"
       result="blur"
       stdDeviation="2"
       id="feGaussianBlur2" />
    <feOffset
       dx="2"
       dy="2"
       result="offsetBlur"
       id="feOffset4" />
    <feBlend
       in="SourceGraphic"
       in2="offsetBlur"
       mode="normal"
       id="feBlend6" />
  </filter>
  <g
     fill="#ffd5e5"
     filter="url(#a)"
     transform="matrix(0.75999998,0,0,0.75999999,34.348819,6.9882057)"
     id="g11"
     style="stroke-width:1.31579">
    <path
       d="m -10.959999,6.2374999 c -4.319,1 -8.69,2.088 -12.838,3.608 -1.492,6.3310001 -2.103,12.8800001 -3.191,19.3050001 -1.285,8.332 -2.439,16.689 -3.86,24.997 4.847,0.346 10,0.05 14.963,0.148 H 9.0850008 c -0.585,-5.657 -1.718,-11.523 -2.502,-17.26 -1.462,-8.96 -2.486,-18.012 -4.288,-26.903 -0.885,-1.0930001 -2.79899998,-0.9570001 -4.037,-1.5640001 -3.053,-0.81 -6.099,-1.875 -9.2179998,-2.332 z"
       fill="#feec99"
       id="path9"
       style="stroke-width:1.7313" />
  </g>
  <g
     fill="#c83737"
     opacity="0.51"
     stroke="#c83737"
     stroke-linejoin="round"
     stroke-width="1.65216"
     transform="matrix(0.37117042,0,0,0.45225202,34.65079,-5.3971701)"
     id="g17">
    <path
       d="m -23.355851,37.943536 c -2.134544,9.081768 -4.332216,14.438718 -13.389243,20.588223 8.912868,3.135271 18.70037,2.896518 26.778486,0 -9.057027,-6.149505 -11.254699,-11.506455 -13.389243,-20.588223 z"
       id="path13"
       style="stroke-width:1.65216" />
    <path
       d="m -26.817667,58.549927 c -0.101781,8.756321 -0.371109,15.836633 -11.545204,21.428518 -5.232221,2.785963 -6.963446,4.475105 -7.614698,9.332185 6.784589,1.493568 14.836273,2.210393 22.882279,2.179259 8.046006,0.03113 16.0976895,-0.685691 22.882279,-2.179259 C -0.864263,84.45355 -2.595488,82.764408 -7.827709,79.978445 -19.001804,74.38656 -19.271132,67.306248 -19.372913,58.549927 v 4e-6 c -1.240718,0.01919 -2.481542,0.02015 -3.722377,0.01942 -1.240835,7.29e-4 -2.481659,-2.33e-4 -3.722377,-0.01942 z"
       id="path15"
       style="stroke-width:1.65216" />
  </g>
  <g
     transform="matrix(0.49858713,0,0,0.50026893,-25.854128,-6.265298)"
     id="g71"
     style="stroke-width:1.25548">
    <path
       d="m 68.00378,224.07843 -0.331456,3.32285"
       fill="none"
       stroke="#ffffe5"
       stroke-width="0.941607"
       transform="matrix(1.3333333,0,0,-1.3333333,0,396.85067)"
       id="path19" />
    <path
       d="M 71.848674,227.16926 H 84.079412"
       fill="none"
       stroke="#ffffff"
       stroke-width="0.941607"
       transform="matrix(1.3333333,0,0,-1.3333333,0,396.85067)"
       id="path21" />
    <path
       d="m 112.98209,92.87612 a 8.7982826,9.129591 0 0 0 -0.0508,-0.23242 8.7982826,9.129591 0 0 0 -0.27734,-0.86719 8.7982826,9.129591 0 0 0 -0.35938,-0.83203 8.7982826,9.129591 0 0 0 -0.4375,-0.79101 8.7982826,9.129591 0 0 0 -0.51172,-0.74415 8.7982826,9.129591 0 0 0 -0.58008,-0.68554 8.7982826,9.129591 0 0 0 -0.64453,-0.6211 8.7982826,9.129591 0 0 0 -0.69922,-0.55273 8.7982826,9.129591 0 0 0 -0.75,-0.47656 8.7982826,9.129591 0 0 0 -0.79101,-0.39649 8.7982826,9.129591 0 0 0 -0.82617,-0.3125 8.7982826,9.129591 0 0 0 -0.85352,-0.22656 8.7982826,9.129591 0 0 0 -0.86914,-0.13672 8.7982826,9.129591 0 0 0 -0.87891,-0.0449 8.7982826,9.129591 0 0 0 -0.62109,0.0215 8.7982826,9.129591 0 0 0 -0.87305,0.11133 8.7982826,9.129591 0 0 0 -0.85937,0.19922 8.7982826,9.129591 0 0 0 -0.83399,0.28711 8.7982826,9.129591 0 0 0 -0.80273,0.37305 8.7982826,9.129591 0 0 0 -0.76367,0.45508 8.7982826,9.129591 0 0 0 -0.71485,0.53125 8.7982826,9.129591 0 0 0 -0.66015,0.60156 8.7982826,9.129591 0 0 0 -0.59961,0.66797 8.7982826,9.129591 0 0 0 -0.5332,0.72656 8.7982826,9.129591 0 0 0 -0.45899,0.77734 8.7982826,9.129591 0 0 0 -0.38281,0.82227 8.7982826,9.129591 0 0 0 -0.30078,0.85742 8.7982826,9.129591 0 0 0 -0.1211,0.48828 z"
       stroke="#000000"
       stroke-linecap="round"
       stroke-linejoin="round"
       id="path23"
       style="stroke-width:1.57622" />
    <path
       d="m 87.30581,68.52394 v 25.45703 h 3.91211 a 13.346641,13.346641 0 0 1 0.0664,-0.44336 13.346641,13.346641 0 0 1 0.33008,-1.29101 13.346641,13.346641 0 0 1 0.45703,-1.25391 13.346641,13.346641 0 0 1 0.58008,-1.20117 13.346641,13.346641 0 0 1 0.69727,-1.13672 13.346641,13.346641 0 0 1 0.80859,-1.0625 13.346641,13.346641 0 0 1 0.90821,-0.97656 13.346641,13.346641 0 0 1 1.0039,-0.88086 13.346641,13.346641 0 0 1 1.08399,-0.77539 13.346641,13.346641 0 0 1 1.1582,-0.66406 13.346641,13.346641 0 0 1 1.2168,-0.54493 13.346641,13.346641 0 0 1 1.26562,-0.41992 13.346641,13.346641 0 0 1 1.30274,-0.29297 13.346641,13.346641 0 0 1 1.32422,-0.16015 13.346641,13.346641 0 0 1 0.94336,-0.0332 13.346641,13.346641 0 0 1 1.33398,0.0664 13.346641,13.346641 0 0 1 1.31836,0.19922 13.346641,13.346641 0 0 1 1.29297,0.33008 13.346641,13.346641 0 0 1 1.25195,0.45703 13.346641,13.346641 0 0 1 1.20313,0.58008 13.346641,13.346641 0 0 1 1.13671,0.69726 13.346641,13.346641 0 0 1 1.0625,0.8086 13.346641,13.346641 0 0 1 0.97461,0.9082 13.346641,13.346641 0 0 1 0.88086,1.00195 13.346641,13.346641 0 0 1 0.77735,1.08594 13.346641,13.346641 0 0 1 0.66211,1.15625 13.346641,13.346641 0 0 1 0.54492,1.21875 13.346641,13.346641 0 0 1 0.42187,1.26562 13.346641,13.346641 0 0 1 0.29102,1.30274 13.346641,13.346641 0 0 1 0.008,0.0586 h 3.54688 V 68.52395 Z"
       stroke="#000000"
       stroke-linecap="round"
       stroke-linejoin="round"
       id="path25"
       style="stroke-width:1.57622" />
    <path
       d="m 117.69253,95.65871 h 5.76367 l -1.3125,-1.66211 -1.07226,-0.0312 -3.54883,0.002 c 0.0726,0.42367 0.1248,0.8506 0.15625,1.2793 0.007,0.13729 0.0112,0.27468 0.0137,0.41211 z"
       stroke="#000000"
       stroke-linejoin="round"
       id="path27"
       style="stroke-width:1.57622" />
    <path
       d="m 91.21792,93.97511 -3.82813,0.002 -1.32904,-0.008 -1.31744,1.68946 h 6.30273 c 0.005,-0.26726 0.018,-0.5343 0.0391,-0.80078 0.0344,-0.29567 0.0787,-0.59011 0.13281,-0.88282 z"
       stroke="#000000"
       stroke-linejoin="round"
       id="path29"
       style="stroke-width:1.57622" />
    <path
       d="m 117.50262,98.29966 5.98042,-0.0137 -0.008,-2.29145 -5.81074,0.003 a 13.483042,11.720541 0 0 1 0.0197,0.47339 13.483042,11.720541 0 0 1 -0.0671,1.16974 13.483042,11.720541 0 0 1 -0.11443,0.65863 z"
       stroke="#000000"
       stroke-width="1.18251"
       id="path31" />
    <path
       d="m 91.0692,95.96897 -6.34759,0.005 0.0157,2.40761 6.48691,-0.0158 a 13.408385,11.991536 0 0 1 -0.14717,-1.08448 13.408385,11.991536 0 0 1 -0.0334,-0.84758 13.408385,11.991536 0 0 1 0.0255,-0.46503 z"
       stroke="#000000"
       stroke-width="1.19279"
       id="path33" />
    <path
       d="m 95.72973,93.80371 a 8.6610679,15.056855 0 0 0 -0.025,0.86004 8.6610679,15.056855 0 0 0 0.0211,1.06622 8.6610679,15.056855 0 0 0 0.10383,1.49461 8.6610679,15.056855 0 0 0 0.12497,0.96635 l 16.83101,-0.074 a 8.6610679,15.056855 0 0 0 0.0673,-0.46064 8.6610679,15.056855 0 0 0 0.13074,-1.48818 8.6610679,15.056855 0 0 0 0.0423,-1.50428 8.6610679,15.056855 0 0 0 -0.0173,-0.88261 z"
       stroke="#000000"
       stroke-width="1.59969"
       id="path35" />
    <path
       d="m 87.26197,68.54669 c -2.66877,-1.95465 -2.44142,-2.435923 -3.80698,-5.387473 14.02499,1.45048 28.1694,1.602391 41.40918,-0.05405 -0.95473,3.134827 -1.13136,3.60426 -3.72737,5.41942 z"
       stroke="#000000"
       stroke-linejoin="round"
       id="path37"
       style="stroke-width:1.57622" />
    <path
       d="M 104.18763,81.82779 A 13.346641,13.346641 0 0 0 90.84192,95.1735 13.346641,13.346641 0 0 0 104.18763,108.52115 13.346641,13.346641 0 0 0 117.53528,95.1735 13.346641,13.346641 0 0 0 104.18763,81.82779 Z m 0,4.2168 a 8.7982826,9.129591 0 0 1 8.79883,9.12891 8.7982826,9.129591 0 0 1 -8.79883,9.1289 8.7982826,9.129591 0 0 1 -8.79687,-9.1289 8.7982826,9.129591 0 0 1 8.79687,-9.12891 z"
       stroke="#000000"
       stroke-linecap="round"
       stroke-linejoin="round"
       stroke-width="1.04689"
       id="path39" />
    <path
       d="m 104.27673,95.96917 v 9.41336"
       fill="none"
       stroke="#000000"
       id="path41"
       style="stroke-width:1.57622" />
    <path
       d="M 87.39452,68.87906 120.89376,69.054"
       fill="#ffffff"
       stroke="#ffffff"
       id="path43"
       style="stroke-width:1.57622" />
    <path
       d="m 97.82438,102.28894 6.31977,-6.40816 6.60703,6.60703"
       fill="none"
       stroke="#000000"
       id="path45"
       style="stroke-width:1.57622" />
    <g
       stroke="#ffffff"
       id="g69"
       style="stroke-width:1.57622">
      <path
         d="m 84.63241,96.09071 h 5.7652"
         fill="#ffffff"
         stroke-width="1.25762"
         id="path47" />
      <path
         d="m 96.10074,96.09071 h 16.1875"
         fill="#ffffff"
         stroke-width="1.25762"
         id="path49" />
      <path
         d="m 117.96123,96.09071 h 5.63941"
         fill="#ffffff"
         stroke-width="1.25762"
         id="path51" />
      <path
         d="M 104.23253,98.48434 V 86.29065"
         fill="none"
         id="path53"
         style="stroke-width:1.97891" />
      <path
         d="M 106.51056,98.28266 97.98293,89.40914"
         fill="#ffffff"
         id="path55"
         style="stroke-width:1.97891" />
      <path
         d="m 101.63748,98.45309 8.82643,-8.98046"
         fill="none"
         id="path57"
         style="stroke-width:1.97891" />
      <path
         d="M 111.16703,-98.397494 A 8.1080236,8.1080236 0 0 1 109.15463,-88.2858 8.1080236,8.1080236 0 0 1 98.8447,-88.32412 8.1080236,8.1080236 0 0 1 96.907525,-98.450494"
         fill="none"
         stroke-linejoin="bevel"
         stroke-width="1.23173"
         transform="scale(1,-1)"
         id="path59" />
      <path
         d="M 95.874998,93.788185 H 111.9375"
         fill="none"
         id="path61"
         style="stroke-width:1.97891" />
      <path
         d="m 118.10483,-98.321867 a 14.14122,14.14122 0 0 1 -6.05721,14.582032 14.14122,14.14122 0 0 1 -15.789587,-0.119559 14.14122,14.14122 0 0 1 -5.835693,-14.672085"
         fill="none"
         stroke-linejoin="bevel"
         stroke-width="1.22665"
         transform="scale(1,-1)"
         id="path63" />
      <path
         d="m 87.00741,93.65321 h 3.29645"
         fill="#ffffff"
         id="path65"
         style="stroke-width:1.97891" />
      <path
         d="m 118.03866,93.68446 h 3.29645"
         fill="#ffffff"
         id="path67"
         style="stroke-width:1.97891" />
    </g>
  </g>
</svg>
