<?xml version="1.0" encoding="UTF-8" standalone="no"?>
<svg
   width="177.17"
   height="177.17"
   shape-rendering="geometricPrecision"
   image-rendering="optimizeQuality"
   fill-rule="evenodd"
   clip-rule="evenodd"
   viewBox="0 0 50 50"
   version="1.1"
   id="svg3"
   sodipodi:docname="bD.svg"
   inkscape:version="1.2.2 (732a01da63, 2022-12-09)"
   xmlns:inkscape="http://www.inkscape.org/namespaces/inkscape"
   xmlns:sodipodi="http://sodipodi.sourceforge.net/DTD/sodipodi-0.dtd"
   xmlns:xlink="http://www.w3.org/1999/xlink"
   xmlns="http://www.w3.org/2000/svg"
   xmlns:svg="http://www.w3.org/2000/svg">
  <sodipodi:namedview
     id="namedview3"
     pagecolor="#ffffff"
     bordercolor="#666666"
     borderopacity="1.0"
     inkscape:showpageshadow="2"
     inkscape:pageopacity="0.0"
     inkscape:pagecheckerboard="0"
     inkscape:deskcolor="#d1d1d1"
     inkscape:zoom="2.5244116"
     inkscape:cx="117.65118"
     inkscape:cy="121.0183"
     inkscape:window-width="1920"
     inkscape:window-height="1001"
     inkscape:window-x="-9"
     inkscape:window-y="-9"
     inkscape:window-maximized="1"
     inkscape:current-layer="svg3"
     showgrid="false" />
  <defs
     id="defs2">
    <linearGradient
       inkscape:collect="always"
       id="linearGradient18458">
      <stop
         style="stop-color:#ffffff;stop-opacity:1;"
         offset="0"
         id="stop18454" />
      <stop
         style="stop-color:#b4b4b4;stop-opacity:1;"
         offset="1"
         id="stop18456" />
    </linearGradient>
    <linearGradient
       id="0"
       x1="21.253"
       y1="37.592"
       x2="77.64"
       y2="37.469"
       gradientUnits="userSpaceOnUse">
      <stop
         stop-color="#fff"
         id="stop1" />
      <stop
         offset="1"
         stop-color="#fff"
         stop-opacity="0"
         id="stop2" />
    </linearGradient>
    <linearGradient
       inkscape:collect="always"
       xlink:href="#linearGradient18458"
       id="linearGradient18460"
       x1="17.29794"
       y1="36.512138"
       x2="24.603249"
       y2="36.512138"
       gradientUnits="userSpaceOnUse" />
  </defs>
  <path
     style="fill:#1f1a17;fill-opacity:1;stroke-width:0.594015"
     d="m 36.26035,46.604712 c -0.76979,-1.792586 -0.99299,-4.088259 -1.11422,-5.881621 -0.0992,-1.46716 -0.0839,-1.634549 0.12228,-1.341118 0.12957,0.184405 0.35428,0.827276 0.49934,1.428604 0.14507,0.60133 0.37799,1.355708 0.51761,1.676396 l 0.25388,0.583071 0.0137,-0.542422 c 0.0179,-0.708404 0.76683,-3.756005 1.18504,-4.822045 0.0724,-0.184404 0.22764,-0.655889 0.34512,-1.047747 0.2205,-0.735545 0.37452,-0.819335 1.03214,-0.561468 0.64894,0.254469 2.17029,0.687198 2.416,0.687198 0.25356,0 0.31978,-0.671877 0.0917,-0.9304 -0.0773,-0.08759 -0.30816,-0.649604 -0.51307,-1.248916 -0.20489,-0.599312 -0.43835,-1.240533 -0.51879,-1.424936 -0.17485,-0.400916 -1.09631,-3.018125 -1.26224,-3.585169 -0.10714,-0.366103 -0.0794,-0.390574 0.32672,-0.288634 0.44076,0.110621 2.42625,0.960806 2.98801,1.279458 0.18739,0.106297 0.29336,0.107582 0.29336,0.0036 0,-0.163446 -0.48965,-1.462254 -0.93509,-2.480311 -0.43608,-0.996671 -1.23201,-2.86067 -1.41376,-3.310882 -0.45204,-1.119809 -0.29873,-1.424937 0.7159,-1.424937 0.89947,0 3.64605,-0.370718 3.63919,-0.491196 -0.002,-0.05254 -0.76312,-0.699046 -1.68916,-1.43666 -0.92604,-0.737614 -1.83028,-1.477414 -2.00944,-1.644 -0.31561,-0.293485 -0.36055,-0.284381 -1.44859,0.29337 -1.34421,0.713779 -1.65019,0.762666 -1.3711,0.219063 0.24326,-0.473799 1.17468,-1.466847 1.37581,-1.466847 0.083,0 0.35225,-0.143447 0.59848,-0.318772 0.24621,-0.175326 0.82364,-0.431361 1.28316,-0.568967 0.47481,-0.14218 0.72695,-0.287111 0.58405,-0.335704 -0.13831,-0.04703 -0.40234,-0.135775 -0.58674,-0.19721 -0.1844,-0.06144 -1.12738,-0.256122 -2.09549,-0.432636 -2.00939,-0.366362 -7.65679,-0.454761 -9.53927,-0.149317 -1.44854,0.235034 -1.67091,-0.04499 -0.31638,-0.398387 3.34455,-0.872561 7.35579,-1.02761 11.11294,-0.429553 2.33448,0.371596 3.56099,0.524659 3.01752,0.376571 -0.18442,-0.05025 -1.33555,-0.578777 -2.55809,-1.174513 -1.69125,-0.824124 -2.44294,-1.29806 -3.14325,-1.981786 -0.84692,-0.82685 -0.92043,-0.959089 -0.92043,-1.655591 0,-0.629789 0.0952,-0.857946 0.56687,-1.358024 0.31178,-0.3305839 0.51052,-0.6358887 0.44164,-0.6784557 -0.0689,-0.04257 -0.64458,0.03753 -1.27934,0.1780068 -0.63475,0.140473 -1.43884,0.2997109 -1.78684,0.3538619 -0.348,0.05415 -0.67307,0.163716 -0.72236,0.243477 -0.0493,0.07976 -0.23915,0.145017 -0.42187,0.145017 -0.37496,0 -2.42781,0.605675 -2.87276,0.84758 -0.36315,0.197434 -0.63093,0.203169 -0.63093,0.01352 0,-0.187854 1.58961,-0.894631 3.18516,-1.4162019 2.13533,-0.6980188 3.46165,-0.9994568 5.95121,-1.3525578 l 1.50876,-0.213992 -1.59258,-0.121016 c -2.8185,-0.21417 -4.47199,-0.885595 -5.32376,-2.161798 -0.51741,-0.775224 -0.87892,-1.969765 -0.87892,-2.904226 0,-0.329066 -0.063,-0.573158 -0.14007,-0.542423 -0.0771,0.03073 -0.62396,0.621215 -1.21538,1.312179 -1.13881,1.330481 -1.86752,2.025691 -2.76858,2.641322 -0.88862,0.607118 -1.07279,0.51742 -1.07279,-0.522473 0,-1.110987 -0.90523,-3.458968 -1.33356,-3.458968 -0.0669,0 -0.21882,0.32061 -0.33772,0.712468 -0.11891,0.391857 -0.31338,0.938782 -0.43216,1.215387 -0.1188,0.276606 -0.34873,0.842389 -0.51097,1.257298 -0.50725,1.297193 -2.39025,4.2301777 -2.83387,4.4140857 -0.10625,0.04404 -0.16901,-0.6747517 -0.17138,-1.9627447 -0.004,-2.187901 -0.19106,-3.00744 -1.09513,-4.798296 -0.47879,-0.948404 -1.95668,-2.7238519 -2.51696,-3.02370592 -0.35214,-0.188459 -0.36738,-0.244781 0.34164,1.26348992 0.95666,2.035077 1.14576,4.536911 0.54661,7.231691 -0.18479,0.8310858 -1.24048,2.9739187 -2.14217,4.3481267 -0.99773,1.520572 -3.94124,4.354761 -6.3202,6.085434 -1.9771897,1.438399 -2.1374097,1.595603 -2.1374097,2.097266 0,0.510258 -0.0495,0.554989 -0.83689,0.756799 -0.63156,0.161866 -0.97247,0.377734 -1.38959,0.879896 l -0.55274,0.66541 -0.43896,-0.345286 c -0.24143,-0.189906 -0.51992,-0.345284 -0.61886,-0.345284 -0.28388,0 -0.39454,0.725978 -0.32939,2.160803 0.0862,1.896488 0.30767,2.11303 1.98712,1.942261 0.69151,-0.07032 1.79802,-0.138609 2.45891,-0.151767 1.1860897,-0.02361 1.2123397,-0.03397 2.0337997,-0.802344 0.95406,-0.892421 1.7736,-1.17756 3.17171,-1.103545 l 0.9461,0.05009 -1.32965,0.57323 c -0.73131,0.315278 -1.66913,0.720104 -2.08404,0.899615 -0.80888,0.349962 -1.62311,0.699943 -2.4307597,1.044809 -1.97554,0.843538 -2.26306,1.001428 -2.262,1.242211 8.5e-4,0.281607 0.89561,0.959624 1.74492,1.322777 0.6998297,0.299241 2.7801997,0.473002 2.7801997,0.232214 0,-0.100132 -0.0767,-0.229444 -0.17037,-0.287358 -0.29488,-0.182247 0.002,-0.417408 0.52656,-0.417408 0.7244,0 1.22595,-0.296328 0.98761,-0.583506 -0.10693,-0.12884 -0.12145,-0.265114 -0.034,-0.319157 0.25313,-0.156443 4.39288,-0.602942 5.60533,-0.604572 l 1.13157,-0.0016 v 1.048475 c 0,2.191458 -1.80389,5.557347 -4.19979,7.836426 -0.61695,0.586859 -1.99264,2.549253 -2.42492,3.459069 -0.82075,1.727453 -1.08671,2.787953 -1.08671,4.33329 v 1.081964 c 0.203855,0.352644 0.459157,0.64355 0.92421,0.682755 z M 15.1087,19.636036 c 0,-0.331799 2.19024,-2.993528 2.4045,-2.92211 0.10395,0.03463 0.25858,0.305923 0.34374,0.602869 0.20793,0.725019 -0.19455,1.252139 -1.49947,1.963772 -1.14008,0.621742 -1.24877,0.65268 -1.24877,0.355469 z"
     id="path14"
     sodipodi:nodetypes="csssccscssssscssssscscssssssssssscssssssssssssssscsssssssssssssssssssssscsscsssscssscsscsssccsssscccsssss" />
  <path
     style="fill:#ffffff;fill-opacity:1;stroke:none;stroke-width:0.320203px;stroke-linecap:butt;stroke-linejoin:miter;stroke-opacity:1"
     d="m 17.8315,16.509962 c -1.20933,0.839924 -3.13757,1.903211 -3.49795,3.273729 1.88168,0.267238 2.3296,-0.281158 3.58765,-0.762374 1.00515,-0.384481 0.60425,-1.87997 -0.0897,-2.511355 z"
     id="path24"
     sodipodi:nodetypes="ccscc" />
  <path
     style="fill:url(#linearGradient18460);fill-opacity:1;stroke:none;stroke-width:0.282215px;stroke-linecap:butt;stroke-linejoin:miter;stroke-opacity:1"
     d="m 17.29794,44.849569 c 0,-2.51344 3.2621,-7.192946 4.34778,-7.984101 2.13858,-1.558421 2.68772,-8.695555 2.68772,-8.695555 0,0 0.86972,6.65115 -0.51383,8.656029 -2.68328,3.888291 -3.5225,5.65565 -3.29101,8.028422 z"
     id="path25"
     sodipodi:nodetypes="cscscc" />
</svg>
