<?xml version="1.0" encoding="UTF-8" standalone="no"?>
<svg
   width="177.17"
   height="177.17"
   shape-rendering="geometricPrecision"
   image-rendering="optimizeQuality"
   fill-rule="evenodd"
   clip-rule="evenodd"
   viewBox="0 0 50 50"
   version="1.1"
   id="svg1935"
   sodipodi:docname="bK-nonroyal.svg"
   inkscape:version="1.1 (c68e22c387, 2021-05-23)"
   xmlns:inkscape="http://www.inkscape.org/namespaces/inkscape"
   xmlns:sodipodi="http://sodipodi.sourceforge.net/DTD/sodipodi-0.dtd"
   xmlns="http://www.w3.org/2000/svg"
   xmlns:svg="http://www.w3.org/2000/svg">
  <sodipodi:namedview
     id="namedview1937"
     pagecolor="#505050"
     bordercolor="#eeeeee"
     borderopacity="1"
     inkscape:pageshadow="0"
     inkscape:pageopacity="0"
     inkscape:pagecheckerboard="0"
     showgrid="false"
     inkscape:zoom="4.9274708"
     inkscape:cx="61.390521"
     inkscape:cy="88.584999"
     inkscape:window-width="2560"
     inkscape:window-height="1377"
     inkscape:window-x="-8"
     inkscape:window-y="-8"
     inkscape:window-maximized="1"
     inkscape:current-layer="g1931" />
  <defs
     id="defs1925">
    <linearGradient
       id="0"
       x1="21.13"
       y1="37.22"
       x2="77.76"
       y2="37.469"
       gradientUnits="userSpaceOnUse"
       gradientTransform="translate(-0.05727377,-2.6345933)">
      <stop
         stop-color="#fff"
         id="stop1920" />
      <stop
         offset="1"
         stop-color="#fff"
         stop-opacity="0"
         id="stop1922" />
    </linearGradient>
  </defs>
  <g
     fill="#1f1a17"
     id="g1931">
    <path
       d="m 10.972726,35.109406 -0.813,-4.64 c -0.017,0 -0.042,-0.034 -0.076,-0.102 -0.085,-0.118 -0.3219997,-0.271 -0.7109997,-0.457 -0.381,-0.195 -0.838,-0.516 -1.346,-0.982 -0.728,-0.61 -1.295,-1.109 -1.702,-1.49 -0.406,-0.373 -0.771,-0.787 -1.101,-1.236 -1.01,-1.389 -1.575,-3.065 -1.685,-5.04 -0.169,-1.897 0.601,-3.793 2.303,-5.681 1.719,-1.88 4.0470002,-2.769 6.9679997,-2.65 1.092,0.068 2.379,0.33 3.844,0.796 0.483,0.195 0.974,0.39 1.482,0.576 0.5,0.195 0.999,0.389 1.499,0.584 0.262,0.135 0.5,0.271 0.694,0.398 -0.085,-0.347 -0.127,-0.694 -0.127,-1.041 0,-1.287 0.457,-2.388 1.38,-3.301999 0.914,-0.9060003 2.024,-1.3720003 3.311,-1.3890003 1.287,0 2.388,0.466 3.302,1.3800003 0.906,0.913999 1.363,2.019999 1.363,3.284999 0,0.262 -0.034,0.61 -0.102,1.041 0.229,-0.144 0.457,-0.271 0.669,-0.372 0.762,-0.33 1.761,-0.72 3.01,-1.16 1.422,-0.483 2.701,-0.754 3.844,-0.821 2.921,-0.136 5.241,0.754 6.943,2.65 1.668,1.888 2.447,3.785 2.328,5.681 -0.127,1.973 -0.703,3.649 -1.71,5.04 -0.33,0.449 -0.703,0.864 -1.118,1.253 -0.406,0.39 -0.965,0.881 -1.66,1.473 -0.542,0.466 -1.01,0.796 -1.389,0.982 -0.381,0.186 -0.601,0.347 -0.669,0.457 -0.017,0.034 -0.034,0.059 -0.051,0.076 -0.017,0.017 -0.025,0.034 -0.025,0.051 l -0.796,4.665 1.643,6.121 c -0.83,0.745 -2.684,1.355 -5.554,1.837 -2.879,0.483 -6.206,0.72 -9.974,0.72 -3.835,0 -7.214,-0.254 -10.118,-0.754 -2.912,-0.508 -4.741,-1.143 -5.4859997,-1.897 l 1.6339997,-6.05"
       id="path1929" />
  </g>
  <path
     fill="url(#0)"
     d="m 24.891726,18.040406 c -0.034,-0.161 -0.076,-0.305 -0.127,-0.423 -0.093,-0.33 -0.178,-0.567 -0.245,-0.72 -0.051,-0.11 -0.119,-0.254 -0.195,-0.432 -0.085,-0.169 -0.169,-0.356 -0.254,-0.559 -0.051,-0.119 -0.11,-0.271 -0.186,-0.457 -0.068,-0.195 -0.136,-0.373 -0.186,-0.533 -0.042,-0.152 -0.068,-0.305 -0.068,-0.474 0,-0.872 0.415,-1.312 1.262,-1.312 0.881,0 1.312,0.432 1.312,1.287 0,0.22 -0.034,0.373 -0.093,0.474 -0.237,0.627 -0.356,0.965 -0.372,1.016 -0.254,0.5 -0.406,0.821 -0.474,0.965 -0.119,0.271 -0.195,0.508 -0.22,0.72 -0.051,0.102 -0.085,0.186 -0.102,0.262 -0.017,0.076 -0.034,0.136 -0.051,0.186 m -2.777,8.56 c -2.066,0.034 -3.954,0.135 -5.673,0.322 -1.71,0.178 -3.03,0.44 -3.979,0.77 -0.491,-0.618 -1.067,-1.228 -1.719,-1.854 -0.66,-0.618 -1.2279997,-1.202 -1.7269997,-1.744 -0.83,-0.847 -1.236,-1.77 -1.236,-2.777 0,-1.245 0.203,-2.151 0.618,-2.726 0.44,-0.669 1.135,-1.16 2.0569997,-1.482 0.923,-0.322 1.863,-0.483 2.803,-0.483 1.194,0 2.328,0.262 3.42,0.796 1.075,0.559 1.787,1.01 2.134,1.338 1.126,1.143 2.01,2.379 2.633,3.717 0.212,0.5 0.372,1.194 0.483,2.074 0.11,0.889 0.169,1.566 0.186,2.049 m 2.777,-4.318 c 0.119,-0.466 0.212,-0.787 0.296,-0.965 0.169,-0.643 0.356,-1.194 0.576,-1.643 0.093,-0.279 0.237,-0.601 0.432,-0.974 0.186,-0.373 0.389,-0.804 0.61,-1.279 0.127,-0.279 0.271,-0.627 0.415,-1.033 0.152,-0.406 0.305,-0.804 0.449,-1.202 0.135,-0.33 0.203,-0.686 0.203,-1.067 0,-0.813 -0.296,-1.499 -0.872,-2.066 -0.576,-0.575999 -1.279,-0.863999 -2.108,-0.863999 -1.964,0 -2.955,0.990999 -2.955,2.954999 0,0.381 0.068,0.737 0.203,1.067 0.364,1.075 0.643,1.82 0.838,2.235 0.22,0.474 0.415,0.906 0.601,1.279 0.178,0.372 0.339,0.694 0.466,0.974 0.22,0.55 0.398,1.092 0.55,1.643 0.034,0.093 0.127,0.415 0.296,0.94 m -0.889,6.223 c 0,-0.66 -0.017,-1.575 -0.051,-2.735 -0.034,-1.168 -0.161,-2.142 -0.372,-2.921 -0.677,-2.21 -1.702,-3.996 -3.082,-5.351 -0.711,-0.694 -1.795,-1.346 -3.268,-1.939 -1.685,-0.66 -3.285,-0.991 -4.792,-0.991 -2.6079997,0 -4.5469997,0.931 -5.7999997,2.803 -0.711,0.991 -1.067,2.235 -1.067,3.717 0,1.626 0.398,2.955 1.185,3.996 0.415,0.593 1.211,1.329 2.388,2.21 1.1679997,0.872 2.1679997,1.685 2.9719997,2.43 1.439,-0.313 3.065,-0.584 4.877,-0.821 1.812,-0.229 4.149,-0.364 7.01,-0.398 m 13.784,11.735 -0.737,-2.929 c -3.226,-0.737 -7.281,-1.109 -12.158,-1.109 -4.826,0 -8.865,0.373 -12.11,1.109 l -0.787,2.955 c 3.141,-0.957 7.442,-1.439 12.92,-1.439 2.625,0 5.072,0.136 7.315,0.398 2.252,0.262 4.106,0.601 5.554,1.016 m -0.643,-7.417 c -3.04,-0.838 -7.095,-1.262 -12.15,-1.262 -5.097,0 -9.195,0.432 -12.302,1.287 l 0.373,2.506 c 3.124,-0.813 7.095,-1.219 11.93,-1.219 4.809,0 8.729,0.398 11.752,1.194 l 0.398,-2.506 m -11.362,-4.293 c 2.845,0.051 5.182,0.195 7,0.423 1.812,0.229 3.454,0.508 4.911,0.821 0.906,-0.898 1.913,-1.744 3.02,-2.557 1.109,-0.813 1.888,-1.507 2.337,-2.083 0.787,-1.075 1.185,-2.413 1.185,-4.02 0,-1.465 -0.356,-2.701 -1.067,-3.692 -1.27,-1.871 -3.217,-2.803 -5.825,-2.803 -1.524,0 -3.107,0.33 -4.767,0.991 -1.507,0.593 -2.591,1.236 -3.277,1.93 -1.405,1.363 -2.43,3.15 -3.073,5.359 -0.245,0.762 -0.381,1.727 -0.406,2.904 -0.025,1.177 -0.042,2.083 -0.042,2.726 m 1.812,-1.93 c 0,-0.483 0.059,-1.16 0.161,-2.049 0.11,-0.881 0.279,-1.575 0.508,-2.074 0.618,-1.338 1.49,-2.574 2.633,-3.717 0.33,-0.33 1.041,-0.779 2.134,-1.338 1.075,-0.533 2.227,-0.796 3.446,-0.796 0.931,0 1.846,0.161 2.769,0.483 0.914,0.322 1.609,0.813 2.066,1.482 0.415,0.559 0.627,1.465 0.627,2.726 0,0.991 -0.406,1.913 -1.219,2.777 -0.525,0.542 -1.101,1.092 -1.71,1.651 -0.61,0.55 -1.202,1.202 -1.761,1.947 -0.957,-0.33 -2.294,-0.593 -4,-0.77 -1.71,-0.186 -3.59,-0.288 -5.647,-0.322"
     id="path1933"
     style="fill:url(#0)" />
</svg>
