<?xml version="1.0" encoding="UTF-8" standalone="no"?>
<svg
   width="177.17"
   height="177.17"
   shape-rendering="geometricPrecision"
   image-rendering="optimizeQuality"
   fill-rule="evenodd"
   clip-rule="evenodd"
   viewBox="0 0 50 50"
   version="1.1"
   id="svg2107"
   sodipodi:docname="bN-royal.svg"
   inkscape:version="1.1 (c68e22c387, 2021-05-23)"
   xmlns:inkscape="http://www.inkscape.org/namespaces/inkscape"
   xmlns:sodipodi="http://sodipodi.sourceforge.net/DTD/sodipodi-0.dtd"
   xmlns="http://www.w3.org/2000/svg"
   xmlns:svg="http://www.w3.org/2000/svg">
  <sodipodi:namedview
     id="namedview2109"
     pagecolor="#505050"
     bordercolor="#eeeeee"
     borderopacity="1"
     inkscape:pageshadow="0"
     inkscape:pageopacity="0"
     inkscape:pagecheckerboard="0"
     showgrid="false"
     inkscape:zoom="4.9274708"
     inkscape:cx="48.605057"
     inkscape:cy="88.584999"
     inkscape:window-width="2560"
     inkscape:window-height="1377"
     inkscape:window-x="-8"
     inkscape:window-y="-8"
     inkscape:window-maximized="1"
     inkscape:current-layer="svg2107" />
  <defs
     id="defs2101">
    <linearGradient
       id="0"
       x1="21.253"
       y1="37.592"
       x2="77.64"
       y2="37.469"
       gradientUnits="userSpaceOnUse"
       gradientTransform="matrix(0.94692965,0,0,0.94692965,1.3181878,2.4655422)">
      <stop
         stop-color="#fff"
         id="stop2096" />
      <stop
         offset="1"
         stop-color="#fff"
         stop-opacity="0"
         id="stop2098" />
    </linearGradient>
  </defs>
  <path
     fill="#1f1a17"
     d="m 26.108806,11.361946 c 2.46107,0.160031 4.734648,0.793527 6.838726,1.912798 2.092715,1.106014 3.880518,2.533037 5.355834,4.273494 1.034047,1.218698 2.00465,2.694015 2.918437,4.417427 0.92231,1.715836 1.651446,3.54341 2.196877,5.467571 0.624974,2.245171 1.026472,4.593556 1.186503,7.063149 0.168554,2.46107 0.249043,4.744117 0.249043,6.846301 V 46.458 c 0,0 -1.218699,0 -3.656096,0 -2.428874,0 -5.587832,0 -9.478766,0 H 15.965296 c -0.143934,0 -0.208325,-0.384453 -0.200749,-1.146732 0.0076,-0.769854 0.05587,-1.387252 0.152455,-1.85977 0.05587,-0.376878 0.208325,-0.906211 0.441269,-1.595576 0.240521,-0.689365 0.624974,-1.52361 1.178928,-2.509364 0.248095,-0.504713 0.84182,-1.234796 1.780228,-2.196876 0.945982,-0.962081 2.020748,-2.084193 3.247021,-3.351185 0.705463,-0.72156 1.250895,-1.627772 1.651446,-2.72621 0.400551,-1.089916 0.569104,-2.084192 0.504713,-2.982828 -0.577627,0.473464 -1.211123,0.857918 -1.903328,1.154307 -3.318989,1.186503 -5.728925,2.909915 -7.207082,5.16266 -0.112685,0.143934 -0.464942,0.77743 -1.058667,1.912798 -0.312487,0.593725 -0.585203,1.001852 -0.80205,1.218699 -0.296389,0.296389 -0.730082,0.464942 -1.290665,0.497138 -0.874016,0.03977 -1.555805,-0.376878 -2.044421,-1.274568 C 9.7572249,36.95272 9.1720223,37.033209 8.6502641,37.001014 7.776248,36.672429 7.1427521,36.319224 6.7469355,35.942346 5.9448861,35.140297 5.4316502,34.34677 5.1835546,33.54472 4.9430345,32.742671 4.8227745,31.884753 4.8227745,30.96339 c 0,-1.315285 0.8096248,-3.054795 2.4449723,-5.219476 1.9127979,-2.485691 2.9260122,-4.385231 3.0462732,-5.681578 0,-0.561529 0.05587,-1.195025 0.168553,-1.903329 0.09659,-0.489562 0.288814,-0.956399 0.585203,-1.410925 0.208324,-0.312487 0.344682,-0.529334 0.409073,-0.641071 0.07197,-0.12026 0.200749,-0.296389 0.392976,-0.529334 0.136358,-0.192227 0.256618,-0.337107 0.353205,-0.432747 0.08806,-0.104162 0.208324,-0.24052 0.353204,-0.416649 0.168554,-0.200749 0.384454,-0.432747 0.65717,-0.705462 -0.833298,-2.284942 -1.170405,-4.6418496 -1.010374,-7.0631487 3.110664,1.1060138 5.728924,2.8502583 7.840577,5.2355737 0.520812,-1.771705 1.539708,-3.2072504 3.054795,-4.2971664 1.250894,0.8740161 2.24517,2.0368457 2.982829,3.4714444"
     id="path2103"
     style="stroke-width:0.94693" />
  <path
     fill="url(#0)"
     d="m 16.17362,19.307633 c 0.344683,-0.176129 0.513236,-0.264193 0.513236,-0.264193 0.472518,-0.184652 0.617398,-0.529334 0.448845,-1.034048 -0.184652,-0.464942 -0.545432,-0.624973 -1.082341,-0.464942 -1.843672,0.673267 -3.119186,1.912798 -3.825596,3.711964 -0.111737,0.513236 0.07197,0.865494 0.56153,1.058668 0.488615,0.152455 0.818147,-0.0161 0.985753,-0.520812 0.128783,-0.264193 0.216847,-0.441269 0.280292,-0.513236 0.176128,0.136358 0.400551,0.231998 0.681789,0.280292 0.956399,0.152455 1.515087,-0.264194 1.667543,-1.266992 0.04829,-0.344683 -0.0322,-0.673267 -0.232945,-0.985754 m -3.896615,15.874329 c 0.05587,-0.143934 0.160031,-0.353205 0.304911,-0.633496 0.264194,-0.65717 0.392976,-1.050145 0.392976,-1.178928 -0.02367,-0.432747 -0.256618,-0.657169 -0.681789,-0.657169 -0.312487,0 -0.673267,0.448845 -1.098439,1.338959 -0.06439,0.128782 -0.160031,0.24052 -0.280291,0.328584 -0.425171,0.441269 -0.36078,0.809625 0.184651,1.106014 0.504714,0.296389 0.890114,0.200749 1.178928,-0.304911 m 13.853581,-8.714594 c 1.098438,-1.443121 1.635347,-3.046273 1.619249,-4.810403 -0.06439,-0.520811 -0.36078,-0.777429 -0.890114,-0.777429 -0.72156,0 -1.001851,0.264194 -0.850342,0.793527 0.04829,0.865494 -0.0322,1.579479 -0.256618,2.141008 -0.360781,0.890114 -0.761332,1.554859 -1.194079,1.996128 -0.24052,0.473465 -0.09659,0.818147 0.425172,1.034047 0.497138,0.231998 0.881591,0.112685 1.146732,-0.376878 M 19.996375,15.00005 c -0.07197,-0.561529 -0.05587,-1.170405 0.04829,-1.827574 -0.938408,0.184651 -1.819999,0.624973 -2.653297,1.315285 -0.497138,0.264193 -0.617398,0.633496 -0.353205,1.106014 0.264193,0.48104 0.633496,0.561529 1.106014,0.232945 0.328584,-0.176129 0.633496,-0.337107 0.906211,-0.481041 0.272716,-0.152455 0.585203,-0.264193 0.945983,-0.344682 M 42.01249,44.785722 c -0.0161,0 0,-0.425171 0.03977,-1.274567 0.124047,-2.942111 0.08996,-5.890849 0.07197,-8.834854 -0.0161,-2.092714 -0.296389,-4.176906 -0.84182,-6.262046 -0.795421,-3.134337 -2.011279,-6.140838 -3.855898,-8.802658 -2.494212,-3.640944 -6.452378,-5.709985 -10.687048,-6.605781 0.119313,0.725348 0.03125,1.458272 0.07197,2.188355 1.515087,0.513235 2.950633,1.154307 4.297167,1.924161 4.015928,2.418458 6.073606,6.888913 6.815052,11.29687 1.204495,5.827405 0.42896,10.943666 0.769854,16.371467 H 42.01249 M 10.25531,31.005055 c 0.448845,-0.321009 0.497138,-0.689365 0.136358,-1.130634 -0.376878,-0.36078 -0.7859519,-0.392976 -1.242372,-0.09659 -0.9563989,0.624974 -1.466794,1.450696 -1.5311852,2.469593 0.016098,0.513236 0.3285846,0.761331 0.9223095,0.730082 0.5615293,-0.04829 0.834245,-0.337107 0.8181472,-0.874016 C 9.486403,31.606355 9.7837389,31.238 10.256257,31.005055"
     id="path2105"
     style="fill:url(#0);stroke-width:0.94693" />
  <path
     d="m 20.540559,13.024141 -1.761,-0.515464 V 6.6230836 h -2.066 c -0.559,0 -0.838,-0.271 -0.838,-0.821 v -0.025 c 0,-0.542 0.279,-0.813 0.838,-0.813 h 2.066 v -2.108 c 0,-0.584 0.296,-0.872 0.889,-0.872 0.576,0 0.872,0.288 0.872,0.872 v 2.108 h 2.134 c 0.542,0 0.813,0.271 0.813,0.813 v 0.025 c 0,0.55 -0.271,0.821 -0.813,0.821 l -2.117,0.025 -0.017,6.3760574"
     id="path1927"
     style="fill:#1f1a17;fill-opacity:1"
     sodipodi:nodetypes="cccsssscssscsssccc" />
</svg>
