<?xml version="1.0" encoding="UTF-8" standalone="no"?>
<svg
   width="177.17"
   height="177.17"
   shape-rendering="geometricPrecision"
   image-rendering="optimizeQuality"
   fill-rule="evenodd"
   clip-rule="evenodd"
   viewBox="0 0 50 50"
   version="1.1"
   id="svg6912"
   sodipodi:docname="w+K.svg"
   inkscape:version="1.2.2 (732a01da63, 2022-12-09)"
   xmlns:inkscape="http://www.inkscape.org/namespaces/inkscape"
   xmlns:sodipodi="http://sodipodi.sourceforge.net/DTD/sodipodi-0.dtd"
   xmlns:xlink="http://www.w3.org/1999/xlink"
   xmlns="http://www.w3.org/2000/svg"
   xmlns:svg="http://www.w3.org/2000/svg">
  <sodipodi:namedview
     id="namedview6914"
     pagecolor="#ffffff"
     bordercolor="#000000"
     borderopacity="0.25"
     inkscape:showpageshadow="2"
     inkscape:pageopacity="0.0"
     inkscape:pagecheckerboard="0"
     inkscape:deskcolor="#d1d1d1"
     showgrid="false"
     inkscape:zoom="4.6170345"
     inkscape:cx="83.386857"
     inkscape:cy="123.34757"
     inkscape:window-width="1920"
     inkscape:window-height="1001"
     inkscape:window-x="-9"
     inkscape:window-y="-9"
     inkscape:window-maximized="1"
     inkscape:current-layer="svg6912" />
  <defs
     id="defs6902">
    <linearGradient
       id="0"
       x1="21.376"
       x2="77.64"
       gradientUnits="userSpaceOnUse">
      <stop
         stop-color="#fff"
         id="stop6897" />
      <stop
         offset="1"
         stop-color="#fff"
         stop-opacity="0"
         id="stop6899" />
    </linearGradient>
    <linearGradient
       inkscape:collect="always"
       xlink:href="#linearGradient20678"
       id="linearGradient6072"
       gradientUnits="userSpaceOnUse"
       gradientTransform="matrix(-0.87472423,-0.50502227,-0.50502227,0.87472423,0.12983613,3.3869087)"
       x1="-7.3500719"
       y1="-0.98877835"
       x2="-9.2275629"
       y2="2.2693684" />
    <linearGradient
       inkscape:collect="always"
       id="linearGradient20678">
      <stop
         style="stop-color:#ffffff;stop-opacity:1;"
         offset="0"
         id="stop20674" />
      <stop
         style="stop-color:#b4b4b4;stop-opacity:1;"
         offset="1"
         id="stop20676" />
    </linearGradient>
    <linearGradient
       inkscape:collect="always"
       xlink:href="#linearGradient20678"
       id="linearGradient5311"
       x1="-7.3500719"
       y1="-0.98877835"
       x2="-9.2275629"
       y2="2.2693684"
       gradientUnits="userSpaceOnUse"
       gradientTransform="matrix(-0.87472423,-0.50502227,-0.50502227,0.87472423,0.12983611,0.56476042)" />
  </defs>
  <g
     fill="#1f1a17"
     id="g6908">
    <path
       d="m25.821 12.02h-1.761v-3.251h-2.066c-.559 0-.838-.271-.838-.821v-.025c0-.542.279-.813.838-.813h2.066v-2.108c0-.584.296-.872.889-.872.576 0 .872.288.872.872v2.108h2.134c.542 0 .813.271.813.813v.025c0 .55-.271.821-.813.821l-2.117.025-.017 3.226"
       id="path6904" />
    <path
       d="m11.03 37.744l-.813-4.64c-.017 0-.042-.034-.076-.102-.085-.118-.322-.271-.711-.457-.381-.195-.838-.516-1.346-.982-.728-.61-1.295-1.109-1.702-1.49-.406-.373-.771-.787-1.101-1.236-1.01-1.389-1.575-3.065-1.685-5.04-.169-1.897.601-3.793 2.303-5.681 1.719-1.88 4.047-2.769 6.968-2.65 1.092.068 2.379.33 3.844.796.483.195.974.39 1.482.576.5.195.999.389 1.499.584.262.135.5.271.694.398-.085-.347-.127-.694-.127-1.041 0-1.287.457-2.388 1.38-3.302.914-.906 2.024-1.372 3.311-1.389 1.287 0 2.388.466 3.302 1.38.906.914 1.363 2.02 1.363 3.285 0 .262-.034.61-.102 1.041.229-.144.457-.271.669-.372.762-.33 1.761-.72 3.01-1.16 1.422-.483 2.701-.754 3.844-.821 2.921-.136 5.241.754 6.943 2.65 1.668 1.888 2.447 3.785 2.328 5.681-.127 1.973-.703 3.649-1.71 5.04-.33.449-.703.864-1.118 1.253-.406.39-.965.881-1.66 1.473-.542.466-1.01.796-1.389.982-.381.186-.601.347-.669.457-.017.034-.034.059-.051.076-.017.017-.025.034-.025.051l-.796 4.665 1.643 6.121c-.83.745-2.684 1.355-5.554 1.837-2.879.483-6.206.72-9.974.72-3.835 0-7.214-.254-10.118-.754-2.912-.508-4.741-1.143-5.486-1.897l1.634-6.05"
       id="path6906" />
  </g>
  <path
     fill="url(#0)"
     d="m25.796 29.532c2.845.034 5.444.203 7.806.508 2.371.305 4.225.694 5.563 1.151.627-.491 1.312-1.041 2.057-1.651.745-.601 1.363-1.219 1.863-1.846.787-1.01 1.185-2.337 1.185-3.996 0-1.482-.356-2.726-1.067-3.717-1.27-1.854-3.209-2.777-5.8-2.777-1.558 0-3.15.322-4.792.965-1.439.584-2.532 1.228-3.268 1.939-1.389 1.389-2.421 3.175-3.082 5.351-.229.779-.364 1.49-.406 2.125-.042.635-.059 1.287-.059 1.947m-13.25 6.697c3.141-.796 7.307-1.194 12.505-1.194 5.089 0 9.203.381 12.327 1.143l.618-3.649c-3.327-.872-7.671-1.312-13.05-1.312-5.41 0-9.745.449-13.02 1.338l.618 3.675m25.298 4.411l-.737-2.845c-3.277-.728-7.332-1.092-12.158-1.092-4.809 0-8.856.364-12.133 1.092l-.787 2.87c3.158-.923 7.468-1.389 12.945-1.389 5.444 0 9.728.457 12.869 1.363m.652 2.337c-3.192-1.287-7.679-1.939-13.445-1.939-5.986 0-10.516.66-13.598 1.99 2.913 1.151 7.417 1.736 13.521 1.736 2.913 0 5.563-.161 7.959-.483 2.404-.322 4.25-.762 5.563-1.304m-14.419-13.445c-.008-.643-.034-1.287-.068-1.922-.034-.635-.161-1.346-.372-2.125-.677-2.21-1.702-3.996-3.082-5.351-.711-.694-1.795-1.346-3.268-1.939-1.685-.66-3.285-.991-4.792-.991-2.608 0-4.547.931-5.8 2.802-.711.991-1.067 2.235-1.067 3.717 0 1.626.398 2.955 1.185 3.996.483.61 1.092 1.228 1.837 1.837.745.61 1.439 1.168 2.083 1.66 2.896-1.041 7.341-1.6 13.343-1.685m.872-4.614c.119-.466.212-.787.296-.965.169-.643.356-1.194.576-1.643.093-.279.237-.601.432-.974.186-.373.389-.804.61-1.279.127-.279.271-.627.415-1.033.152-.406.305-.804.449-1.202.135-.33.203-.686.203-1.067 0-.813-.296-1.499-.872-2.066-.576-.576-1.279-.864-2.108-.864-1.964 0-2.955.991-2.955 2.955 0 .381.068.737.203 1.067.364 1.075.643 1.82.838 2.235.22.474.415.906.601 1.279.178.372.339.694.466.974.22.55.398 1.092.55 1.643.034.093.127.415.296.94"
     id="path6910" />
  <g
     id="g8990"
     transform="matrix(1.2015255,0,0,1.2015255,33.02646,33.02646)">
    <rect
       style="fill:#ffdd55;stroke:#000000;stroke-width:1.31917;stroke-linecap:square;stroke-linejoin:round;stroke-dasharray:none;stroke-opacity:1"
       id="rect380"
       width="12.791572"
       height="12.79157"
       x="0.659585"
       y="0.659585"
       ry="3.360497" />
    <path
       id="rect5280-9-8"
       style="fill:url(#linearGradient6072);fill-opacity:1;stroke:#000000;stroke-width:0.11402;stroke-linecap:round;stroke-linejoin:round;stroke-miterlimit:4;stroke-dasharray:none;stroke-dashoffset:0;stroke-opacity:1;paint-order:normal"
       d="M 7.0545358,6.2374041 2.1736191,9.0556087 2.8539521,10.233109 7.0556492,7.8079602 11.25679,10.233109 11.937122,9.0556085 7.056206,6.2374041 l -5.568e-4,0.00167 z" />
    <path
       id="rect5280-9"
       style="fill:url(#linearGradient5311);fill-opacity:1;stroke:#000000;stroke-width:0.11402;stroke-linecap:round;stroke-linejoin:round;stroke-miterlimit:4;stroke-dasharray:none;stroke-dashoffset:0;stroke-opacity:1;paint-order:normal"
       d="M 7.0545358,3.4152558 2.1736191,6.2334604 2.8539521,7.41096 7.0556492,4.9858119 11.25679,7.4109601 11.937122,6.2334602 7.056206,3.4152558 l -5.568e-4,0.00167 z" />
  </g>
</svg>
