<?xml version="1.0" encoding="UTF-8" standalone="no"?>
<svg
   width="177.17"
   height="177.17"
   shape-rendering="geometricPrecision"
   image-rendering="optimizeQuality"
   fill-rule="evenodd"
   clip-rule="evenodd"
   viewBox="0 0 50 50"
   version="1.1"
   id="svg5884"
   sodipodi:docname="w+P.svg"
   inkscape:version="1.2.2 (732a01da63, 2022-12-09)"
   xmlns:inkscape="http://www.inkscape.org/namespaces/inkscape"
   xmlns:sodipodi="http://sodipodi.sourceforge.net/DTD/sodipodi-0.dtd"
   xmlns:xlink="http://www.w3.org/1999/xlink"
   xmlns="http://www.w3.org/2000/svg"
   xmlns:svg="http://www.w3.org/2000/svg">
  <sodipodi:namedview
     id="namedview5886"
     pagecolor="#ffffff"
     bordercolor="#000000"
     borderopacity="0.25"
     inkscape:showpageshadow="2"
     inkscape:pageopacity="0.0"
     inkscape:pagecheckerboard="0"
     inkscape:deskcolor="#d1d1d1"
     showgrid="false"
     inkscape:zoom="4.6170345"
     inkscape:cx="83.386857"
     inkscape:cy="106.02043"
     inkscape:window-width="1920"
     inkscape:window-height="1001"
     inkscape:window-x="-9"
     inkscape:window-y="-9"
     inkscape:window-maximized="1"
     inkscape:current-layer="svg5884" />
  <defs
     id="defs5878">
    <linearGradient
       id="0"
       gradientUnits="userSpaceOnUse"
       x1="21.13"
       y1="37.35"
       x2="77.76"
       y2="37.469"
       gradientTransform="matrix(1 0 0 .97324 0 1.243)">
      <stop
         stop-color="#fff"
         id="stop5873" />
      <stop
         offset="1"
         stop-color="#fff"
         stop-opacity="0"
         id="stop5875" />
    </linearGradient>
    <linearGradient
       inkscape:collect="always"
       xlink:href="#linearGradient20678"
       id="linearGradient6072"
       gradientUnits="userSpaceOnUse"
       gradientTransform="matrix(-0.87472423,-0.50502227,-0.50502227,0.87472423,0.12983613,3.3869087)"
       x1="-7.3500719"
       y1="-0.98877835"
       x2="-9.2275629"
       y2="2.2693684" />
    <linearGradient
       inkscape:collect="always"
       id="linearGradient20678">
      <stop
         style="stop-color:#ffffff;stop-opacity:1;"
         offset="0"
         id="stop20674" />
      <stop
         style="stop-color:#b4b4b4;stop-opacity:1;"
         offset="1"
         id="stop20676" />
    </linearGradient>
    <linearGradient
       inkscape:collect="always"
       xlink:href="#linearGradient20678"
       id="linearGradient5311"
       x1="-7.3500719"
       y1="-0.98877835"
       x2="-9.2275629"
       y2="2.2693684"
       gradientUnits="userSpaceOnUse"
       gradientTransform="matrix(-0.87472423,-0.50502227,-0.50502227,0.87472423,0.12983611,0.56476042)" />
  </defs>
  <path
     d="m25 46.45h-13.394c-.66-1.607-.991-3.288-.991-5.04 0-2.975.864-5.644 2.599-8.02 1.736-2.365 3.971-4.054 6.697-5.068-1.168-.527-2.125-1.327-2.862-2.398-.737-1.071-1.101-2.283-1.101-3.634 0-1.689.576-3.156 1.736-4.392 1.152-1.244 2.574-1.961 4.267-2.151-1.346-.981-2.02-2.282-2.02-3.889 0-1.351.491-2.513 1.482-3.477.982-.964 2.176-1.442 3.581-1.442 1.389 0 2.582.478 3.573 1.442.991.964 1.49 2.126 1.49 3.477 0 1.607-.669 2.909-2.02 3.889 1.693.19 3.116.906 4.267 2.151 1.16 1.236 1.736 2.703 1.736 4.392 0 1.351-.373 2.563-1.126 3.634-.753 1.071-1.71 1.87-2.862 2.398 2.726 1.014 4.961 2.703 6.697 5.068 1.736 2.373 2.599 5.04 2.599 8.02 0 1.739-.322 3.42-.965 5.04h-13.394"
     fill="#1f1a17"
     id="path5880" />
  <path
     d="m25 44.808h12.175c.347-1.154.525-2.291.525-3.403 0-2.513-.711-4.787-2.142-6.831-1.431-2.044-3.277-3.552-5.52-4.516-1.584-.62-1.643-.659-1.643-1.739 0-.849.559-1.475 1.668-1.879 1.532-1.047 2.303-2.431 2.303-4.153 0-1.244-.432-2.324-1.287-3.263-.864-.931-1.905-1.467-3.124-1.615-.999-.082-1.49-.626-1.49-1.64 0-.453.178-.873.542-1.261.898-.676 1.346-1.557 1.346-2.653 0-.898-.339-1.673-.999-2.316-.66-.643-1.448-.964-2.354-.964-.94 0-1.744.321-2.396.964-.652.643-.974 1.417-.974 2.316 0 1.079.44 1.961 1.338 2.653.364.354.542.775.542 1.261 0 1.014-.483 1.557-1.465 1.64-1.236.148-2.286.684-3.133 1.615-.855.939-1.279 2.02-1.279 3.263 0 1.722.77 3.106 2.303 4.153 1.109.412 1.668 1.046 1.668 1.879 0 1.079-.067 1.118-1.668 1.739-2.244.964-4.081 2.472-5.503 4.516-1.422 2.044-2.134 4.318-2.134 6.831 0 1.195.178 2.324.525 3.403h12.175"
     fill="url(#0)"
     id="path5882" />
  <g
     id="g8990"
     transform="matrix(1.2015255,0,0,1.2015255,33.087585,33.087586)">
    <rect
       style="fill:#ffdd55;stroke:#000000;stroke-width:1.31917;stroke-linecap:square;stroke-linejoin:round;stroke-dasharray:none;stroke-opacity:1"
       id="rect380"
       width="12.791572"
       height="12.79157"
       x="0.659585"
       y="0.659585"
       ry="3.360497" />
    <path
       id="rect5280-9-8"
       style="fill:url(#linearGradient6072);fill-opacity:1;stroke:#000000;stroke-width:0.11402;stroke-linecap:round;stroke-linejoin:round;stroke-miterlimit:4;stroke-dasharray:none;stroke-dashoffset:0;stroke-opacity:1;paint-order:normal"
       d="M 7.0545358,6.2374041 2.1736191,9.0556087 2.8539521,10.233109 7.0556492,7.8079602 11.25679,10.233109 11.937122,9.0556085 7.056206,6.2374041 l -5.568e-4,0.00167 z" />
    <path
       id="rect5280-9"
       style="fill:url(#linearGradient5311);fill-opacity:1;stroke:#000000;stroke-width:0.11402;stroke-linecap:round;stroke-linejoin:round;stroke-miterlimit:4;stroke-dasharray:none;stroke-dashoffset:0;stroke-opacity:1;paint-order:normal"
       d="M 7.0545358,3.4152558 2.1736191,6.2334604 2.8539521,7.41096 7.0556492,4.9858119 11.25679,7.4109601 11.937122,6.2334602 7.056206,3.4152558 l -5.568e-4,0.00167 z" />
  </g>
</svg>
