<?xml version="1.0" encoding="UTF-8" standalone="no"?>
<svg
   width="177.17"
   height="177.17"
   shape-rendering="geometricPrecision"
   image-rendering="optimizeQuality"
   fill-rule="evenodd"
   clip-rule="evenodd"
   viewBox="0 0 50 50"
   version="1.1"
   id="svg5491"
   sodipodi:docname="w+R.svg"
   inkscape:version="1.2.2 (732a01da63, 2022-12-09)"
   xmlns:inkscape="http://www.inkscape.org/namespaces/inkscape"
   xmlns:sodipodi="http://sodipodi.sourceforge.net/DTD/sodipodi-0.dtd"
   xmlns:xlink="http://www.w3.org/1999/xlink"
   xmlns="http://www.w3.org/2000/svg"
   xmlns:svg="http://www.w3.org/2000/svg">
  <sodipodi:namedview
     id="namedview5493"
     pagecolor="#ffffff"
     bordercolor="#000000"
     borderopacity="0.25"
     inkscape:showpageshadow="2"
     inkscape:pageopacity="0.0"
     inkscape:pagecheckerboard="0"
     inkscape:deskcolor="#d1d1d1"
     showgrid="false"
     inkscape:zoom="4.6170345"
     inkscape:cx="83.386857"
     inkscape:cy="106.02043"
     inkscape:window-width="1920"
     inkscape:window-height="1001"
     inkscape:window-x="-9"
     inkscape:window-y="-9"
     inkscape:window-maximized="1"
     inkscape:current-layer="svg5491" />
  <defs
     id="defs5485">
    <linearGradient
       id="0"
       x1="21.376"
       x2="77.64"
       gradientUnits="userSpaceOnUse">
      <stop
         stop-color="#fff"
         id="stop5480" />
      <stop
         offset="1"
         stop-color="#fff"
         stop-opacity="0"
         id="stop5482" />
    </linearGradient>
    <linearGradient
       inkscape:collect="always"
       xlink:href="#linearGradient20678"
       id="linearGradient6072"
       gradientUnits="userSpaceOnUse"
       gradientTransform="matrix(-0.87472423,-0.50502227,-0.50502227,0.87472423,0.12983613,3.3869087)"
       x1="-7.3500719"
       y1="-0.98877835"
       x2="-9.2275629"
       y2="2.2693684" />
    <linearGradient
       inkscape:collect="always"
       id="linearGradient20678">
      <stop
         style="stop-color:#ffffff;stop-opacity:1;"
         offset="0"
         id="stop20674" />
      <stop
         style="stop-color:#b4b4b4;stop-opacity:1;"
         offset="1"
         id="stop20676" />
    </linearGradient>
    <linearGradient
       inkscape:collect="always"
       xlink:href="#linearGradient20678"
       id="linearGradient5311"
       x1="-7.3500719"
       y1="-0.98877835"
       x2="-9.2275629"
       y2="2.2693684"
       gradientUnits="userSpaceOnUse"
       gradientTransform="matrix(-0.87472423,-0.50502227,-0.50502227,0.87472423,0.12983611,0.56476042)" />
  </defs>
  <path
     fill="#1f1a17"
     d="m28.408 9.22h4.216v-3.395h6.796v9.295l-5.5 4.243v11.857l4.22 4.221v5.08h3.789v5.929h-33.859v-5.929h3.794v-5.08l4.246-4.221v-11.857l-5.508-4.243v-9.295h6.774v3.395h4.242v-3.395h6.79z"
     id="path5487" />
  <path
     fill="url(#0)"
     d="m33.07 17.678l3.15-2.557h-22.42l3.175 2.557h16.1m7.197 24.528h-30.514v2.557h30.514v-2.557m-3.844-5.05h-22.826v3.37h22.826v-3.37m-4.216-17.788h-14.393v11.862h14.393v-11.862m5.503-5.927v-5.927h-3.395v3.395h-7.645v-3.395h-3.344v3.395h-7.62v-3.395h-3.395v5.927h25.4m-1.913 22l-2.548-2.532h-16.451l-2.599 2.532h21.598"
     id="path5489" />
  <g
     id="g8990"
     transform="matrix(1.2015255,0,0,1.2015255,33.087584,33.026461)">
    <rect
       style="fill:#ffdd55;stroke:#000000;stroke-width:1.31917;stroke-linecap:square;stroke-linejoin:round;stroke-dasharray:none;stroke-opacity:1"
       id="rect380"
       width="12.791572"
       height="12.79157"
       x="0.659585"
       y="0.659585"
       ry="3.360497" />
    <path
       id="rect5280-9-8"
       style="fill:url(#linearGradient6072);fill-opacity:1;stroke:#000000;stroke-width:0.11402;stroke-linecap:round;stroke-linejoin:round;stroke-miterlimit:4;stroke-dasharray:none;stroke-dashoffset:0;stroke-opacity:1;paint-order:normal"
       d="M 7.0545358,6.2374041 2.1736191,9.0556087 2.8539521,10.233109 7.0556492,7.8079602 11.25679,10.233109 11.937122,9.0556085 7.056206,6.2374041 l -5.568e-4,0.00167 z" />
    <path
       id="rect5280-9"
       style="fill:url(#linearGradient5311);fill-opacity:1;stroke:#000000;stroke-width:0.11402;stroke-linecap:round;stroke-linejoin:round;stroke-miterlimit:4;stroke-dasharray:none;stroke-dashoffset:0;stroke-opacity:1;paint-order:normal"
       d="M 7.0545358,3.4152558 2.1736191,6.2334604 2.8539521,7.41096 7.0556492,4.9858119 11.25679,7.4109601 11.937122,6.2334602 7.056206,3.4152558 l -5.568e-4,0.00167 z" />
  </g>
</svg>
