<?xml version="1.0" encoding="UTF-8" standalone="no"?>
<svg
   width="177.17"
   height="177.17"
   shape-rendering="geometricPrecision"
   image-rendering="optimizeQuality"
   fill-rule="evenodd"
   clip-rule="evenodd"
   viewBox="0 0 50 50"
   version="1.1"
   id="svg451"
   sodipodi:docname="wK-nonroyal.svg"
   inkscape:version="1.1 (c68e22c387, 2021-05-23)"
   xmlns:inkscape="http://www.inkscape.org/namespaces/inkscape"
   xmlns:sodipodi="http://sodipodi.sourceforge.net/DTD/sodipodi-0.dtd"
   xmlns="http://www.w3.org/2000/svg"
   xmlns:svg="http://www.w3.org/2000/svg">
  <sodipodi:namedview
     id="namedview453"
     pagecolor="#505050"
     bordercolor="#eeeeee"
     borderopacity="1"
     inkscape:pageshadow="0"
     inkscape:pageopacity="0"
     inkscape:pagecheckerboard="0"
     showgrid="false"
     inkscape:zoom="3.2990913"
     inkscape:cx="46.22485"
     inkscape:cy="88.963891"
     inkscape:window-width="2560"
     inkscape:window-height="1377"
     inkscape:window-x="-8"
     inkscape:window-y="-8"
     inkscape:window-maximized="1"
     inkscape:current-layer="svg451" />
  <defs
     id="defs441">
    <linearGradient
       id="0"
       x1="21.376"
       x2="77.64"
       gradientUnits="userSpaceOnUse"
       gradientTransform="translate(-0.0855432,-2.4807528)">
      <stop
         stop-color="#fff"
         id="stop436" />
      <stop
         offset="1"
         stop-color="#fff"
         stop-opacity="0"
         id="stop438" />
    </linearGradient>
  </defs>
  <g
     fill="#1f1a17"
     id="g447"
     transform="translate(-0.0855432,-2.4807528)">
    <path
       d="m 11.03,37.744 -0.813,-4.64 C 10.2,33.104 10.175,33.07 10.141,33.002 10.056,32.884 9.819,32.731 9.43,32.545 9.049,32.35 8.592,32.029 8.084,31.563 7.356,30.953 6.789,30.454 6.382,30.073 5.976,29.7 5.611,29.286 5.281,28.837 4.271,27.448 3.706,25.772 3.596,23.797 3.427,21.9 4.197,20.004 5.899,18.116 c 1.719,-1.88 4.047,-2.769 6.968,-2.65 1.092,0.068 2.379,0.33 3.844,0.796 0.483,0.195 0.974,0.39 1.482,0.576 0.5,0.195 0.999,0.389 1.499,0.584 0.262,0.135 0.5,0.271 0.694,0.398 -0.085,-0.347 -0.127,-0.694 -0.127,-1.041 0,-1.287 0.457,-2.388 1.38,-3.302 0.914,-0.906 2.024,-1.372 3.311,-1.389 1.287,0 2.388,0.466 3.302,1.38 0.906,0.914 1.363,2.02 1.363,3.285 0,0.262 -0.034,0.61 -0.102,1.041 0.229,-0.144 0.457,-0.271 0.669,-0.372 0.762,-0.33 1.761,-0.72 3.01,-1.16 1.422,-0.483 2.701,-0.754 3.844,-0.821 2.921,-0.136 5.241,0.754 6.943,2.65 1.668,1.888 2.447,3.785 2.328,5.681 -0.127,1.973 -0.703,3.649 -1.71,5.04 -0.33,0.449 -0.703,0.864 -1.118,1.253 -0.406,0.39 -0.965,0.881 -1.66,1.473 -0.542,0.466 -1.01,0.796 -1.389,0.982 -0.381,0.186 -0.601,0.347 -0.669,0.457 -0.017,0.034 -0.034,0.059 -0.051,0.076 -0.017,0.017 -0.025,0.034 -0.025,0.051 l -0.796,4.665 1.643,6.121 c -0.83,0.745 -2.684,1.355 -5.554,1.837 -2.879,0.483 -6.206,0.72 -9.974,0.72 -3.835,0 -7.214,-0.254 -10.118,-0.754 C 11.974,45.185 10.145,44.55 9.4,43.796 l 1.634,-6.05"
       id="path445" />
  </g>
  <path
     fill="url(#0)"
     d="m 25.710457,27.051247 c 2.845,0.034 5.444,0.203 7.806,0.508 2.371,0.305 4.225,0.694 5.563,1.151 0.627,-0.491 1.312,-1.041 2.057,-1.651 0.745,-0.601 1.363,-1.219 1.863,-1.846 0.787,-1.01 1.185,-2.337 1.185,-3.996 0,-1.482 -0.356,-2.726 -1.067,-3.717 -1.27,-1.854 -3.209,-2.777 -5.8,-2.777 -1.558,0 -3.15,0.322 -4.792,0.965 -1.439,0.584 -2.532,1.228 -3.268,1.939 -1.389,1.389 -2.421,3.175 -3.082,5.351 -0.229,0.779 -0.364,1.49 -0.406,2.125 -0.042,0.635 -0.059,1.287 -0.059,1.947 m -13.25,6.697 c 3.141,-0.796 7.307,-1.194 12.505,-1.194 5.089,0 9.203,0.381 12.327,1.143 l 0.618,-3.649 c -3.327,-0.872 -7.671,-1.312 -13.05,-1.312 -5.41,0 -9.745,0.449 -13.02,1.338 l 0.618,3.675 m 25.298,4.411 -0.737,-2.845 c -3.277,-0.728 -7.332,-1.092 -12.158,-1.092 -4.809,0 -8.856,0.364 -12.133,1.092 l -0.787,2.87 c 3.158,-0.923 7.468,-1.389 12.945,-1.389 5.444,0 9.728,0.457 12.869,1.363 m 0.652,2.337 c -3.192,-1.287 -7.679,-1.939 -13.445,-1.939 -5.986,0 -10.516,0.66 -13.598,1.99 2.913,1.151 7.417,1.736 13.521,1.736 2.913,0 5.563,-0.161 7.959,-0.483 2.404,-0.322 4.25,-0.762 5.563,-1.304 m -14.419,-13.445 c -0.008,-0.643 -0.034,-1.287 -0.068,-1.922 -0.034,-0.635 -0.161,-1.346 -0.372,-2.125 -0.677,-2.21 -1.702,-3.996 -3.082,-5.351 -0.711,-0.694 -1.795,-1.346 -3.268,-1.939 -1.685,-0.66 -3.285,-0.991 -4.792,-0.991 -2.6080002,0 -4.5470002,0.931 -5.8000002,2.802 -0.711,0.991 -1.067,2.235 -1.067,3.717 0,1.626 0.398,2.955 1.185,3.996 0.483,0.61 1.092,1.228 1.837,1.837 0.745,0.61 1.4390002,1.168 2.0830002,1.66 2.896,-1.041 7.341,-1.6 13.343,-1.685 m 0.872,-4.614 c 0.119,-0.466 0.212,-0.787 0.296,-0.965 0.169,-0.643 0.356,-1.194 0.576,-1.643 0.093,-0.279 0.237,-0.601 0.432,-0.974 0.186,-0.373 0.389,-0.804 0.61,-1.279 0.127,-0.279 0.271,-0.627 0.415,-1.033 0.152,-0.406 0.305,-0.804 0.449,-1.202 0.135,-0.33 0.203,-0.686 0.203,-1.067 0,-0.813 -0.296,-1.499 -0.872,-2.066 -0.576,-0.576 -1.279,-0.864 -2.108,-0.864 -1.964,0 -2.955,0.991 -2.955,2.955 0,0.381 0.068,0.737 0.203,1.067 0.364,1.075 0.643,1.82 0.838,2.235 0.22,0.474 0.415,0.906 0.601,1.279 0.178,0.372 0.339,0.694 0.466,0.974 0.22,0.55 0.398,1.092 0.55,1.643 0.034,0.093 0.127,0.415 0.296,0.94"
     id="path449"
     inkscape:label="path449"
     style="fill:url(#0)" />
</svg>
