<?xml version="1.0" encoding="UTF-8" standalone="no"?>
<svg
   width="177.17"
   height="177.17"
   shape-rendering="geometricPrecision"
   image-rendering="optimizeQuality"
   fill-rule="evenodd"
   clip-rule="evenodd"
   viewBox="0 0 50 50"
   version="1.1"
   id="svg879"
   sodipodi:docname="wN-royal.svg"
   inkscape:version="1.1 (c68e22c387, 2021-05-23)"
   xmlns:inkscape="http://www.inkscape.org/namespaces/inkscape"
   xmlns:sodipodi="http://sodipodi.sourceforge.net/DTD/sodipodi-0.dtd"
   xmlns="http://www.w3.org/2000/svg"
   xmlns:svg="http://www.w3.org/2000/svg">
  <sodipodi:namedview
     id="namedview881"
     pagecolor="#505050"
     bordercolor="#eeeeee"
     borderopacity="1"
     inkscape:pageshadow="0"
     inkscape:pageopacity="0"
     inkscape:pagecheckerboard="0"
     showgrid="false"
     inkscape:zoom="4.9274708"
     inkscape:cx="88.584999"
     inkscape:cy="88.584999"
     inkscape:window-width="2560"
     inkscape:window-height="1377"
     inkscape:window-x="-8"
     inkscape:window-y="-8"
     inkscape:window-maximized="1"
     inkscape:current-layer="svg879" />
  <defs
     id="defs873">
    <linearGradient
       id="0"
       x1="21.405"
       x2="77.64"
       gradientUnits="userSpaceOnUse"
       gradientTransform="matrix(0.93949952,0,0,0.93949952,1.5027411,2.8107312)">
      <stop
         stop-color="#fff"
         id="stop868" />
      <stop
         offset="1"
         stop-color="#fff"
         stop-opacity="0"
         id="stop870" />
    </linearGradient>
  </defs>
  <path
     fill="#1f1a17"
     d="m 26.098839,11.637329 c 2.441759,0.158776 4.697497,0.787301 6.785065,1.897789 2.076294,1.097336 3.850069,2.513161 5.313809,4.239962 1.025934,1.209135 1.988921,2.672876 2.895538,4.382765 0.915073,1.702373 1.638487,3.515607 2.179639,5.42467 0.62007,2.227553 1.018417,4.557512 1.177193,7.007727 0.167231,2.441759 0.247088,4.706893 0.247088,6.792582 V 46.458 c 0,0 -1.209136,0 -3.627408,0 -2.409816,0 -5.543986,0 -9.40439,0 H 16.03492 c -0.142804,0 -0.20669,-0.381437 -0.199174,-1.137734 0.0075,-0.763813 0.05543,-1.376367 0.151259,-1.845177 0.05543,-0.373921 0.20669,-0.899101 0.437807,-1.583057 0.238633,-0.683955 0.62007,-1.511654 1.169677,-2.489673 0.246149,-0.500754 0.835215,-1.225108 1.766259,-2.179639 0.93856,-0.954532 2.004892,-2.067839 3.221544,-3.324889 0.699927,-0.715899 1.241079,-1.615 1.638487,-2.704819 0.397408,-1.081364 0.564639,-2.067839 0.500753,-2.959424 -0.573094,0.46975 -1.20162,0.851187 -1.888394,1.14525 -3.292946,1.177193 -5.683972,2.887082 -7.150531,5.122152 -0.1118,0.142804 -0.461294,0.771329 -1.05036,1.897789 -0.310035,0.589066 -0.580611,0.99399 -0.795756,1.209136 -0.294064,0.294063 -0.724354,0.461294 -1.280538,0.493237 -0.867158,0.03946 -1.543598,-0.373921 -2.028379,-1.264567 C 9.8755609,37.027304 9.2949502,37.107161 8.7772859,37.075218 7.9101279,36.749212 7.2816027,36.398779 6.8888919,36.024858 6.0931358,35.229102 5.583927,34.441801 5.3377782,33.646045 5.0991453,32.850289 4.9798289,31.999102 4.9798289,31.084969 c 0,-1.304965 0.803272,-3.030825 2.4257877,-5.178521 1.8977891,-2.466186 2.9030534,-4.350822 3.0223704,-5.636997 0,-0.557123 0.05543,-1.185649 0.16723,-1.888394 0.09583,-0.485721 0.286548,-0.948895 0.580611,-1.399855 0.20669,-0.310034 0.341978,-0.52518 0.405864,-0.636041 0.0714,-0.119316 0.199174,-0.294063 0.389892,-0.52518 0.135288,-0.190718 0.254605,-0.334462 0.350434,-0.429351 0.08737,-0.103345 0.20669,-0.238633 0.350433,-0.41338 0.167231,-0.199174 0.381437,-0.429351 0.652013,-0.699927 -0.82676,-2.267012 -1.161222,-4.6054268 -1.002446,-7.0077271 3.086256,1.0973355 5.683972,2.8278931 7.779056,5.1944931 0.516724,-1.757804 1.527626,-3.1820851 3.030825,-4.263449 1.241079,0.867158 2.227553,2.020863 2.959424,3.444205"
     id="path875"
     style="stroke-width:0.939499" />
  <path
     fill="url(#0)"
     d="m 41.878673,44.799783 c -0.01597,0 0,-0.421835 0.03946,-1.264566 0.04791,-0.851187 0.0714,-1.766259 0.0714,-2.744278 0.01597,-1.941006 0.01597,-3.945898 0,-6.021253 -0.01597,-2.076293 -0.294064,-4.144132 -0.835216,-6.21291 -0.532696,-1.98892 -1.113306,-3.682838 -1.750287,-5.091148 -0.636041,-1.40831 -1.328452,-2.617445 -2.076294,-3.643379 -1.113307,-1.677946 -2.640933,-3.102227 -4.565968,-4.263449 -1.925034,-1.169677 -3.937442,-1.93255 -6.037224,-2.2905 0.142804,0.763813 0.20669,1.511655 0.190719,2.243525 -0.03194,0.557123 -0.294064,0.835215 -0.795756,0.835215 -0.573095,0 -0.827699,-0.278092 -0.77133,-0.835215 0.04791,-2.051867 -0.683955,-3.81061 -2.187154,-5.265895 -1.177193,1.241079 -1.82169,2.680393 -1.909063,4.327335 -0.03194,0.548668 -0.310035,0.787301 -0.842731,0.724354 -0.493238,-0.01597 -0.739387,-0.302518 -0.739387,-0.858702 0,0 0.01597,-0.06389 0.03946,-0.190719 -0.636041,0.20669 -1.304964,0.493238 -2.004892,0.867158 -0.445322,0.310035 -0.811727,0.230178 -1.089819,-0.231116 -0.278092,-0.468811 -0.158775,-0.835216 0.373921,-1.097336 0.667984,-0.341978 1.169677,-0.596582 1.511654,-0.771329 -1.335968,-1.367911 -2.856078,-2.466186 -4.565967,-3.3089173 0.183202,2.1636673 0.779784,4.1995633 1.773775,6.1330533 0.26212,0.397408 0.199174,0.755357 -0.190719,1.066332 -0.437806,0.341977 -0.803272,0.294063 -1.097335,-0.158776 -0.103345,-0.158775 -0.26212,-0.437807 -0.461294,-0.842731 -0.326007,0.326006 -0.548668,0.573095 -0.652013,0.723415 -0.110861,0.142804 -0.302519,0.453778 -0.573095,0.931044 -0.270575,0.484781 -0.46881,0.883129 -0.596582,1.193164 -0.135288,0.389892 -0.199174,0.699927 -0.174747,0.948895 0.02349,0.238632 0.04791,0.500753 0.06389,0.803272 -0.142804,0.915072 -0.461294,1.773775 -0.948894,2.585502 -0.493238,0.803272 -1.1133072,1.789747 -1.8771203,2.959424 -0.7318701,1.113307 -1.2889933,1.956977 -1.6779461,2.513161 -0.3898923,0.564639 -0.6839557,1.273022 -0.8831296,2.147696 -0.1428039,0.52518 -0.1428039,1.169677 0,1.917519 0.1352879,0.755357 0.4453228,1.344423 0.906617,1.766259 0.7158987,0.723414 1.4083098,1.057876 2.076294,1.002446 0.2151454,0 0.509209,-0.08737 0.874674,-0.262121 0.365465,-0.167231 0.644497,-0.493237 0.851187,-0.978019 0.397408,-0.883129 0.73187,-1.328452 1.002446,-1.328452 0.381436,0 0.596582,0.222661 0.628525,0.652013 0,0.09583 -0.127772,0.485721 -0.373921,1.169677 -0.142804,0.310034 -0.326006,0.636041 -0.557123,0.978019 -0.302519,0.405863 -0.429352,0.573094 -0.397409,0.509208 0.246149,0.890646 0.660469,1.041905 1.232624,0.468811 0.167231,-0.167231 0.365465,-0.493238 0.580611,-0.954532 0.222661,-0.46881 0.564639,-1.097335 1.025933,-1.888394 0.548668,-0.922589 1.129278,-1.662914 1.750288,-2.243525 0.620069,-0.573095 1.169677,-1.041905 1.654458,-1.392338 0.278092,-0.20669 0.62007,-0.437807 1.025934,-0.699927 0.405864,-0.270576 0.948894,-0.541152 1.630971,-0.819244 0.541152,-0.215145 1.14525,-0.484782 1.805718,-0.803272 0.660468,-0.31849 1.248595,-0.723415 1.757804,-1.225107 0.715898,-0.699928 1.264566,-1.55863 1.654458,-2.585503 0.20669,-0.573095 0.278092,-1.280538 0.230178,-2.124208 -0.135288,-0.525181 0.127772,-0.787301 0.795756,-0.787301 0.500753,0 0.779784,0.254604 0.84367,0.771329 0,1.750288 -0.500753,3.348376 -1.495683,4.796145 0.326006,0.993991 0.41338,2.08381 0.254604,3.261003 -0.135287,0.948894 -0.469749,1.964493 -0.986474,3.046797 -0.52518,1.073848 -1.574601,2.275468 -3.157658,3.595465 -3.221544,2.672876 -4.744473,5.42467 -4.565968,8.248805 0,0 1.319997,0 3.969386,0 2.648449,0 5.139062,0 7.469021,0 H 41.876794 M 10.273909,30.63401 c -0.4537786,0.278091 -0.723415,0.652012 -0.8192439,1.121762 0.015972,0.509209 -0.2226614,0.787301 -0.7158987,0.835215 -0.5486677,0.06389 -0.827699,-0.167231 -0.8436705,-0.699927 0.063886,-1.025934 0.5167247,-1.837661 1.3763668,-2.441759 0.4058638,-0.326007 0.7797843,-0.302519 1.1217623,0.08737 0.341978,0.421835 0.302519,0.787301 -0.119316,1.097336 m 6.920353,-11.112401 c 0.199174,0.310035 0.278092,0.636041 0.231117,0.978019 -0.151259,0.993991 -0.708383,1.40831 -1.654459,1.257051 -0.278091,-0.04791 -0.500753,-0.142804 -0.676439,-0.278092 -0.05543,0.0714 -0.15126,0.246149 -0.278092,0.509208 -0.167231,0.500754 -0.493237,0.667985 -0.978019,0.516725 -0.477266,-0.190718 -0.667984,-0.541152 -0.557123,-1.05036 0.699927,-1.789747 1.964493,-3.014854 3.795578,-3.682838 0.532696,-0.158776 0.883129,0 1.05036,0.461294 0.190719,0.500753 0.04791,0.84367 -0.421835,1.025933 -0.08737,0.04791 -0.174747,0.09583 -0.254604,0.127772 -0.07986,0.03946 -0.158776,0.08737 -0.254605,0.135288"
     id="path877"
     style="fill:url(#0);stroke-width:0.939499" />
  <path
     d="m 20.483286,13.596878 -1.761,-1.546392 V 6.9094525 h -2.066 c -0.559,0 -0.838,-0.271 -0.838,-0.821 v -0.025 c 0,-0.542 0.279,-0.813 0.838,-0.813 h 2.066 v -2.108 c 0,-0.584 0.296,-0.872 0.889,-0.872 0.576,0 0.872,0.288 0.872,0.872 v 2.108 h 2.134 c 0.542,0 0.813,0.271 0.813,0.813 v 0.025 c 0,0.55 -0.271,0.821 -0.813,0.821 l -2.117,0.025 -0.017,6.6624255"
     id="path443"
     style="fill:#1f1a17;fill-opacity:1"
     sodipodi:nodetypes="cccsssscssscsssccc" />
</svg>
