<svg version="1.1" viewBox="0 0 45 45" xmlns="http://www.w3.org/2000/svg">
<path d="m22.5 9c-2.21 0-4 1.79-4 4 0 0.89 0.29 1.71 0.78 2.38-1.95 1.12-3.28 3.21-3.28 5.62 0 2.03 0.94 3.84 2.41 5.03-3 1.06-7.41 5.55-7.41 13.47h23c0-7.92-4.41-12.41-7.41-13.47 1.47-1.19 2.41-3 2.41-5.03 0-2.41-1.33-4.5-3.28-5.62 0.49-0.67 0.78-1.49 0.78-2.38 0-2.21-1.79-4-4-4z" stroke="#000" stroke-linecap="round" stroke-width="1.5"/>
<circle cx="22.5" cy="20.25" r="11.25" stroke="#000" stroke-linejoin="round" stroke-width="1.5"/>
<path d="m15.022 30.12c0.41646 0.33307 0.95926 0.68192 1.5327 0.99351s1.1776 0.58592 1.7168 0.76997c0.46826 0.18257 1.2944 0.42039 2.1247 0.57101 0.82643 0.12719 1.2118 0.15936 2.1499 0.17672 0.78065-5e-3 1.602-0.0808 2.4259-0.25058 0.87417-0.18012 1.5662-0.40822 2.099-0.62829 0.2456-0.0888 0.70259-0.28949 1.2332-0.57162s1.1348-0.64574 1.6747-1.0605" fill="none" stroke="#fff" stroke-linecap="round" stroke-width=".75"/>
<g transform="scale(1 .99999)" fill="#fff" stroke="#fff" stroke-width=".2" aria-label="S">
<path d="m18.779 25.609v-1.3956q1.6544 0.67429 3.246 0.67429 2.7442 0 2.7442-1.8818 0-0.81542-0.55668-1.2545-0.54884-0.43908-2.2346-1.0428-1.6308-0.57237-2.3443-1.3643-0.70566-0.79974-0.70566-2.0699 0-1.3643 1.0036-2.1326 1.0114-0.77622 2.7677-0.77622 1.7955 0 3.2617 0.61157l-0.5018 1.2859q-1.5132-0.61157-2.8226-0.61157-2.2973 0-2.2973 1.6387 0 0.79974 0.50964 1.2859 0.51748 0.48612 2.1248 1.0428 1.9288 0.68998 2.5717 1.427 0.65077 0.72918 0.65077 1.8818 0 1.5054-1.0898 2.3679-1.082 0.85463-3.0814 0.85463-2.0778 0-3.246-0.541z" fill="#fff" stroke="#fff" stroke-width=".2"/>
</g>
</svg>
