<?xml version="1.0" encoding="UTF-8" standalone="no"?>
<svg
   xmlns:dc="http://purl.org/dc/elements/1.1/"
   xmlns:cc="http://creativecommons.org/ns#"
   xmlns:rdf="http://www.w3.org/1999/02/22-rdf-syntax-ns#"
   xmlns:svg="http://www.w3.org/2000/svg"
   xmlns="http://www.w3.org/2000/svg"
   xmlns:sodipodi="http://sodipodi.sourceforge.net/DTD/sodipodi-0.dtd"
   xmlns:inkscape="http://www.inkscape.org/namespaces/inkscape"
   width="177.17"
   height="177.17"
   shape-rendering="geometricPrecision"
   image-rendering="optimizeQuality"
   fill-rule="evenodd"
   clip-rule="evenodd"
   viewBox="0 0 50 50"
   version="1.1"
   id="svg15"
   sodipodi:docname="wA.svg"
   inkscape:version="1.0.1 (3bc2e813f5, 2020-09-07)">
  <metadata
     id="metadata19">
    <rdf:RDF>
      <cc:Work
         rdf:about="">
        <dc:format>image/svg+xml</dc:format>
        <dc:type
           rdf:resource="http://purl.org/dc/dcmitype/StillImage" />
        <dc:title />
      </cc:Work>
    </rdf:RDF>
  </metadata>
  <sodipodi:namedview
     pagecolor="#ffffff"
     bordercolor="#666666"
     borderopacity="1"
     objecttolerance="10"
     gridtolerance="10"
     guidetolerance="10"
     inkscape:pageopacity="0"
     inkscape:pageshadow="2"
     inkscape:window-width="2560"
     inkscape:window-height="1377"
     id="namedview17"
     showgrid="false"
     inkscape:zoom="1.6279378"
     inkscape:cx="78.288158"
     inkscape:cy="102.31939"
     inkscape:window-x="-8"
     inkscape:window-y="-8"
     inkscape:window-maximized="1"
     inkscape:current-layer="svg15"
     inkscape:document-rotation="0" />
  <defs
     id="defs7">
    <linearGradient
       id="0"
       x1="21.253"
       y1="37.22"
       x2="77.64"
       y2="37.35"
       gradientUnits="userSpaceOnUse"
       gradientTransform="matrix(-2.3984389,0,0,-2.3984389,143.3885,180.09593)">
      <stop
         stop-color="#fff"
         id="stop2" />
      <stop
         offset="1"
         stop-color="#fff"
         stop-opacity="0"
         id="stop4" />
    </linearGradient>
    <linearGradient
       id="0-7"
       x1="21.405001"
       x2="77.639999"
       gradientUnits="userSpaceOnUse">
      <stop
         stop-color="#fff"
         id="stop2-4" />
      <stop
         offset="1"
         stop-color="#fff"
         stop-opacity="0"
         id="stop4-5" />
    </linearGradient>
    <linearGradient
       id="0-9"
       x1="21.253"
       y1="37.591999"
       x2="77.639999"
       y2="37.469002"
       gradientUnits="userSpaceOnUse">
      <stop
         stop-color="#fff"
         id="stop2-9" />
      <stop
         offset="1"
         stop-color="#fff"
         stop-opacity="0"
         id="stop4-2" />
    </linearGradient>
  </defs>
  <g
     id="g866">
    <g
       id="g909"
       transform="matrix(-1,0,0,1,50.878546,0.40847452)">
      <path
         id="path9"
         style="stroke:#1f1a17;stroke-width:0.182281"
         d="m 43.345703,111.17773 -4.470703,33.37891 2.78125,1.29883 16.367188,-27.53516 0.365234,32.71289 4.099609,0.71094 12.306641,-32.77539 6.660156,35.27344 h 4.123047 l 6.662109,-35.39258 12.427736,32.89648 4.04101,-0.70898 0.36524,-32.71484 16.30664,27.47265 2.9043,-1.13672 -4.57422,-33.48047 z m 87.093747,33.60157 c -2.27372,0 -4.18255,0.79168 -5.78711,2.35547 -1.58536,1.56378 -2.37695,3.47237 -2.37695,5.74609 0,2.21376 0.79399,4.122 2.37695,5.72656 1.60456,1.63094 3.51339,2.42383 5.78711,2.42383 2.25453,0 4.16279,-0.80009 5.72657,-2.42383 1.56378,-1.60456 2.35546,-3.5128 2.35546,-5.72656 0,-2.27372 -0.79168,-4.18231 -2.35546,-5.74609 -1.56378,-1.56379 -3.47204,-2.35547 -5.72657,-2.35547 z m -93.878903,0.004 c -2.235347,0 -4.145546,0.79169 -5.728516,2.35547 -1.585368,1.56378 -2.376953,3.47238 -2.376953,5.7461 0,2.21376 0.793984,4.12395 2.376953,5.72851 1.585368,1.63094 3.495568,2.42188 5.728516,2.42188 2.254531,0 4.18461,-0.79814 5.767578,-2.42188 1.585367,-1.60456 2.376953,-3.51475 2.376953,-5.72851 0,-2.27372 -0.793982,-4.18232 -2.376953,-5.7461 -1.585367,-1.56378 -3.513047,-2.35547 -5.767578,-2.35547 z m 22.011719,6.55469 c -2.273719,0 -4.204138,0.77215 -5.78711,2.33594 -1.585367,1.56378 -2.376953,3.49351 -2.376953,5.74805 0,2.21375 0.793985,4.12211 2.376953,5.70507 1.582972,1.58537 3.513391,2.37696 5.78711,2.37696 2.254534,0 4.164731,-0.79399 5.728515,-2.37696 1.563781,-1.58296 2.353516,-3.49132 2.353516,-5.70507 0,-2.25454 -0.789735,-4.18427 -2.353516,-5.74805 -1.563784,-1.56379 -3.473981,-2.33594 -5.728515,-2.33594 z m 49.955074,0 c -2.21376,0 -4.1221,0.77215 -5.70507,2.33594 -1.58537,1.56378 -2.37696,3.49351 -2.37696,5.74805 0,2.21375 0.79399,4.12211 2.37696,5.70507 1.58297,1.58537 3.49131,2.37696 5.70507,2.37696 2.27372,0 4.20415,-0.79399 5.78711,-2.37696 1.58537,-1.58296 2.37696,-3.49132 2.37696,-5.70507 0,-2.25454 -0.79399,-4.18427 -2.37696,-5.74805 -1.58296,-1.56379 -3.51339,-2.33594 -5.78711,-2.33594 z m -24.976559,2.96484 c -2.21376,0 -4.143492,0.79399 -5.748047,2.37696 -1.604554,1.58537 -2.396484,3.51304 -2.396484,5.76758 0,2.23534 0.79193,4.14554 2.396484,5.72851 1.604555,1.58537 3.534287,2.37695 5.748047,2.37695 2.254531,0 4.182314,-0.79398 5.746094,-2.37695 1.563784,-1.58537 2.335937,-3.49557 2.335937,-5.72851 0,-2.25454 -0.772153,-4.18461 -2.335937,-5.76758 -1.56378,-1.58537 -3.491563,-2.37696 -5.746094,-2.37696 z"
         transform="scale(0.28221482)" />
      <path
         id="path11"
         style="fill:url(#0);stroke:#1f1a17;stroke-width:0.182281"
         d="m 63.494141,111.17773 c 1.075933,0.87949 2.067165,1.92893 2.96875,3.16016 2.376852,-1.96912 5.037586,-2.96484 7.980468,-2.96484 3.796729,0 6.843126,1.48269 9.097657,4.46875 2.537549,-2.78219 5.562802,-4.1836 9.095703,-4.1836 2.863737,0 5.484475,0.9739 7.861331,2.92383 1.06058,-1.3515 2.21884,-2.48471 3.47656,-3.4043 z m -9.761719,0.84375 c -2.422424,0 -4.670178,0.75009 -6.783203,2.25391 l -3.269531,20.58984 13.099609,-22.41796 c -0.913804,-0.28543 -1.929205,-0.42579 -3.046875,-0.42579 z m 59.679688,0.30469 c -0.83226,0 -1.80855,0.14049 -2.92383,0.4043 v 0.002 l 12.79492,22.07422 -3.26953,-20.10352 c -2.25453,-1.58296 -4.46935,-2.37695 -6.60156,-2.37695 z m -51.455079,2.90625 v 27.55664 l 9.806641,-27.00976 c -0.750712,0.26384 -1.380545,0.62776 -1.908203,1.05468 -0.791482,0.99536 -1.868258,1.50391 -3.208985,1.50391 -1.582971,0 -2.863781,-0.70834 -3.818359,-2.08984 -0.100739,-0.16311 -0.24555,-0.3275 -0.40625,-0.50977 -0.16245,-0.18154 -0.323712,-0.34342 -0.464844,-0.50586 z m 43.171879,0.36524 c -0.10074,0.1631 -0.28511,0.34565 -0.52735,0.58789 -0.79148,1.66451 -2.09231,2.49609 -3.91992,2.49609 -1.503822,0 -2.740731,-0.62939 -3.695312,-1.91016 -1.076899,-0.46769 -1.605469,-0.70898 -1.605469,-0.70898 v 0.002 l 9.748051,26.72461 z m -26.705082,0.77148 c 0.0017,0.001 0.0022,0.003 0.0039,0.004 v -0.004 z m 0.0039,0.004 5.054688,29.0957 5.05664,-28.75391 c -0.122318,0.0815 -0.38592,0.28559 -0.832031,0.60938 -0.913804,1.78683 -2.295677,2.68164 -4.164062,2.68164 -2.031478,0 -3.332302,-0.89241 -3.919922,-2.68164 -0.243886,-0.24389 -0.648637,-0.56659 -1.195313,-0.95117 z m -41.876953,32.58593 c -2.619095,0 -3.939453,1.31992 -3.939453,3.94141 0,2.65987 1.320358,3.97852 3.939453,3.97852 2.64068,0 3.980469,-1.31865 3.980469,-3.97852 0,-2.61909 -1.339789,-3.94141 -3.980469,-3.94141 z m 93.874995,0 c -2.65987,0 -4.00195,1.31992 -4.00195,3.94141 0,2.65987 1.34208,3.97852 4.00195,3.97852 2.59991,0 3.91797,-1.31865 3.91797,-3.97852 0,-2.61909 -1.31806,-3.94141 -3.91797,-3.94141 z m -71.867182,6.56055 c -2.659868,0 -4.001953,1.29887 -4.001953,3.91797 0,2.61909 1.342085,3.91992 4.001953,3.91992 2.599909,0 3.917968,-1.30083 3.917968,-3.91992 0,-2.6191 -1.318059,-3.91797 -3.917968,-3.91797 z m 49.955072,0 c -2.59991,0 -3.91992,1.29887 -3.91992,3.91797 0,2.61909 1.32001,3.91992 3.91992,3.91992 2.65987,0 4,-1.30083 4,-3.91992 0,-2.6191 -1.34013,-3.91797 -4,-3.91797 z m -24.97265,2.9668 c -2.659868,0 -3.982422,1.34023 -3.982422,3.97851 0,2.6191 1.320155,3.94141 3.982422,3.94141 2.619097,0 3.917968,-1.31991 3.917968,-3.94141 0,-2.64068 -1.298871,-3.97851 -3.917968,-3.97851 z"
         transform="scale(0.28221482)" />
    </g>
    <g
       id="g853"
       transform="matrix(0.75,0,0,0.75,4.3504278,-2.1262319)">
      <path
         fill="#1f1a17"
         d="m 26.18,9.395 c 2.599,0.169 5,0.838 7.222,2.02 2.21,1.168 4.098,2.675 5.656,4.513 1.092,1.287 2.117,2.845 3.082,4.665 0.974,1.812 1.744,3.742 2.32,5.774 0.66,2.371 1.084,4.851 1.253,7.459 0.178,2.599 0.263,5.01 0.263,7.23 v 5.402 c 0,0 -1.287,0 -3.861,0 -2.565,0 -5.901,0 -10.01,0 H 15.468 c -0.152,0 -0.22,-0.406 -0.212,-1.211 0.008,-0.813 0.059,-1.465 0.161,-1.964 0.059,-0.398 0.22,-0.957 0.466,-1.685 0.254,-0.728 0.66,-1.609 1.245,-2.65 0.262,-0.533 0.889,-1.304 1.88,-2.32 0.999,-1.016 2.134,-2.201 3.429,-3.539 0.745,-0.762 1.321,-1.719 1.744,-2.879 0.423,-1.151 0.601,-2.201 0.533,-3.15 -0.61,0.5 -1.279,0.906 -2.01,1.219 -3.505,1.253 -6.05,3.073 -7.611,5.452 -0.119,0.152 -0.491,0.821 -1.118,2.02 -0.33,0.627 -0.618,1.058 -0.847,1.287 -0.313,0.313 -0.771,0.491 -1.363,0.525 C 10.842,37.605 10.122,37.165 9.606,36.217 8.912,36.42 8.294,36.505 7.743,36.471 6.82,36.124 6.151,35.751 5.733,35.353 4.886,34.506 4.344,33.668 4.082,32.821 3.828,31.974 3.701,31.068 3.701,30.095 c 0,-1.389 0.855,-3.226 2.582,-5.512 2.02,-2.625 3.09,-4.631 3.217,-6 0,-0.593 0.059,-1.262 0.178,-2.01 0.102,-0.517 0.305,-1.01 0.618,-1.49 0.22,-0.33 0.364,-0.559 0.432,-0.677 0.076,-0.127 0.212,-0.313 0.415,-0.559 0.144,-0.203 0.271,-0.356 0.373,-0.457 0.093,-0.11 0.22,-0.254 0.373,-0.44 0.178,-0.212 0.406,-0.457 0.694,-0.745 -0.88,-2.413 -1.236,-4.902 -1.067,-7.459 3.285,1.168 6.05,3.01 8.28,5.529 0.55,-1.871 1.626,-3.387 3.226,-4.538 1.321,0.923 2.371,2.151 3.15,3.666"
         id="path9-7" />
      <path
         fill="url(#0)"
         d="m 42.976,44.693 c -0.017,0 0,-0.449 0.042,-1.346 0.051,-0.906 0.076,-1.88 0.076,-2.921 0.017,-2.066 0.017,-4.2 0,-6.409 -0.017,-2.21 -0.313,-4.411 -0.889,-6.613 -0.567,-2.117 -1.185,-3.92 -1.863,-5.419 -0.677,-1.499 -1.414,-2.786 -2.21,-3.878 -1.185,-1.786 -2.811,-3.302 -4.86,-4.538 -2.049,-1.245 -4.191,-2.057 -6.426,-2.438 0.152,0.813 0.22,1.609 0.203,2.388 -0.034,0.593 -0.313,0.889 -0.847,0.889 -0.61,0 -0.881,-0.296 -0.821,-0.889 0.051,-2.184 -0.728,-4.056 -2.328,-5.605 -1.253,1.321 -1.939,2.853 -2.032,4.606 -0.034,0.584 -0.33,0.838 -0.897,0.771 -0.525,-0.017 -0.787,-0.322 -0.787,-0.914 0,0 0.017,-0.068 0.042,-0.203 -0.677,0.22 -1.389,0.525 -2.134,0.923 -0.474,0.33 -0.864,0.245 -1.16,-0.246 -0.296,-0.499 -0.169,-0.889 0.398,-1.168 0.711,-0.364 1.245,-0.635 1.609,-0.821 -1.422,-1.456 -3.04,-2.625 -4.86,-3.522 0.195,2.303 0.83,4.47 1.888,6.528 0.279,0.423 0.212,0.804 -0.203,1.135 -0.466,0.364 -0.855,0.313 -1.168,-0.169 -0.11,-0.169 -0.279,-0.466 -0.491,-0.897 -0.347,0.347 -0.584,0.61 -0.694,0.77 -0.118,0.152 -0.322,0.483 -0.61,0.991 -0.288,0.516 -0.499,0.94 -0.635,1.27 -0.144,0.415 -0.212,0.745 -0.186,1.01 0.025,0.254 0.051,0.533 0.068,0.855 -0.152,0.974 -0.491,1.888 -1.01,2.752 -0.525,0.855 -1.185,1.905 -1.998,3.15 -0.779,1.185 -1.372,2.083 -1.786,2.675 -0.415,0.601 -0.728,1.355 -0.94,2.286 -0.152,0.559 -0.152,1.245 0,2.041 0.144,0.804 0.474,1.431 0.965,1.88 0.762,0.77 1.499,1.126 2.21,1.067 0.229,0 0.542,-0.093 0.931,-0.279 0.389,-0.178 0.686,-0.525 0.906,-1.041 0.423,-0.94 0.779,-1.414 1.067,-1.414 0.406,0 0.635,0.237 0.669,0.694 0,0.102 -0.136,0.517 -0.398,1.245 -0.152,0.33 -0.347,0.677 -0.593,1.041 -0.322,0.432 -0.457,0.61 -0.423,0.542 0.262,0.948 0.703,1.109 1.312,0.499 0.178,-0.178 0.389,-0.525 0.618,-1.016 0.237,-0.499 0.601,-1.168 1.092,-2.01 0.584,-0.982 1.202,-1.77 1.863,-2.388 0.66,-0.61 1.245,-1.109 1.761,-1.482 0.296,-0.22 0.66,-0.466 1.092,-0.745 0.432,-0.288 1.01,-0.576 1.736,-0.872 0.576,-0.229 1.219,-0.516 1.922,-0.855 0.703,-0.339 1.329,-0.77 1.871,-1.304 0.762,-0.745 1.346,-1.659 1.761,-2.752 0.22,-0.61 0.296,-1.363 0.245,-2.261 -0.144,-0.559 0.136,-0.838 0.847,-0.838 0.533,0 0.83,0.271 0.898,0.821 0,1.863 -0.533,3.564 -1.592,5.105 0.347,1.058 0.44,2.218 0.271,3.471 -0.144,1.01 -0.5,2.091 -1.05,3.243 -0.559,1.143 -1.676,2.422 -3.361,3.827 -3.429,2.845 -5.05,5.774 -4.86,8.78 0,0 1.405,0 4.225,0 2.819,0 5.47,0 7.95,0 H 42.974 M 9.336,29.615 c -0.483,0.296 -0.77,0.694 -0.872,1.194 0.017,0.542 -0.237,0.838 -0.762,0.889 -0.584,0.068 -0.881,-0.178 -0.898,-0.745 0.068,-1.092 0.55,-1.956 1.465,-2.599 0.432,-0.347 0.83,-0.322 1.194,0.093 0.364,0.449 0.322,0.838 -0.127,1.168 m 7.366,-11.828 c 0.212,0.33 0.296,0.677 0.246,1.041 -0.161,1.058 -0.754,1.499 -1.761,1.338 -0.296,-0.051 -0.533,-0.152 -0.72,-0.296 -0.059,0.076 -0.161,0.262 -0.296,0.542 -0.178,0.533 -0.525,0.711 -1.041,0.55 -0.508,-0.203 -0.711,-0.576 -0.593,-1.118 0.745,-1.905 2.091,-3.209 4.04,-3.92 0.567,-0.169 0.94,0 1.118,0.491 0.203,0.533 0.051,0.898 -0.449,1.092 -0.093,0.051 -0.186,0.102 -0.271,0.136 -0.085,0.042 -0.169,0.093 -0.271,0.144"
         id="path11-6"
         style="fill:url(#0-7)" />
    </g>
  </g>
</svg>
