<?xml version="1.0" encoding="UTF-8" standalone="no"?>
<svg version="1.1" xmlns = "http://www.w3.org/2000/svg" xmlns:xlink="http://www.w3.org/1999/xlink" width="1100" height="800" viewBox="0 0 1100 800">
<style>
.dl { fill:#6882a8; fill-opacity:1; fill-rule:nonzero; stroke:none; }
.du { fill:#758fb4; fill-opacity:1; fill-rule:nonzero; stroke:none; }
.lu { fill:#8ea9ce; fill-opacity:1; fill-rule:nonzero; stroke:none; }
.ll { fill:#9bb5db; fill-opacity:1; fill-rule:nonzero; stroke:none; }
</style>
<g id="swd"><rect class="dl" width="100" height="100" /><rect class="du" width="98" height="98" x="0" y="2" /></g>
<g id="nd"><rect class="dl" width="100" height="100" /><rect class="du" width="96" height="98" x="2" y="0" /></g>
<g id="nl"><rect class="ll" width="100" height="100" /><rect class="lu" width="96" height="98" x="2" y="0" /></g>
<g id="nel"><rect class="ll" width="100" height="100" /><rect class="lu" width="98" height="98" x="2" y="0" /></g>
<g id="ed"><rect class="dl" width="100" height="100" /><rect class="du" width="98" height="96" x="2" y="2" /></g>
<g id="el"><rect class="ll" width="100" height="100" /><rect class="lu" width="98" height="96" x="2" y="2" /></g>
<g id="sed"><rect class="dl" width="100" height="100" /><rect class="du" width="98" height="98" x="2" y="2" /></g>
<g id="sl"><rect class="ll" width="100" height="100" /><rect class="lu" width="96" height="98" x="2" y="2" /></g>
<g id="sd"><rect class="dl" width="100" height="100" /><rect class="du" width="96" height="98" x="2" y="2" /></g>
<g id="wl"><rect class="ll" width="100" height="100" /><rect class="lu" width="98" height="96" x="0" y="2" /></g>
<g id="wd"><rect class="dl" width="100" height="100" /><rect class="du" width="98" height="96" x="0" y="2" /></g>
<g id="nwl"><rect class="ll" width="100" height="100" /><rect class="lu" width="98" height="98" x="0" y="0" /></g>
<g id="cd"><rect class="dl" width="100" height="100" /><rect class="du" width="96" height="96" x="2" y="2" /></g>
<g id="cl"><rect class="ll" width="100" height="100" /><rect class="lu" width="96" height="96" x="2" y="2" /></g>
<use x="0" y="700" xlink:href="#swd" />
<use x="100" y="700" xlink:href="#sl" />
<use x="200" y="700" xlink:href="#sd" />
<use x="300" y="700" xlink:href="#sl" />
<use x="400" y="700" xlink:href="#sd" />
<use x="500" y="700" xlink:href="#sl" />
<use x="600" y="700" xlink:href="#sd" />
<use x="700" y="700" xlink:href="#sl" />
<use x="800" y="700" xlink:href="#sd" />
<use x="900" y="700" xlink:href="#sl" />
<use x="1000" y="700" xlink:href="#sed" />
<use x="0" y="600" xlink:href="#wl" />
<use x="100" y="600" xlink:href="#cd" />
<use x="200" y="600" xlink:href="#cl" />
<use x="300" y="600" xlink:href="#cd" />
<use x="400" y="600" xlink:href="#cl" />
<use x="500" y="600" xlink:href="#cd" />
<use x="600" y="600" xlink:href="#cl" />
<use x="700" y="600" xlink:href="#cd" />
<use x="800" y="600" xlink:href="#cl" />
<use x="900" y="600" xlink:href="#cd" />
<use x="1000" y="600" xlink:href="#el" />
<use x="0" y="500" xlink:href="#wd" />
<use x="100" y="500" xlink:href="#cl" />
<use x="200" y="500" xlink:href="#cd" />
<use x="300" y="500" xlink:href="#cl" />
<use x="400" y="500" xlink:href="#cd" />
<use x="500" y="500" xlink:href="#cl" />
<use x="600" y="500" xlink:href="#cd" />
<use x="700" y="500" xlink:href="#cl" />
<use x="800" y="500" xlink:href="#cd" />
<use x="900" y="500" xlink:href="#cl" />
<use x="1000" y="500" xlink:href="#ed" />
<use x="0" y="400" xlink:href="#wl" />
<use x="100" y="400" xlink:href="#cd" />
<use x="200" y="400" xlink:href="#cl" />
<use x="300" y="400" xlink:href="#cd" />
<use x="400" y="400" xlink:href="#cl" />
<use x="500" y="400" xlink:href="#cd" />
<use x="600" y="400" xlink:href="#cl" />
<use x="700" y="400" xlink:href="#cd" />
<use x="800" y="400" xlink:href="#cl" />
<use x="900" y="400" xlink:href="#cd" />
<use x="1000" y="400" xlink:href="#el" />
<use x="0" y="300" xlink:href="#wd" />
<use x="100" y="300" xlink:href="#cl" />
<use x="200" y="300" xlink:href="#cd" />
<use x="300" y="300" xlink:href="#cl" />
<use x="400" y="300" xlink:href="#cd" />
<use x="500" y="300" xlink:href="#cl" />
<use x="600" y="300" xlink:href="#cd" />
<use x="700" y="300" xlink:href="#cl" />
<use x="800" y="300" xlink:href="#cd" />
<use x="900" y="300" xlink:href="#cl" />
<use x="1000" y="300" xlink:href="#ed" />
<use x="0" y="200" xlink:href="#wl" />
<use x="100" y="200" xlink:href="#cd" />
<use x="200" y="200" xlink:href="#cl" />
<use x="300" y="200" xlink:href="#cd" />
<use x="400" y="200" xlink:href="#cl" />
<use x="500" y="200" xlink:href="#cd" />
<use x="600" y="200" xlink:href="#cl" />
<use x="700" y="200" xlink:href="#cd" />
<use x="800" y="200" xlink:href="#cl" />
<use x="900" y="200" xlink:href="#cd" />
<use x="1000" y="200" xlink:href="#el" />
<use x="0" y="100" xlink:href="#wd" />
<use x="100" y="100" xlink:href="#cl" />
<use x="200" y="100" xlink:href="#cd" />
<use x="300" y="100" xlink:href="#cl" />
<use x="400" y="100" xlink:href="#cd" />
<use x="500" y="100" xlink:href="#cl" />
<use x="600" y="100" xlink:href="#cd" />
<use x="700" y="100" xlink:href="#cl" />
<use x="800" y="100" xlink:href="#cd" />
<use x="900" y="100" xlink:href="#cl" />
<use x="1000" y="100" xlink:href="#ed" />
<use x="0" y="0" xlink:href="#nwl" />
<use x="100" y="0" xlink:href="#nd" />
<use x="200" y="0" xlink:href="#nl" />
<use x="300" y="0" xlink:href="#nd" />
<use x="400" y="0" xlink:href="#nl" />
<use x="500" y="0" xlink:href="#nd" />
<use x="600" y="0" xlink:href="#nl" />
<use x="700" y="0" xlink:href="#nd" />
<use x="800" y="0" xlink:href="#nl" />
<use x="900" y="0" xlink:href="#nd" />
<use x="1000" y="0" xlink:href="#nel" />
</svg>
