<?xml version="1.0" encoding="UTF-8" standalone="no"?>
<svg
   version="1.1"
   width="45"
   height="45"
   id="svg4857"
   sodipodi:docname="b+R.svg"
   inkscape:version="1.2.2 (732a01da63, 2022-12-09)"
   xmlns:inkscape="http://www.inkscape.org/namespaces/inkscape"
   xmlns:sodipodi="http://sodipodi.sourceforge.net/DTD/sodipodi-0.dtd"
   xmlns:xlink="http://www.w3.org/1999/xlink"
   xmlns="http://www.w3.org/2000/svg"
   xmlns:svg="http://www.w3.org/2000/svg">
  <defs
     id="defs4861">
    <linearGradient
       inkscape:collect="always"
       xlink:href="#linearGradient1816"
       id="linearGradient1818"
       x1="11.910074"
       y1="2.9070051"
       x2="26.839396"
       y2="2.9070051"
       gradientUnits="userSpaceOnUse" />
    <linearGradient
       inkscape:collect="always"
       id="linearGradient1816">
      <stop
         style="stop-color:#ffffff;stop-opacity:1;"
         offset="0.40000001"
         id="stop1812" />
      <stop
         style="stop-color:#b4b4b4;stop-opacity:1;"
         offset="1"
         id="stop1814" />
    </linearGradient>
  </defs>
  <sodipodi:namedview
     id="namedview4859"
     pagecolor="#ffffff"
     bordercolor="#000000"
     borderopacity="0.25"
     inkscape:showpageshadow="2"
     inkscape:pageopacity="0.0"
     inkscape:pagecheckerboard="0"
     inkscape:deskcolor="#d1d1d1"
     showgrid="false"
     inkscape:zoom="18.177778"
     inkscape:cx="21.179707"
     inkscape:cy="26.928484"
     inkscape:window-width="1920"
     inkscape:window-height="1001"
     inkscape:window-x="-9"
     inkscape:window-y="-9"
     inkscape:window-maximized="1"
     inkscape:current-layer="svg4857" />
  <g
     style="opacity:1; fill:#000000; fill-opacity:1; fill-rule:evenodd; stroke:#000000; stroke-width:1.5; stroke-linecap:round;stroke-linejoin:round;stroke-miterlimit:4; stroke-dasharray:none; stroke-opacity:1;"
     transform="translate(0,0.3)"
     id="g4855">
    <path
       d="M 9,39 L 36,39 L 36,36 L 9,36 L 9,39 z "
       style="stroke-linecap:butt;"
       id="path4833" />
    <path
       d="M 12.5,32 L 14,29.5 L 31,29.5 L 32.5,32 L 12.5,32 z "
       style="stroke-linecap:butt;"
       id="path4835" />
    <path
       d="M 12,36 L 12,32 L 33,32 L 33,36 L 12,36 z "
       style="stroke-linecap:butt;"
       id="path4837" />
    <path
       d="M 14,29.5 L 14,16.5 L 31,16.5 L 31,29.5 L 14,29.5 z "
       style="stroke-linecap:butt;stroke-linejoin:miter;"
       id="path4839" />
    <path
       d="M 14,16.5 L 11,14 L 34,14 L 31,16.5 L 14,16.5 z "
       style="stroke-linecap:butt;"
       id="path4841" />
    <path
       d="M 11,14 L 11,9 L 15,9 L 15,11 L 20,11 L 20,9 L 25,9 L 25,11 L 30,11 L 30,9 L 34,9 L 34,14 L 11,14 z "
       style="stroke-linecap:butt;"
       id="path4843" />
    <path
       d="M 12,35.5 L 33,35.5 L 33,35.5"
       style="fill:none; stroke:#ffffff; stroke-width:1; stroke-linejoin:miter;"
       id="path4845" />
    <path
       d="M 13,31.5 L 32,31.5"
       style="fill:none; stroke:#ffffff; stroke-width:1; stroke-linejoin:miter;"
       id="path4847" />
    <path
       d="M 14,29.5 L 31,29.5"
       style="fill:none; stroke:#ffffff; stroke-width:1; stroke-linejoin:miter;"
       id="path4849" />
    <path
       d="M 14,16.5 L 31,16.5"
       style="fill:none; stroke:#ffffff; stroke-width:1; stroke-linejoin:miter;"
       id="path4851" />
    <path
       d="M 11,14 L 34,14"
       style="fill:none; stroke:#ffffff; stroke-width:1; stroke-linejoin:miter;"
       id="path4853" />
  </g>
  <g
     id="g1822"
     transform="matrix(1.3636364,0,0,1.3636364,6.7815061,22.335768)">
    <path
       style="display:inline;fill:#ffdd55;stroke:#000000;stroke-linecap:round;stroke-linejoin:miter"
       d="m 17.5,0.5 h 10 v 15 l -5,-4.483 -5,4.483 z"
       id="path349"
       sodipodi:nodetypes="cccccc" />
    <path
       sodipodi:type="star"
       style="fill:url(#linearGradient1818);fill-opacity:1;stroke:#000000;stroke-width:0.373216;stroke-linecap:round;stroke-linejoin:miter;stroke-dasharray:none"
       id="path1787"
       inkscape:flatsided="false"
       sodipodi:sides="5"
       sodipodi:cx="19.374998"
       sodipodi:cy="3.6562498"
       sodipodi:r1="6.2194562"
       sodipodi:r2="2.3633935"
       sodipodi:arg1="0.94236945"
       sodipodi:arg2="1.570688"
       inkscape:rounded="0"
       inkscape:randomized="0"
       d="m 23.031248,8.6874994 -3.655994,-2.6678561 -3.655415,2.6686483 1.407517,-4.3014696 -3.66762,-2.651849 4.525887,0.0094 1.388701,-4.3075811 1.389635,4.3072801 4.525885,-0.010382 -3.667046,2.6526438 z"
       inkscape:transform-center-x="0.00011167938"
       inkscape:transform-center-y="-0.31815738"
       transform="matrix(0.53588261,0,0,0.53588261,12.117416,5.2465283)" />
  </g>
</svg>
