<?xml version="1.0" encoding="UTF-8" standalone="no"?>
<!-- Created with Inkscape (http://www.inkscape.org/) -->

<svg
   width="45"
   height="45"
   id="svg3128"
   sodipodi:version="0.32"
   inkscape:version="1.2.2 (732a01da63, 2022-12-09)"
   version="1.0"
   sodipodi:docname="w+C.svg"
   inkscape:output_extension="org.inkscape.output.svg.inkscape"
   xmlns:inkscape="http://www.inkscape.org/namespaces/inkscape"
   xmlns:sodipodi="http://sodipodi.sourceforge.net/DTD/sodipodi-0.dtd"
   xmlns:xlink="http://www.w3.org/1999/xlink"
   xmlns="http://www.w3.org/2000/svg"
   xmlns:svg="http://www.w3.org/2000/svg"
   xmlns:rdf="http://www.w3.org/1999/02/22-rdf-syntax-ns#"
   xmlns:cc="http://creativecommons.org/ns#"
   xmlns:dc="http://purl.org/dc/elements/1.1/">
  <defs
     id="defs3130">
    <inkscape:perspective
       sodipodi:type="inkscape:persp3d"
       inkscape:vp_x="0 : 22.5 : 1"
       inkscape:vp_y="0 : 1000 : 0"
       inkscape:vp_z="45 : 22.5 : 1"
       inkscape:persp3d-origin="22.5 : 15 : 1"
       id="perspective15" />
    <inkscape:perspective
       id="perspective12"
       inkscape:persp3d-origin="22.5 : 15 : 1"
       inkscape:vp_z="45 : 22.5 : 1"
       inkscape:vp_y="0 : 1000 : 0"
       inkscape:vp_x="0 : 22.5 : 1"
       sodipodi:type="inkscape:persp3d" />
    <inkscape:perspective
       id="perspective14"
       inkscape:persp3d-origin="22.5 : 15 : 1"
       inkscape:vp_z="45 : 22.5 : 1"
       inkscape:vp_y="0 : 1000 : 0"
       inkscape:vp_x="0 : 22.5 : 1"
       sodipodi:type="inkscape:persp3d" />
    <linearGradient
       inkscape:collect="always"
       xlink:href="#linearGradient1816"
       id="linearGradient1818"
       x1="11.910074"
       y1="2.9070051"
       x2="26.839396"
       y2="2.9070051"
       gradientUnits="userSpaceOnUse" />
    <linearGradient
       inkscape:collect="always"
       id="linearGradient1816">
      <stop
         style="stop-color:#ffffff;stop-opacity:1;"
         offset="0.40000001"
         id="stop1812" />
      <stop
         style="stop-color:#b4b4b4;stop-opacity:1;"
         offset="1"
         id="stop1814" />
    </linearGradient>
  </defs>
  <sodipodi:namedview
     id="base"
     pagecolor="#ffffff"
     bordercolor="#666666"
     borderopacity="1.0"
     gridtolerance="10000"
     guidetolerance="10"
     objecttolerance="10"
     inkscape:pageopacity="0.0"
     inkscape:pageshadow="2"
     inkscape:zoom="16.000001"
     inkscape:cx="26.749999"
     inkscape:cy="28.156249"
     inkscape:document-units="px"
     inkscape:current-layer="layer1"
     height="45px"
     width="45px"
     inkscape:grid-points="true"
     showgrid="false"
     inkscape:window-width="1920"
     inkscape:window-height="1001"
     inkscape:window-x="-9"
     inkscape:window-y="-9"
     inkscape:showpageshadow="2"
     inkscape:pagecheckerboard="0"
     inkscape:deskcolor="#d1d1d1"
     inkscape:window-maximized="1">
    <inkscape:grid
       id="GridFromPre046Settings"
       type="xygrid"
       originx="0"
       originy="0"
       spacingx="0.5"
       spacingy="0.5"
       color="#0000ff"
       empcolor="#0000ff"
       opacity="0.2"
       empopacity="0.4"
       empspacing="5" />
  </sodipodi:namedview>
  <metadata
     id="metadata3133">
    <rdf:RDF>
      <cc:Work
         rdf:about="">
        <dc:format>image/svg+xml</dc:format>
        <dc:type
           rdf:resource="http://purl.org/dc/dcmitype/StillImage" />
      </cc:Work>
    </rdf:RDF>
  </metadata>
  <g
     inkscape:label="Layer 1"
     inkscape:groupmode="layer"
     id="layer1"
     style="display:inline">
    <g
       id="g3481"
       transform="translate(0,-0.3093592)">
      <path
         sodipodi:nodetypes="cccc"
         id="path3127"
         d="M 34,35.130223 L 31,32.130223 L 14,32.130223 L 11,35.130223"
         style="fill:#ffffff;fill-opacity:1;fill-rule:evenodd;stroke:#000000;stroke-width:1.5;stroke-linecap:round;stroke-linejoin:round;stroke-miterlimit:4;stroke-dasharray:none;stroke-opacity:1" />
      <g
         id="g3476">
        <path
           style="fill:#ffffff;fill-opacity:1;fill-rule:evenodd;stroke:#000000;stroke-width:1.5;stroke-linecap:butt;stroke-linejoin:round;stroke-miterlimit:4;stroke-dasharray:none;stroke-opacity:1"
           d="M 11,35.130223 L 11,40.130223 L 15,40.130223 L 15,38.130223 L 20,38.130223 L 20,40.130223 L 25,40.130223 L 25,38.130223 L 30,38.130223 L 30,40.130223 L 34,40.130223 L 34,35.130223"
           id="path3129"
           sodipodi:nodetypes="cccccccccccc" />
        <path
           style="fill:#ffffff;fill-opacity:1;fill-rule:evenodd;stroke:#000000;stroke-width:1.5;stroke-linecap:butt;stroke-linejoin:miter;stroke-miterlimit:4;stroke-dasharray:none;stroke-opacity:1"
           d="M 31.552703,32.417761 L 31.552703,30.302822 L 13.447297,30.302822 L 13.447297,32.417761"
           id="path3125"
           sodipodi:nodetypes="cccc" />
        <path
           style="fill:none;fill-opacity:0.75;fill-rule:evenodd;stroke:#000000;stroke-width:1px;stroke-linecap:round;stroke-linejoin:miter;stroke-opacity:1"
           d="M 11,35.130223 L 34,35.130223"
           id="path5175" />
      </g>
    </g>
    <g
       id="g3323"
       inkscape:label="Layer 1"
       transform="matrix(-0.7654224,0,0,-0.7654224,37.205613,35.181827)">
      <path
         sodipodi:nodetypes="cccc"
         id="path3491"
         d="M 22.028958,36 C 11.528958,35 5.5289585,28 6.0289585,7 L 29.028958,7 C 29.028958,16 19.028958,13.5 21.028958,28"
         style="fill:#ffffff;fill-opacity:1;fill-rule:evenodd;stroke:#000000;stroke-width:1.5;stroke-linecap:round;stroke-linejoin:miter;stroke-miterlimit:4;stroke-dasharray:none;stroke-opacity:1" />
      <path
         sodipodi:nodetypes="csccccccccccc"
         id="path3495"
         d="M 20.028958,28 C 19.644497,25.088722 25.581894,20.631376 28.028958,19 C 31.028958,17 30.848156,14.657108 33.028958,15 C 34.070678,15.944016 31.615529,18.037549 33.028958,18 C 34.028958,18 32.841626,16.768273 34.028958,16 C 35.028958,16 38.032119,15.000001 38.028958,20 C 38.028958,22 32.028958,32 32.028958,32 C 32.028958,32 30.143092,33.902129 30.028958,35.5 C 30.755005,36.494369 30.528958,37.5 30.528958,38.5 C 29.528958,39.5 27.528958,36 27.528958,36 L 25.528958,36 C 25.528958,36 24.747177,37.991926 23.028958,39 C 22.028958,39 22.028958,36 22.028958,36"
         style="fill:#ffffff;fill-opacity:1;fill-rule:evenodd;stroke:#000000;stroke-width:1.5;stroke-linecap:round;stroke-linejoin:round;stroke-miterlimit:4;stroke-dasharray:none;stroke-opacity:1" />
      <path
         transform="matrix(-1,0,0,-1,43.528958,44)"
         d="M 9,23.5 A 0.5,0.5 0 1 1 8,23.5 A 0.5,0.5 0 1 1 9,23.5 z"
         sodipodi:ry="0.5"
         sodipodi:rx="0.5"
         sodipodi:cy="23.5"
         sodipodi:cx="8.5"
         id="path3499"
         style="opacity:1;fill:#000000;fill-opacity:1;stroke:#000000;stroke-width:1.5;stroke-linecap:round;stroke-linejoin:round;stroke-miterlimit:4;stroke-dasharray:none;stroke-opacity:1"
         sodipodi:type="arc" />
      <path
         transform="matrix(-0.866025,-0.5,0.5,-0.866025,34.336326,51.173394)"
         d="M 15,15.5 A 0.5,1.5 0 1 1 14,15.5 A 0.5,1.5 0 1 1 15,15.5 z"
         sodipodi:ry="1.5"
         sodipodi:rx="0.5"
         sodipodi:cy="15.5"
         sodipodi:cx="14.5"
         id="path3501"
         style="opacity:1;fill:#000000;fill-opacity:1;stroke:#000000;stroke-width:1.50000048;stroke-linecap:round;stroke-linejoin:round;stroke-miterlimit:4;stroke-dasharray:none;stroke-opacity:1"
         sodipodi:type="arc" />
      <path
         sodipodi:nodetypes="cc"
         id="path8049"
         d="M 7.0289585,7 C 6.0289585,27 12.528958,34.5 19.028958,35.5"
         style="fill:none;fill-opacity:0.75;fill-rule:evenodd;stroke:#000000;stroke-width:1;stroke-linecap:round;stroke-linejoin:miter;stroke-miterlimit:4;stroke-dasharray:none;stroke-opacity:1" />
    </g>
    <path
       style="fill:none;fill-opacity:0.75000000000000000;fill-rule:evenodd;stroke:#000000;stroke-width:1;stroke-linecap:butt;stroke-linejoin:miter;stroke-miterlimit:4;stroke-dasharray:none;stroke-opacity:1"
       d="M 30,30 L 15,30"
       id="path4590"
       sodipodi:nodetypes="cc" />
    <g
       id="g1822"
       transform="matrix(1.3636364,0,0,1.3636364,6.8181791,22.293286)">
      <path
         style="display:inline;fill:#ffdd55;stroke:#000000;stroke-linecap:round;stroke-linejoin:miter"
         d="m 17.5,0.5 h 10 v 15 l -5,-4.483 -5,4.483 z"
         id="path349"
         sodipodi:nodetypes="cccccc" />
      <path
         sodipodi:type="star"
         style="fill:url(#linearGradient1818);fill-opacity:1;stroke:#000000;stroke-width:0.373216;stroke-linecap:round;stroke-linejoin:miter;stroke-dasharray:none"
         id="path1787"
         inkscape:flatsided="false"
         sodipodi:sides="5"
         sodipodi:cx="19.374998"
         sodipodi:cy="3.6562498"
         sodipodi:r1="6.2194562"
         sodipodi:r2="2.3633935"
         sodipodi:arg1="0.94236945"
         sodipodi:arg2="1.570688"
         inkscape:rounded="0"
         inkscape:randomized="0"
         d="m 23.031248,8.6874994 -3.655994,-2.6678561 -3.655415,2.6686483 1.407517,-4.3014696 -3.66762,-2.651849 4.525887,0.0094 1.388701,-4.3075811 1.389635,4.3072801 4.525885,-0.010382 -3.667046,2.6526438 z"
         inkscape:transform-center-x="0.00011167938"
         inkscape:transform-center-y="-0.31815738"
         transform="matrix(0.53588261,0,0,0.53588261,12.117416,5.2465283)" />
    </g>
  </g>
  <g
     inkscape:groupmode="layer"
     id="layer2"
     inkscape:label="Layer 1#1"
     style="display:inline" />
</svg>
