<?xml version="1.0" encoding="UTF-8" standalone="no"?>
<svg
   height="45"
   width="45"
   version="1.1"
   id="svg3326"
   sodipodi:docname="b+J.svg"
   inkscape:version="1.2.2 (732a01da63, 2022-12-09)"
   xmlns:inkscape="http://www.inkscape.org/namespaces/inkscape"
   xmlns:sodipodi="http://sodipodi.sourceforge.net/DTD/sodipodi-0.dtd"
   xmlns:xlink="http://www.w3.org/1999/xlink"
   xmlns="http://www.w3.org/2000/svg"
   xmlns:svg="http://www.w3.org/2000/svg">
  <defs
     id="defs3330">
    <linearGradient
       inkscape:collect="always"
       xlink:href="#linearGradient1816"
       id="linearGradient1818"
       x1="11.910074"
       y1="2.9070051"
       x2="26.839396"
       y2="2.9070051"
       gradientUnits="userSpaceOnUse" />
    <linearGradient
       inkscape:collect="always"
       id="linearGradient1816">
      <stop
         style="stop-color:#ffffff;stop-opacity:1;"
         offset="0.40000001"
         id="stop1812" />
      <stop
         style="stop-color:#b4b4b4;stop-opacity:1;"
         offset="1"
         id="stop1814" />
    </linearGradient>
  </defs>
  <sodipodi:namedview
     id="namedview3328"
     pagecolor="#ffffff"
     bordercolor="#000000"
     borderopacity="0.25"
     inkscape:showpageshadow="2"
     inkscape:pageopacity="0.0"
     inkscape:pagecheckerboard="0"
     inkscape:deskcolor="#d1d1d1"
     showgrid="false"
     inkscape:zoom="12.85363"
     inkscape:cx="16.648993"
     inkscape:cy="25.556983"
     inkscape:window-width="1920"
     inkscape:window-height="1001"
     inkscape:window-x="-9"
     inkscape:window-y="-9"
     inkscape:window-maximized="1"
     inkscape:current-layer="svg3326" />
  <g
     style="fill:none;fill-rule:evenodd;stroke:#000;stroke-width:1.5;stroke-linecap:round;stroke-linejoin:round"
     transform="translate(2.919893 1.955062)"
     id="g3324">
    <path
       d="m22 10c3.771958.359234 6.156703-.3401748 8.674501 1.93852 4.490996 4.064508 5.592991 13.605397 5.272608 27.06148h-17.572714c0-9 3.027836-3.37898 4.107172-16.852535"
       fill="#000"
       id="path3318" />
    <path
       d="m26.597769 19.805621c.38 2.91-9.236478 2.764839-12.204911 5.431706-3.000001 2-1.166857 3.212658-7.2811069 3.222351-1.042-.94 4.1709069-2.331984 2.7609068-2.291984-.975052.06237-2.0382139 1.438989-3.4498473 1.654887-1.2566113.07332-3.2632287.03079-3.2616143-2.65989 1.952783-2.070407 3.5008423-3.227932 4.7875576-4.830367 1.309465-1.630767 1.6005128-3.819089 2.3404171-5.3013.757549-1.51756.138637-2.759527 4.535111-4.396968-.629853-1.2740137-2.189657-2.3241721-2.442212-3.054356-.446232-1.2901438-.418162-2.5613046-2.867641-4.5366992 9.600832 1.9060903 7.743408 3.8452771 8.333496 7.1125292l2-.31106c-.06246-.5621845 6.585706-6.9997567 9.601641-7.0229366-.934064 4.0410724-2.476271 6.6593574-6.516386 7.2821536"
       fill="#000"
       id="path3320" />
    <path
       d="m6.883154 24.99075c-.038764.665538-1.0370718.607392-.998308-.05815.038764-.66554 1.0370719-.607393.998308.05815zm6.679771-7.111648c-1.102592 1.684503-1.945492 1.130102-.835462-.549508 1.102592-1.684503 1.945492-1.130102.835462.549508z"
       fill="#fff"
       stroke="#fff"
       id="path3322" />
  </g>
  <g
     id="g1822"
     transform="matrix(1.3636364,0,0,1.3636364,6.8365184,22.335769)">
    <path
       style="display:inline;fill:#ffdd55;stroke:#000000;stroke-linecap:round;stroke-linejoin:miter"
       d="m 17.5,0.5 h 10 v 15 l -5,-4.483 -5,4.483 z"
       id="path349"
       sodipodi:nodetypes="cccccc" />
    <path
       sodipodi:type="star"
       style="fill:url(#linearGradient1818);fill-opacity:1;stroke:#000000;stroke-width:0.373216;stroke-linecap:round;stroke-linejoin:miter;stroke-dasharray:none"
       id="path1787"
       inkscape:flatsided="false"
       sodipodi:sides="5"
       sodipodi:cx="19.374998"
       sodipodi:cy="3.6562498"
       sodipodi:r1="6.2194562"
       sodipodi:r2="2.3633935"
       sodipodi:arg1="0.94236945"
       sodipodi:arg2="1.570688"
       inkscape:rounded="0"
       inkscape:randomized="0"
       d="m 23.031248,8.6874994 -3.655994,-2.6678561 -3.655415,2.6686483 1.407517,-4.3014696 -3.66762,-2.651849 4.525887,0.0094 1.388701,-4.3075811 1.389635,4.3072801 4.525885,-0.010382 -3.667046,2.6526438 z"
       inkscape:transform-center-x="0.00011167938"
       inkscape:transform-center-y="-0.31815738"
       transform="matrix(0.53588261,0,0,0.53588261,12.117416,5.2465283)" />
  </g>
</svg>
