<?xml version="1.0" encoding="UTF-8" standalone="no"?>
<svg
   height="45"
   width="45"
   version="1.1"
   id="svg4250"
   sodipodi:docname="b+O.svg"
   inkscape:version="1.2.2 (732a01da63, 2022-12-09)"
   xmlns:inkscape="http://www.inkscape.org/namespaces/inkscape"
   xmlns:sodipodi="http://sodipodi.sourceforge.net/DTD/sodipodi-0.dtd"
   xmlns:xlink="http://www.w3.org/1999/xlink"
   xmlns="http://www.w3.org/2000/svg"
   xmlns:svg="http://www.w3.org/2000/svg">
  <defs
     id="defs4254">
    <linearGradient
       inkscape:collect="always"
       xlink:href="#linearGradient1816"
       id="linearGradient1818"
       x1="11.910074"
       y1="2.9070051"
       x2="26.839396"
       y2="2.9070051"
       gradientUnits="userSpaceOnUse" />
    <linearGradient
       inkscape:collect="always"
       id="linearGradient1816">
      <stop
         style="stop-color:#ffffff;stop-opacity:1;"
         offset="0.40000001"
         id="stop1812" />
      <stop
         style="stop-color:#b4b4b4;stop-opacity:1;"
         offset="1"
         id="stop1814" />
    </linearGradient>
  </defs>
  <sodipodi:namedview
     id="namedview4252"
     pagecolor="#ffffff"
     bordercolor="#000000"
     borderopacity="0.25"
     inkscape:showpageshadow="2"
     inkscape:pageopacity="0.0"
     inkscape:pagecheckerboard="0"
     inkscape:deskcolor="#d1d1d1"
     showgrid="false"
     inkscape:zoom="12.85363"
     inkscape:cx="41.389086"
     inkscape:cy="37.460235"
     inkscape:window-width="1920"
     inkscape:window-height="1001"
     inkscape:window-x="-9"
     inkscape:window-y="-9"
     inkscape:window-maximized="1"
     inkscape:current-layer="svg4250" />
  <g
     stroke="#000"
     stroke-linecap="round"
     stroke-width="1.5"
     id="g4248">
    <g
       fill="#000"
       fill-rule="evenodd"
       stroke-linejoin="round"
       transform="translate(.225074)"
       id="g4240">
      <path
         d="m36.300096 20.720234c-4.156452 3.832536-8.339226 11.954147 2.581241 18.279766h-12.37212c-8.672092-7.946658-.0036-17.774781 2.739104-20.802572 4.233107-4.673165-3.312484-8.033668-8.075738-3.914518-4.199047 3.631238-3.652667 8.099049-8.17909 11.209255-.678841.466447-4.0337234 2.542548-4.9909374 2.212377-3.56261-.824863-.1162067-3.853315-1.0789029-7.205514-1.7388496-7.191857 7.1559383-8.774722 8.2566323-11.3788383 10.135428-10.3219239 36.671214-2.739421 21.119811 11.6000443z"
         id="path4236" />
      <path
         d="m9.8471107 17.232625c1.0027803-1.745764 1.8764903-1.241312.8660003.5-1.0027803 1.745764-1.87649 1.241312-.8660003-.5z"
         stroke="#fff"
         id="path4238" />
    </g>
    <g
       fill="none"
       transform="matrix(.9005611 .43472946 -.43472946 .9005611 10.60124954728 -5.73970047408)"
       id="g4246">
      <path
         d="m12.401607 31.150466-.593278 4.244415-1.8448849 1.675248"
         stroke-linejoin="round"
         id="path4242" />
      <path
         d="m11.808329 35.394881.59284 2.075258"
         id="path4244" />
    </g>
  </g>
  <g
     id="g1822"
     transform="matrix(1.3636364,0,0,1.3636364,6.7699739,22.352945)">
    <path
       style="display:inline;fill:#ffdd55;stroke:#000000;stroke-linecap:round;stroke-linejoin:miter"
       d="m 17.5,0.5 h 10 v 15 l -5,-4.483 -5,4.483 z"
       id="path349"
       sodipodi:nodetypes="cccccc" />
    <path
       sodipodi:type="star"
       style="fill:url(#linearGradient1818);fill-opacity:1;stroke:#000000;stroke-width:0.373216;stroke-linecap:round;stroke-linejoin:miter;stroke-dasharray:none"
       id="path1787"
       inkscape:flatsided="false"
       sodipodi:sides="5"
       sodipodi:cx="19.374998"
       sodipodi:cy="3.6562498"
       sodipodi:r1="6.2194562"
       sodipodi:r2="2.3633935"
       sodipodi:arg1="0.94236945"
       sodipodi:arg2="1.570688"
       inkscape:rounded="0"
       inkscape:randomized="0"
       d="m 23.031248,8.6874994 -3.655994,-2.6678561 -3.655415,2.6686483 1.407517,-4.3014696 -3.66762,-2.651849 4.525887,0.0094 1.388701,-4.3075811 1.389635,4.3072801 4.525885,-0.010382 -3.667046,2.6526438 z"
       inkscape:transform-center-x="0.00011167938"
       inkscape:transform-center-y="-0.31815738"
       transform="matrix(0.53588261,0,0,0.53588261,12.117416,5.2465283)" />
  </g>
</svg>
