<?xml version="1.0" encoding="UTF-8" standalone="no"?>
<svg
   version="1.1"
   width="45"
   height="45"
   id="svg4651"
   sodipodi:docname="b+Q.svg"
   inkscape:version="1.2.2 (732a01da63, 2022-12-09)"
   xmlns:inkscape="http://www.inkscape.org/namespaces/inkscape"
   xmlns:sodipodi="http://sodipodi.sourceforge.net/DTD/sodipodi-0.dtd"
   xmlns:xlink="http://www.w3.org/1999/xlink"
   xmlns="http://www.w3.org/2000/svg"
   xmlns:svg="http://www.w3.org/2000/svg">
  <defs
     id="defs4655">
    <linearGradient
       inkscape:collect="always"
       xlink:href="#linearGradient1816"
       id="linearGradient1818"
       x1="11.910074"
       y1="2.9070051"
       x2="26.839396"
       y2="2.9070051"
       gradientUnits="userSpaceOnUse" />
    <linearGradient
       inkscape:collect="always"
       id="linearGradient1816">
      <stop
         style="stop-color:#ffffff;stop-opacity:1;"
         offset="0.40000001"
         id="stop1812" />
      <stop
         style="stop-color:#b4b4b4;stop-opacity:1;"
         offset="1"
         id="stop1814" />
    </linearGradient>
  </defs>
  <sodipodi:namedview
     id="namedview4653"
     pagecolor="#ffffff"
     bordercolor="#000000"
     borderopacity="0.25"
     inkscape:showpageshadow="2"
     inkscape:pageopacity="0.0"
     inkscape:pagecheckerboard="0"
     inkscape:deskcolor="#d1d1d1"
     showgrid="false"
     inkscape:zoom="18.177778"
     inkscape:cx="21.179707"
     inkscape:cy="26.928484"
     inkscape:window-width="1920"
     inkscape:window-height="1001"
     inkscape:window-x="-9"
     inkscape:window-y="-9"
     inkscape:window-maximized="1"
     inkscape:current-layer="svg4651" />
  <g
     style="fill:#000000;stroke:#000000;stroke-width:1.5; stroke-linecap:round;stroke-linejoin:round"
     id="g4649">
    <path
       d="M 9,26 C 17.5,24.5 30,24.5 36,26 L 38.5,13.5 L 31,25 L 30.7,10.9 L 25.5,24.5 L 22.5,10 L 19.5,24.5 L 14.3,10.9 L 14,25 L 6.5,13.5 L 9,26 z"
       style="stroke-linecap:butt;fill:#000000"
       id="path4619" />
    <path
       d="m 9,26 c 0,2 1.5,2 2.5,4 1,1.5 1,1 0.5,3.5 -1.5,1 -1,2.5 -1,2.5 -1.5,1.5 0,2.5 0,2.5 6.5,1 16.5,1 23,0 0,0 1.5,-1 0,-2.5 0,0 0.5,-1.5 -1,-2.5 -0.5,-2.5 -0.5,-2 0.5,-3.5 1,-2 2.5,-2 2.5,-4 -8.5,-1.5 -18.5,-1.5 -27,0 z"
       id="path4621" />
    <path
       d="M 11.5,30 C 15,29 30,29 33.5,30"
       id="path4623" />
    <path
       d="m 12,33.5 c 6,-1 15,-1 21,0"
       id="path4625" />
    <circle
       cx="6"
       cy="12"
       r="2"
       id="circle4627" />
    <circle
       cx="14"
       cy="9"
       r="2"
       id="circle4629" />
    <circle
       cx="22.5"
       cy="8"
       r="2"
       id="circle4631" />
    <circle
       cx="31"
       cy="9"
       r="2"
       id="circle4633" />
    <circle
       cx="39"
       cy="12"
       r="2"
       id="circle4635" />
    <path
       d="M 11,38.5 A 35,35 1 0 0 34,38.5"
       style="fill:none; stroke:#000000;stroke-linecap:butt;"
       id="path4637" />
    <g
       style="fill:none; stroke:#ffffff;"
       id="g4647">
      <path
         d="M 11,29 A 35,35 1 0 1 34,29"
         id="path4639" />
      <path
         d="M 12.5,31.5 L 32.5,31.5"
         id="path4641" />
      <path
         d="M 11.5,34.5 A 35,35 1 0 0 33.5,34.5"
         id="path4643" />
      <path
         d="M 10.5,37.5 A 35,35 1 0 0 34.5,37.5"
         id="path4645" />
    </g>
  </g>
  <g
     id="g1822"
     transform="matrix(1.3636364,0,0,1.3636364,6.7815061,22.390781)">
    <path
       style="display:inline;fill:#ffdd55;stroke:#000000;stroke-linecap:round;stroke-linejoin:miter"
       d="m 17.5,0.5 h 10 v 15 l -5,-4.483 -5,4.483 z"
       id="path349"
       sodipodi:nodetypes="cccccc" />
    <path
       sodipodi:type="star"
       style="fill:url(#linearGradient1818);fill-opacity:1;stroke:#000000;stroke-width:0.373216;stroke-linecap:round;stroke-linejoin:miter;stroke-dasharray:none"
       id="path1787"
       inkscape:flatsided="false"
       sodipodi:sides="5"
       sodipodi:cx="19.374998"
       sodipodi:cy="3.6562498"
       sodipodi:r1="6.2194562"
       sodipodi:r2="2.3633935"
       sodipodi:arg1="0.94236945"
       sodipodi:arg2="1.570688"
       inkscape:rounded="0"
       inkscape:randomized="0"
       d="m 23.031248,8.6874994 -3.655994,-2.6678561 -3.655415,2.6686483 1.407517,-4.3014696 -3.66762,-2.651849 4.525887,0.0094 1.388701,-4.3075811 1.389635,4.3072801 4.525885,-0.010382 -3.667046,2.6526438 z"
       inkscape:transform-center-x="0.00011167938"
       inkscape:transform-center-y="-0.31815738"
       transform="matrix(0.53588261,0,0,0.53588261,12.117416,5.2465283)" />
  </g>
</svg>
