<?xml version="1.0" encoding="UTF-8" standalone="no"?>
<!-- Created with Inkscape (http://www.inkscape.org/) -->

<svg
   height="45.2"
   width="45.2"
   version="1.0"
   id="svg5057"
   sodipodi:docname="b+S.svg"
   inkscape:version="1.2.2 (732a01da63, 2022-12-09)"
   xmlns:inkscape="http://www.inkscape.org/namespaces/inkscape"
   xmlns:sodipodi="http://sodipodi.sourceforge.net/DTD/sodipodi-0.dtd"
   xmlns:xlink="http://www.w3.org/1999/xlink"
   xmlns="http://www.w3.org/2000/svg"
   xmlns:svg="http://www.w3.org/2000/svg"
   xmlns:rdf="http://www.w3.org/1999/02/22-rdf-syntax-ns#"
   xmlns:cc="http://creativecommons.org/ns#"
   xmlns:dc="http://purl.org/dc/elements/1.1/">
  <sodipodi:namedview
     id="namedview5059"
     pagecolor="#ffffff"
     bordercolor="#000000"
     borderopacity="0.25"
     inkscape:showpageshadow="2"
     inkscape:pageopacity="0.0"
     inkscape:pagecheckerboard="0"
     inkscape:deskcolor="#d1d1d1"
     showgrid="false"
     inkscape:zoom="18.097345"
     inkscape:cx="21.273839"
     inkscape:cy="27.048167"
     inkscape:window-width="1920"
     inkscape:window-height="1001"
     inkscape:window-x="-9"
     inkscape:window-y="-9"
     inkscape:window-maximized="1"
     inkscape:current-layer="svg5057" />
  <defs
     id="defs5035">
    <linearGradient
       inkscape:collect="always"
       xlink:href="#linearGradient1816"
       id="linearGradient1818"
       x1="11.910074"
       y1="2.9070051"
       x2="26.839396"
       y2="2.9070051"
       gradientUnits="userSpaceOnUse" />
    <linearGradient
       inkscape:collect="always"
       id="linearGradient1816">
      <stop
         style="stop-color:#ffffff;stop-opacity:1;"
         offset="0.40000001"
         id="stop1812" />
      <stop
         style="stop-color:#b4b4b4;stop-opacity:1;"
         offset="1"
         id="stop1814" />
    </linearGradient>
  </defs>
  <metadata
     id="metadata5037">
    <rdf:RDF>
      <cc:Work
         rdf:about="">
        <dc:format>image/svg+xml</dc:format>
        <dc:type
           rdf:resource="http://purl.org/dc/dcmitype/StillImage" />
      </cc:Work>
    </rdf:RDF>
  </metadata>
  <g
     transform="translate(113.16893,87.666093)"
     id="g5055">
    <path
       stroke-linejoin="miter"
       d="M-88.18-79.46v19.17"
       stroke-dashoffset="0"
       stroke="#000000"
       stroke-linecap="round"
       stroke-miterlimit="4"
       stroke-dasharray="none"
       stroke-width="3"
       fill="none"
       id="path5039" />
    <path
       stroke-linejoin="miter"
       d="M-105.6-62.46l17.42-17.07,14.85,17.67"
       stroke-dashoffset="0"
       stroke="#000000"
       stroke-linecap="round"
       stroke-miterlimit="4"
       stroke-dasharray="none"
       stroke-width="0.79999995"
       fill="none"
       id="path5041" />
    <path
       stroke-linejoin="miter"
       d="m-88.14-79.46,0,19.17"
       stroke-dashoffset="0"
       stroke="#ffffff"
       stroke-linecap="round"
       stroke-miterlimit="4"
       stroke-dasharray="none"
       stroke-width="1.49999976"
       fill="none"
       id="path5043" />
    <path
       stroke-linejoin="miter"
       d="M-104.8-55.15l28.13,0.06s0.69-0.21,0.75-0.25c5.43-4.26,5.03-8.54,5.03-8.54l-5.09,4.04h-23.33l-0.89-2.38h-10.7v2.38h3.9l2,4.62"
       fill-rule="nonzero"
       stroke-dashoffset="0"
       stroke="#000000"
       stroke-linecap="round"
       stroke-miterlimit="4"
       stroke-dasharray="none"
       stroke-width="1.49999988000000010"
       fill="#ffffff"
       id="path5045" />
    <path
       stroke-linejoin="miter"
       d="M-78.78-63.22s2.03-6.63-1.78-12.54h-0.07-17.56-0.2c3.81,5.91,1.87,12.49,2.01,12.54h0.83,16.77z"
       fill-rule="nonzero"
       stroke-dashoffset="0"
       stroke="#000000"
       stroke-linecap="round"
       stroke-miterlimit="4"
       stroke-dasharray="none"
       stroke-width="1.50000000000000000"
       fill="#ffffff"
       id="path5047" />
    <path
       stroke-linejoin="miter"
       d="M-78.78-63.22s2.03-6.63-1.78-12.54h-0.07-17.56-0.2c3.81,5.91,1.87,12.49,2.01,12.54h0.83,16.77z"
       fill-rule="nonzero"
       stroke-dashoffset="0"
       stroke="#000000"
       stroke-linecap="round"
       stroke-miterlimit="4"
       stroke-dasharray="none"
       stroke-width="1.50000000000000000"
       fill="#000000"
       id="path5049" />
    <path
       stroke-linejoin="miter"
       d="m-79.54-64.1s1.755-5.7-1.534-10.78h-0.06206-15.68-0.1688c3.29,5.077,1.614,10.73,1.734,10.78l0.7229-0.0058z"
       fill-rule="nonzero"
       stroke-dashoffset="0"
       stroke="#ffffff"
       stroke-linecap="round"
       stroke-miterlimit="4"
       stroke-dasharray="none"
       stroke-width="1"
       fill="#000000"
       id="path5051" />
    <path
       stroke-linejoin="miter"
       d="m-72.19-61.66-3.219,2.531a0.9245,0.9245,0,0,1,-0.5625,0.2188h-23.34a0.9245,0.9245,0,0,1,-0.875,-0.625l-0.625-1.75h-9.188v0.5h3a0.9245,0.9245,0,0,1,0.8438,0.5625l1.812,4.125,27.59,0.0625c0.06325-0.01917,0.07096-0.03558,0.1562-0.0625,0.07526-0.02375,0.163-0.04342,0.2188-0.0625,2.5-1.998,3.641-3.953,4.156-5.375,0.02938-0.08109,0.0056-0.04786,0.03125-0.125z"
       fill-rule="nonzero"
       stroke-dashoffset="0"
       stroke="#ffffff"
       stroke-linecap="round"
       stroke-miterlimit="4"
       stroke-width="1"
       fill="#000000"
       id="path5053" />
  </g>
  <g
     id="g1822"
     transform="matrix(1.3636364,0,0,1.3636364,6.9480104,22.540659)">
    <path
       style="display:inline;fill:#ffdd55;stroke:#000000;stroke-linecap:round;stroke-linejoin:miter"
       d="m 17.5,0.5 h 10 v 15 l -5,-4.483 -5,4.483 z"
       id="path349"
       sodipodi:nodetypes="cccccc" />
    <path
       sodipodi:type="star"
       style="fill:url(#linearGradient1818);fill-opacity:1;stroke:#000000;stroke-width:0.373216;stroke-linecap:round;stroke-linejoin:miter;stroke-dasharray:none"
       id="path1787"
       inkscape:flatsided="false"
       sodipodi:sides="5"
       sodipodi:cx="19.374998"
       sodipodi:cy="3.6562498"
       sodipodi:r1="6.2194562"
       sodipodi:r2="2.3633935"
       sodipodi:arg1="0.94236945"
       sodipodi:arg2="1.570688"
       inkscape:rounded="0"
       inkscape:randomized="0"
       d="m 23.031248,8.6874994 -3.655994,-2.6678561 -3.655415,2.6686483 1.407517,-4.3014696 -3.66762,-2.651849 4.525887,0.0094 1.388701,-4.3075811 1.389635,4.3072801 4.525885,-0.010382 -3.667046,2.6526438 z"
       inkscape:transform-center-x="0.00011167938"
       inkscape:transform-center-y="-0.31815738"
       transform="matrix(0.53588261,0,0,0.53588261,12.117416,5.2465283)" />
  </g>
</svg>
