<?xml version="1.0" encoding="UTF-8" standalone="no"?>
<!-- Generator: Adobe Illustrator 28.3.0, SVG Export Plug-In . SVG Version: 6.00 Build 0)  -->

<svg
   version="1.1"
   id="Capa_1"
   x="0px"
   y="0px"
   viewBox="0 0 45 45"
   xml:space="preserve"
   sodipodi:docname="bD.svg"
   width="45"
   height="45"
   inkscape:version="1.2.2 (732a01da63, 2022-12-09)"
   xmlns:inkscape="http://www.inkscape.org/namespaces/inkscape"
   xmlns:sodipodi="http://sodipodi.sourceforge.net/DTD/sodipodi-0.dtd"
   xmlns="http://www.w3.org/2000/svg"
   xmlns:svg="http://www.w3.org/2000/svg"><defs
   id="defs21" /><sodipodi:namedview
   id="namedview19"
   pagecolor="#ffffff"
   bordercolor="#000000"
   borderopacity="0.25"
   inkscape:showpageshadow="2"
   inkscape:pageopacity="0.0"
   inkscape:pagecheckerboard="0"
   inkscape:deskcolor="#d1d1d1"
   showgrid="false"
   inkscape:zoom="10.554839"
   inkscape:cx="50.02445"
   inkscape:cy="33.870721"
   inkscape:window-width="1920"
   inkscape:window-height="1001"
   inkscape:window-x="-9"
   inkscape:window-y="-9"
   inkscape:window-maximized="1"
   inkscape:current-layer="Capa_1" />
<style
   type="text/css"
   id="style2">
	.st0{fill:#FFFFFF;}
</style>

<g
   id="g443"
   transform="matrix(0.06454804,0,0,0.06454804,2.2563417,2.4469321)"><g
     transform="matrix(0.1,0,0,-0.1,0,620)"
     id="g10">
	<path
   d="m 4432,5784 c -24,-48 -67,-116 -96,-153 -71,-88 -243,-253 -336,-322 -73,-54 -345,-229 -356,-229 -3,0 -20,-11 -37,-24 -18,-14 -58,-38 -90,-55 -75,-39 -102,-59 -94,-67 7,-7 138,27 192,51 17,7 50,18 75,25 47,14 213,78 290,112 154,69 267,132 313,176 51,49 114,158 149,257 40,113 71,271 58,296 -6,10 -14,19 -18,19 -4,0 -27,-39 -50,-86 z"
   id="path4" />
	<path
   d="m 5148,5592 c -127,-104 -227,-174 -328,-232 -41,-23 -88,-50 -105,-60 -119,-67 -277,-150 -289,-150 -3,0 -47,-20 -98,-44 -273,-129 -706,-276 -933,-316 -291,-52 -472,-116 -608,-214 -34,-24 -125,-109 -202,-188 -106,-108 -160,-155 -218,-190 -74,-43 -83,-46 -194,-58 -92,-10 -133,-10 -198,-1 -69,11 -90,10 -133,-2 -69,-21 -89,-32 -150,-88 -98,-90 -157,-177 -212,-314 -18,-44 -38,-93 -45,-110 -33,-80 -57,-164 -52,-179 12,-29 84,-24 532,39 204,29 492,61 812,90 94,9 147,-30 136,-99 -8,-54 -57,-147 -101,-190 -34,-34 -174,-136 -187,-136 -3,0 -34,-13 -68,-29 -34,-16 -116,-50 -182,-75 -66,-26 -174,-69 -240,-96 -66,-26 -149,-60 -185,-73 -160,-63 -210,-93 -210,-126 0,-9 12,-34 28,-56 15,-21 52,-89 82,-149 40,-81 60,-112 75,-114 14,-2 48,24 105,80 100,97 192,152 355,215 350,133 788,174 1044,97 172,-52 241,-128 241,-264 0,-87 -24,-210 -53,-273 -53,-117 -190,-207 -383,-252 -60,-15 -145,-37 -189,-49 -44,-13 -121,-31 -172,-40 -273,-48 -529,-178 -686,-346 -95,-103 -155,-193 -218,-325 -47,-100 -59,-134 -99,-290 -45,-177 -88,-560 -66,-583 10,-9 3753,-9 3789,1 l 27,7 v 195 c 0,216 5,205 -71,181 -201,-63 -309,-85 -474,-95 -193,-13 -293,-1 -411,50 -55,23 -115,52 -134,64 -19,12 -61,36 -92,54 l -57,32 -26,-28 c -14,-15 -40,-55 -56,-88 -39,-78 -81,-120 -134,-135 -66,-18 -84,5 -46,58 28,40 97,190 114,247 11,40 12,57 2,85 -6,19 -19,36 -27,38 -24,5 -85,-54 -145,-140 -30,-42 -86,-106 -124,-142 -57,-53 -78,-66 -114,-72 -75,-11 -81,6 -35,95 29,59 57,146 87,271 11,45 16,117 16,235 1,170 1,170 -35,270 -20,55 -45,122 -57,148 -45,102 -23,95 182,-60 50,-38 184,-107 247,-127 167,-53 316,-64 450,-32 127,31 130,31 130,9 0,-58 -130,-166 -285,-238 -89,-41 -145,-79 -145,-99 0,-17 40,-52 67,-58 12,-3 61,2 110,12 48,10 129,20 178,22 l 90,3 3,-26 c 2,-14 -3,-31 -11,-38 -8,-6 -62,-18 -120,-26 -61,-7 -116,-20 -131,-30 l -26,-17 21,-29 c 45,-63 203,-119 335,-119 82,0 276,28 376,54 50,14 222,89 316,139 l 32,18 v 452 c 0,488 -10,736 -36,917 -20,141 -31,173 -94,276 -28,45 -50,84 -50,88 0,12 48,6 110,-14 82,-26 134,-26 161,1 17,17 19,28 14,67 -4,26 -11,61 -16,77 -44,151 -72,210 -170,356 -74,111 -142,192 -246,294 -46,45 -83,89 -83,98 0,24 86,32 140,13 58,-20 149,-21 156,-2 11,28 -35,102 -109,177 -118,117 -256,214 -444,310 -92,47 -169,92 -171,100 -4,23 105,38 234,32 95,-5 113,-3 127,12 16,16 16,18 0,46 -41,70 -269,187 -498,255 -46,14 -87,18 -173,16 -136,-4 -141,5 -36,58 38,19 81,42 94,51 14,9 59,35 100,59 265,155 448,349 637,674 64,110 82,168 53,172 -8,2 -63,-36 -122,-84 z M 3216,4426 c 9,-22 -32,-92 -73,-125 -263,-211 -291,-226 -359,-187 -55,31 -65,84 -28,158 30,59 240,138 447,167 4,1 10,-5 13,-13 z"
   id="path6" />
	<path
   d="m 2565,3459 c -22,-4 -64,-8 -93,-8 -92,-1 -324,-46 -445,-85 -128,-42 -286,-133 -502,-289 -257,-186 -333,-231 -466,-276 -122,-40 -175,-47 -262,-31 -141,24 -190,45 -249,108 -39,41 -60,73 -73,112 -20,62 -41,100 -55,100 -6,0 -10,-36 -10,-84 0,-75 3,-90 35,-154 100,-200 365,-274 650,-182 101,32 229,88 275,121 14,9 79,52 145,95 66,42 156,101 200,129 222,145 327,181 660,225 103,14 198,36 235,55 43,22 79,66 91,108 9,36 8,43 -7,54 -20,14 -67,15 -129,2 z"
   id="path8" />
</g><g
     transform="matrix(0.1,0,0,-0.1,0,620)"
     id="g16">
	<path
   class="st0"
   d="m 3101,4429 c -70,-9 -187,-47 -259,-83 -86,-44 -122,-106 -106,-183 4,-23 16,-35 48,-50 61,-30 110,-15 206,64 41,34 100,81 130,105 63,50 100,100 100,134 0,27 -7,28 -119,13 z"
   id="path12" />
	<path
   class="st0"
   d="m 3724,1796 c -3,-8 6,-39 20,-69 15,-30 40,-94 58,-143 28,-79 32,-104 36,-224 7,-207 -26,-379 -104,-549 -39,-84 -37,-111 5,-111 74,0 182,86 275,219 61,88 111,141 132,141 7,0 21,-14 30,-32 22,-43 14,-74 -67,-240 -23,-49 -48,-93 -55,-99 -22,-18 -17,-49 10,-59 54,-20 131,31 176,117 43,83 74,123 95,123 11,0 52,-18 90,-40 67,-38 117,-63 232,-116 128,-58 455,-46 703,25 36,11 98,29 138,40 l 72,22 v 144 c 0,80 -2,145 -4,145 -2,0 -64,-29 -139,-65 -146,-71 -224,-94 -390,-119 -126,-19 -245,-21 -319,-5 -112,24 -224,95 -204,128 10,16 65,30 154,40 90,10 122,27 122,66 0,40 -21,47 -112,40 -46,-4 -127,-16 -181,-26 -100,-20 -116,-18 -151,16 -30,30 -19,40 137,117 149,73 250,154 278,220 19,47 3,53 -92,29 -148,-36 -238,-37 -409,-2 -96,20 -236,84 -319,146 -185,138 -206,150 -217,121 z"
   id="path14" />
</g></g>
</svg>
