<?xml version="1.0" encoding="UTF-8" standalone="no"?>
<svg
   viewBox="0 0 45 45"
   version="1.1"
   id="svg5"
   sodipodi:docname="bH.svg"
   inkscape:version="1.2.2 (732a01da63, 2022-12-09)"
   width="45"
   height="45"
   xmlns:inkscape="http://www.inkscape.org/namespaces/inkscape"
   xmlns:sodipodi="http://sodipodi.sourceforge.net/DTD/sodipodi-0.dtd"
   xmlns="http://www.w3.org/2000/svg"
   xmlns:svg="http://www.w3.org/2000/svg"
   xmlns:rdf="http://www.w3.org/1999/02/22-rdf-syntax-ns#"
   xmlns:cc="http://creativecommons.org/ns#"
   xmlns:dc="http://purl.org/dc/elements/1.1/">
  <defs
     id="defs9" />
  <sodipodi:namedview
     pagecolor="#ffffff"
     bordercolor="#666666"
     borderopacity="1"
     objecttolerance="10"
     gridtolerance="10"
     guidetolerance="10"
     inkscape:pageopacity="0"
     inkscape:pageshadow="2"
     inkscape:window-width="1920"
     inkscape:window-height="1001"
     id="namedview7"
     showgrid="false"
     inkscape:zoom="4.72"
     inkscape:cx="20.338983"
     inkscape:cy="25.317797"
     inkscape:window-x="-9"
     inkscape:window-y="-9"
     inkscape:window-maximized="1"
     inkscape:current-layer="svg5"
     inkscape:showpageshadow="2"
     inkscape:pagecheckerboard="0"
     inkscape:deskcolor="#d1d1d1" />
  <path
     d="m 36.88721,6.3576273 c -0.02921,0.00586 -0.05841,0.014638 -0.0849,0.022688 a 0.68058225,0.73334786 0 0 0 -0.530476,0.7318845 c 0,5.2344352 -3.205258,7.9819282 -3.205258,7.9819282 l -0.02106,0.02269 c -0.220069,0.02928 -0.434704,0.07465 -0.637112,0.182971 -0.679224,0.292021 -1.5758,0.806536 -2.525354,1.463768 -0.610622,0.365942 -1.289846,0.818246 -2.037672,1.25884 0,0 -0.06385,-0.0066 -0.06385,0.06807 -0.408894,0.29129 -3.932706,2.052935 -8.27838,3.956565 0.544058,0.512319 1.075211,1.089775 1.549988,1.601362 1.358448,1.537689 1.833225,3.45303 1.358448,5.28274 -0.544059,1.904362 -2.0302,3.425217 -3.863426,3.865812 -0.339611,0.07392 -0.742391,0.15955 -1.082002,0.15955 -1.289847,0 -2.513129,-0.600145 -3.39612,-1.623319 l -0.425185,-0.434744 c 0,0.731884 -0.254031,1.67821 -0.593642,2.630392 0.339611,0.07392 0.543379,0.153695 0.679224,0.228348 0.270331,0.07465 1.342146,0.434739 2.970925,0.434739 2.786176,0 5.243608,-1.454986 7.28128,-3.431073 l -0.616057,-4.25371 c -0.06928,-0.365942 0.212597,-0.800681 0.552209,-0.800681 0.339612,-0.07392 0.742392,0.206391 0.742392,0.572333 l 0.467305,3.293478 a 29.045647,31.297559 0 0 0 2.100841,-2.653811 l 0.531152,0.480847 2.122574,4.985595 a 0.67718613,0.72968844 0 0 0 0.912198,0.343253 c 0,0 0.268293,-0.131739 0.573265,-0.182971 0.30565,-0.05123 0.499229,-0.04025 0.637112,0.137595 a 0.6862655,0.73947175 0 0 0 1.060947,-0.938276 c -0.541341,-0.700413 -1.365919,-0.7575 -1.909977,-0.663087 -0.169806,0.02928 -0.162335,0.0688 -0.2975,0.114174 L 28.949121,26.644723 A 0.69416673,0.74798554 0 0 0 28.75758,26.370266 l -0.721336,-0.61771 a 48.717327,52.494386 0 0 0 1.10374,-1.738224 c 0.609943,1.90363 1.2946,3.087087 2.313436,3.087087 1.289845,0 5.031011,-2.569645 5.031011,-6.449363 0,-1.361304 -0.300218,-2.764326 -0.84903,-3.819703 1.082003,-0.766283 3.518379,-2.864594 4.032552,-6.678443 A 0.68126148,0.73407974 0 0 0 39.479808,9.510584 0.68126148,0.73407974 0 0 0 38.88209,9.307852 0.67514846,0.72749279 0 0 0 38.309505,9.925562 c -0.477495,3.539392 -2.801798,5.291523 -3.523814,5.763588 -0.06588,-0.06001 -0.142636,-0.109051 -0.211917,-0.160283 1.066382,-1.240543 3.056507,-4.110993 3.056507,-8.4166672 A 0.67922381,0.73188409 0 0 0 36.88721,6.3576273 Z M 9.039034,15.209034 a 1.9935218,2.1480798 0 0 0 -1.0820036,0.387899 c -0.8150685,0.586971 -1.1044179,1.686992 -0.764806,2.859471 l 3.2691046,17.496421 c -0.9495553,-0.29129 -2.4486022,-0.373993 -4.3511081,0.503536 -0.3396119,0.145645 -0.4754566,0.59429 -0.3396119,0.960232 0.068602,0.292022 0.3450456,0.434739 0.6153768,0.434739 0.069281,0 0.2037671,-0.0059 0.3396118,0.0688 2.7168953,-1.244203 4.2825064,-0.143449 4.3511074,-0.0688 0.204447,0.146377 0.538625,0.146377 0.743071,0 0.203768,-0.146377 0.345046,-0.440594 0.275766,-0.731884 l -0.615378,-3.156616 c 0,-0.07392 0.06385,-0.06221 0.06385,-0.136862 1.018836,-2.486943 1.095589,-5.269566 0.891143,-7.318841 0.27101,0.365942 0.47274,0.731884 0.74307,1.097826 0.679224,0.951449 1.231433,1.823855 1.910656,2.630391 0.81439,0.95145 1.96024,1.320319 3.183523,1.029029 1.289167,-0.29129 2.504977,-1.469623 2.844589,-2.858739 0.339611,-1.318123 0,-2.699188 -1.018836,-3.797015 -1.76734,-1.975355 -4.279789,-4.179058 -6.452626,-6.08342 -1.018836,-0.952181 -1.96907,-1.835565 -2.716895,-2.493529 -0.594321,-0.548913 -1.2524891,-0.843131 -1.889601,-0.82337 z m 24.176292,4.345196 c 0.54338,0 1.018836,0.512319 1.018836,1.097826 0,0.585507 -0.475456,1.097826 -1.018836,1.097826 -0.543378,0 -1.018836,-0.512319 -1.018836,-1.097826 0,-0.585507 0.475458,-1.097826 1.018836,-1.097826 z M 7.4048215,27.10215 c -0.4088928,0.145645 -0.8218609,0.29129 -1.2314328,0.365943 -0.2037671,0 -0.3314612,0.21371 -0.4666268,0.434007 -0.069281,0.220297 -0.00815,0.512319 0.1276941,0.731884 0.068602,0.07465 0.9549887,1.241275 2.3134363,2.264449 z m 17.7875135,2.470109 c -0.408893,0.439863 -0.801484,0.817515 -1.210377,1.257377 l 0.191541,1.395703 c 0,0.145645 0.07947,0.29129 0.148071,0.365942 l 2.844589,3.659421 c 0.203767,0.291289 0.556964,0.351304 0.827295,0.204927 0.204446,-0.07319 0.939367,-0.359355 1.210377,-0.06807 0.135166,0.146377 0.347083,0.297145 0.551529,0.297145 0.135845,0 0.334179,-0.08563 0.403459,-0.159551 0.270331,-0.292022 0.334178,-0.715051 0.06385,-1.007072 -0.610622,-0.805805 -1.629457,-0.814587 -2.377283,-0.59429 l -2.44113,-3.065131 z"
     id="surface1"
     inkscape:connector-curvature="0"
     style="stroke-width:0.705063" />
  <metadata
     id="metadata3">
    <rdf:RDF>
      <rdf:Description
         about="https://iconscout.com/legal#licenses"
         dc:title="grasshopper,filled"
         dc:description="grasshopper,filled"
         dc:publisher="Iconscout"
         dc:date="2017-12-07"
         dc:format="image/svg+xml"
         dc:language="en">
        <dc:creator>
          <rdf:Bag>
            <rdf:li>Icons8</rdf:li>
          </rdf:Bag>
        </dc:creator>
      </rdf:Description>
      <cc:Work
         rdf:about="">
        <dc:format>image/svg+xml</dc:format>
        <dc:type
           rdf:resource="http://purl.org/dc/dcmitype/StillImage" />
      </cc:Work>
    </rdf:RDF>
  </metadata>
</svg>
