<?xml version="1.0" encoding="UTF-8" standalone="no"?>
<!-- Created with Inkscape (http://www.inkscape.org/) -->
<svg
   xmlns:dc="http://purl.org/dc/elements/1.1/"
   xmlns:cc="http://creativecommons.org/ns#"
   xmlns:rdf="http://www.w3.org/1999/02/22-rdf-syntax-ns#"
   xmlns:svg="http://www.w3.org/2000/svg"
   xmlns="http://www.w3.org/2000/svg"
   xmlns:sodipodi="http://sodipodi.sourceforge.net/DTD/sodipodi-0.dtd"
   xmlns:inkscape="http://www.inkscape.org/namespaces/inkscape"
   width="45"
   height="45"
   id="svg3128"
   sodipodi:version="0.32"
   inkscape:version="0.46"
   version="1.0"
   sodipodi:docbase="/home/cburnett/wikipedia/images/chess"
   sodipodi:docname="Chess_nlt45.svg"
   inkscape:output_extension="org.inkscape.output.svg.inkscape">
  <defs
     id="defs3130">
    <inkscape:perspective
       sodipodi:type="inkscape:persp3d"
       inkscape:vp_x="0 : 22.5 : 1"
       inkscape:vp_y="0 : 1000 : 0"
       inkscape:vp_z="45 : 22.5 : 1"
       inkscape:persp3d-origin="22.5 : 15 : 1"
       id="perspective12" />
  </defs>
  <sodipodi:namedview
     id="base"
     pagecolor="#ffffff"
     bordercolor="#666666"
     borderopacity="1.0"
     gridtolerance="10000"
     guidetolerance="10"
     objecttolerance="10"
     inkscape:pageopacity="0.0"
     inkscape:pageshadow="2"
     inkscape:zoom="11.313709"
     inkscape:cx="31.494013"
     inkscape:cy="17.729642"
     inkscape:document-units="px"
     inkscape:current-layer="layer1"
     height="45px"
     width="45px"
     inkscape:grid-points="true"
     showgrid="true"
     inkscape:window-width="977"
     inkscape:window-height="878"
     inkscape:window-x="66"
     inkscape:window-y="0">
    <inkscape:grid
       id="GridFromPre046Settings"
       type="xygrid"
       originx="0px"
       originy="0px"
       spacingx="0.5px"
       spacingy="0.5px"
       color="#0000ff"
       empcolor="#0000ff"
       opacity="0.2"
       empopacity="0.4"
       empspacing="5" />
  </sodipodi:namedview>
  <metadata
     id="metadata3133">
    <rdf:RDF>
      <cc:Work
         rdf:about="">
        <dc:format>image/svg+xml</dc:format>
        <dc:type
           rdf:resource="http://purl.org/dc/dcmitype/StillImage" />
      </cc:Work>
    </rdf:RDF>
  </metadata>
  <g
     inkscape:label="Layer 1"
     inkscape:groupmode="layer"
     id="layer1">
    <path
       style="fill:#ffffff;fill-opacity:1;fill-rule:evenodd;stroke:#000000;stroke-width:1.5;stroke-linecap:round;stroke-linejoin:miter;stroke-miterlimit:4;stroke-dasharray:none;stroke-opacity:1"
       d="M 22.028958,36 C 11.528958,35 5.5289585,28 6.0289585,7 L 29.028958,7 C 29.028958,16 19.028958,13.5 21.028958,28"
       id="path3491"
       sodipodi:nodetypes="cccc" />
    <path
       style="fill:#ffffff;fill-opacity:1;fill-rule:evenodd;stroke:#000000;stroke-width:1.5;stroke-linecap:round;stroke-linejoin:round;stroke-miterlimit:4;stroke-dasharray:none;stroke-opacity:1"
       d="M 20.028958,28 C 19.644497,25.088722 25.581894,20.631376 28.028958,19 C 31.028958,17 30.848156,14.657108 33.028958,15 C 34.070678,15.944016 31.615529,18.037549 33.028958,18 C 34.028958,18 32.841626,16.768273 34.028958,16 C 35.028958,16 38.032119,15.000001 38.028958,20 C 38.028958,22 32.028958,32 32.028958,32 C 32.028958,32 30.143092,33.902129 30.028958,35.5 C 30.755005,36.494369 30.528958,37.5 30.528958,38.5 C 29.528958,39.5 27.528958,36 27.528958,36 L 25.528958,36 C 25.528958,36 24.747177,37.991926 23.028958,39 C 22.028958,39 22.028958,36 22.028958,36"
       id="path3495"
       sodipodi:nodetypes="csccccccccccc" />
    <path
       sodipodi:type="arc"
       style="opacity:1;fill:#000000;fill-opacity:1;stroke:#000000;stroke-width:1.5;stroke-linecap:round;stroke-linejoin:round;stroke-miterlimit:4;stroke-dasharray:none;stroke-opacity:1"
       id="path3499"
       sodipodi:cx="8.5"
       sodipodi:cy="23.5"
       sodipodi:rx="0.5"
       sodipodi:ry="0.5"
       d="M 9,23.5 A 0.5,0.5 0 1 1 8,23.5 A 0.5,0.5 0 1 1 9,23.5 z"
       transform="matrix(-1,0,0,-1,43.528958,44)" />
    <path
       sodipodi:type="arc"
       style="opacity:1;fill:#000000;fill-opacity:1;stroke:#000000;stroke-width:1.50000048;stroke-linecap:round;stroke-linejoin:round;stroke-miterlimit:4;stroke-dasharray:none;stroke-opacity:1"
       id="path3501"
       sodipodi:cx="14.5"
       sodipodi:cy="15.5"
       sodipodi:rx="0.5"
       sodipodi:ry="1.5"
       d="M 15,15.5 A 0.5,1.5 0 1 1 14,15.5 A 0.5,1.5 0 1 1 15,15.5 z"
       transform="matrix(-0.866025,-0.5,0.5,-0.866025,34.336326,51.173394)" />
    <path
       style="fill:none;fill-opacity:0.75;fill-rule:evenodd;stroke:#000000;stroke-width:1;stroke-linecap:round;stroke-linejoin:miter;stroke-miterlimit:4;stroke-dasharray:none;stroke-opacity:1"
       d="M 7.0289585,7 C 6.0289585,27 12.528958,34.5 19.028958,35.5"
       id="path8049"
       sodipodi:nodetypes="cc" />
  </g>
</svg>
