<?xml version="1.0" encoding="UTF-8" standalone="no"?>
<!-- Created with Inkscape (http://www.inkscape.org/) -->
<svg
   xmlns:dc="http://purl.org/dc/elements/1.1/"
   xmlns:cc="http://creativecommons.org/ns#"
   xmlns:rdf="http://www.w3.org/1999/02/22-rdf-syntax-ns#"
   xmlns:svg="http://www.w3.org/2000/svg"
   xmlns="http://www.w3.org/2000/svg"
   xmlns:sodipodi="http://sodipodi.sourceforge.net/DTD/sodipodi-0.dtd"
   xmlns:inkscape="http://www.inkscape.org/namespaces/inkscape"
   version="1.0"
   width="45"
   height="45"
   id="svg3128"
   sodipodi:version="0.32"
   inkscape:version="0.46"
   sodipodi:docname="Chess_hdd45.svg"
   inkscape:output_extension="org.inkscape.output.svg.inkscape">
  <metadata
     id="metadata8">
    <rdf:RDF>
      <cc:Work
         rdf:about="">
        <dc:format>image/svg+xml</dc:format>
        <dc:type
           rdf:resource="http://purl.org/dc/dcmitype/StillImage" />
      </cc:Work>
    </rdf:RDF>
  </metadata>
  <sodipodi:namedview
     inkscape:window-height="667"
     inkscape:window-width="640"
     inkscape:pageshadow="2"
     inkscape:pageopacity="0.0"
     guidetolerance="10.0"
     gridtolerance="10.0"
     objecttolerance="10.0"
     borderopacity="1.0"
     bordercolor="#666666"
     pagecolor="#ffffff"
     id="base"
     showgrid="false"
     inkscape:zoom="10.266667"
     inkscape:cx="22.5"
     inkscape:cy="22.5"
     inkscape:window-x="88"
     inkscape:window-y="116"
     inkscape:current-layer="svg3128" />
  <defs
     id="defs3130">
    <inkscape:perspective
       sodipodi:type="inkscape:persp3d"
       inkscape:vp_x="0 : 22.5 : 1"
       inkscape:vp_y="0 : 1000 : 0"
       inkscape:vp_z="45 : 22.5 : 1"
       inkscape:persp3d-origin="22.5 : 15 : 1"
       id="perspective10" />
  </defs>
  <g
     id="layer1">
    <path
       d="m 22,39.5 c 2.208,0 4,-1.792 4,-4 0,-0.885103 -0.29397,-1.712226 -0.78125,-2.375 C 27.170726,32.003083 28.5,29.911508 28.5,27.5 28.5,25.466053 27.557958,23.660918 26.09375,22.46875 29.092899,21.41088 33.5,16.921951 33.5,9 l -23,0 c 0,7.921951 4.407101,12.41088 7.40625,13.46875 C 16.442042,23.660918 15.5,25.466052 15.5,27.5 c 0,2.411508 1.329274,4.503083 3.28125,5.625 C 18.29397,33.787774 18,34.614897 18,35.5 c 0,2.208 1.792,4 4,4 z"
       id="path3194"
       style="fill:#000000;fill-opacity:1;fill-rule:nonzero;stroke:#000000;stroke-width:1.5;stroke-linecap:round;stroke-linejoin:miter;stroke-miterlimit:4;stroke-opacity:1;stroke-dasharray:none;stroke-dashoffset:10" />
  </g>
</svg>
