<?xml version="1.0" encoding="UTF-8" standalone="no"?>
<!-- Generator: Adobe Illustrator 28.3.0, SVG Export Plug-In . SVG Version: 6.00 Build 0)  -->

<svg
   version="1.1"
   id="Capa_1"
   x="0px"
   y="0px"
   viewBox="0 0 45 45"
   xml:space="preserve"
   sodipodi:docname="w+D.svg"
   width="45"
   height="45"
   inkscape:version="1.2.2 (732a01da63, 2022-12-09)"
   xmlns:inkscape="http://www.inkscape.org/namespaces/inkscape"
   xmlns:sodipodi="http://sodipodi.sourceforge.net/DTD/sodipodi-0.dtd"
   xmlns:xlink="http://www.w3.org/1999/xlink"
   xmlns="http://www.w3.org/2000/svg"
   xmlns:svg="http://www.w3.org/2000/svg"><defs
   id="defs13"><linearGradient
     inkscape:collect="always"
     xlink:href="#linearGradient1816"
     id="linearGradient1818"
     x1="11.910074"
     y1="2.9070051"
     x2="26.839396"
     y2="2.9070051"
     gradientUnits="userSpaceOnUse" /><linearGradient
     inkscape:collect="always"
     id="linearGradient1816"><stop
       style="stop-color:#ffffff;stop-opacity:1;"
       offset="0.40000001"
       id="stop1812" /><stop
       style="stop-color:#b4b4b4;stop-opacity:1;"
       offset="1"
       id="stop1814" /></linearGradient></defs><sodipodi:namedview
   id="namedview11"
   pagecolor="#ffffff"
   bordercolor="#000000"
   borderopacity="0.25"
   inkscape:showpageshadow="2"
   inkscape:pageopacity="0.0"
   inkscape:pagecheckerboard="0"
   inkscape:deskcolor="#d1d1d1"
   showgrid="false"
   inkscape:zoom="10.554839"
   inkscape:cx="40.929094"
   inkscape:cy="30.933679"
   inkscape:window-width="1920"
   inkscape:window-height="1001"
   inkscape:window-x="-9"
   inkscape:window-y="-9"
   inkscape:window-maximized="1"
   inkscape:current-layer="g1822" />
<style
   type="text/css"
   id="style2">
	.st0{fill:#FFFFFF;}
</style>


<g
   id="g299"
   transform="matrix(0.0646553,0,0,0.0646553,3.5939468,2.425752)"><path
     d="m 427.9,34.2 c -1.5,1.3 -4.7,5.4 -7.2,9.3 -5.6,8.6 -20.1,24.1 -31.6,33.9 -9.6,8.1 -31,23.2 -41.4,29.2 -5.1,2.9 -7.6,5.1 -9.7,8.6 -3.2,5.2 -5.7,6.8 -14.5,9.3 -3.3,0.9 -10.5,3.1 -16,4.9 -10.5,3.5 -18.6,5.6 -21,5.6 -0.7,0 -5.3,1.8 -10,4 -4.7,2.2 -9.1,4 -9.7,4 -3.3,0 -12.1,7 -26.8,21.5 -18.7,18.4 -25.5,24 -30.8,25.5 -2,0.5 -11.1,1 -20.2,1 -19.2,0 -23.6,0.9 -33.6,6.7 -13.7,8.1 -19,13.7 -27.3,29.5 -2,4 -4.6,9.5 -5.6,12.3 -0.9,2.7 -2.3,6.3 -3,8 -0.6,1.6 -1.8,4.6 -2.5,6.5 -0.7,1.9 -1.7,3.9 -2.2,4.4 -1.3,1.6 -0.9,9 0.7,12.9 2.2,5.4 6.1,9.4 10.9,11.2 4.1,1.6 5,1.6 19.7,-0.9 22.4,-3.8 34.5,-3.4 24.6,0.8 -1.8,0.7 -5.2,2.9 -7.7,4.8 -7.8,5.9 -36.8,25.7 -48.3,32.9 -6.1,3.8 -14.5,8.3 -18.6,10.1 -7,2.9 -8.6,3.2 -21.3,3.6 -11.8,0.4 -14.6,0.1 -20.6,-1.7 -5.5,-1.7 -7.7,-2.9 -11,-6.4 -4,-4.4 -7.1,-10.4 -9.4,-17.8 -1.2,-4.2 -3.3,-5.1 -4.3,-1.8 -1.1,3.3 -0.7,15.9 0.6,19.8 3.4,10.3 11.3,18 23.4,22.7 6.8,2.6 28.9,2.6 38.5,0 13.9,-3.8 27.9,-11.1 55.5,-29.1 2.8,-1.7 6.8,-4.3 9,-5.6 2.2,-1.2 5.6,-3.5 7.5,-5.1 1.9,-1.5 6.2,-3.9 9.5,-5.3 3.3,-1.5 7.9,-3.5 10.2,-4.6 5.7,-2.6 13.9,-4.6 25.7,-6.4 11.4,-1.7 15.6,-1.9 15.6,-0.6 0,1.5 -2.6,3.1 -11.1,6.5 -7.6,3.1 -20.5,8.6 -28.4,12.1 -1.6,0.7 -5.9,2.5 -9.5,3.9 -16.8,6.4 -28.3,12.9 -33.9,19 -2.8,3 -2.7,3.2 4.4,13.6 19.3,28.2 23.5,33 28.8,33 2.3,0 4.9,-1.9 12,-8.8 13.6,-13 21.2,-17.7 37.5,-23.2 10,-3.3 15.2,-4.6 25.4,-6.1 30.4,-4.4 41.1,-4.9 59.4,-2.4 17.6,2.3 19.4,3.5 22,14.6 1.7,7.4 0.4,19 -2.9,25.7 -4.3,8.7 -14.9,15.3 -29.5,18.3 -5.3,1.1 -13.3,3.1 -17.7,4.4 -4.4,1.3 -10,2.6 -12.5,3 -22.8,3.3 -57.7,18 -70.2,29.4 -16.5,15.1 -31.3,38.9 -38.3,61.6 -1.5,4.9 -3.8,11.9 -5,15.5 -2.5,7.2 -4,17.7 -5.3,37.6 -1,15.1 0,26 2.7,28.7 3.5,3.6 12.5,3.9 105.6,3.1 49.5,-0.4 113,-0.6 141,-0.3 28.1,0.2 69.5,0.4 92,0.4 47.2,0 45.1,0.4 50.7,-9.2 l 3.3,-5.8 -0.1,-91 c 0,-99.9 0.3,-92.3 -6.1,-119.8 -1.8,-8.1 -1.2,-9.2 6.8,-12.7 7.1,-3 9.2,-6.6 8.5,-15 -0.2,-3.6 -1.3,-9 -2.4,-12 -1.1,-3 -3,-8.6 -4.2,-12.5 -4.5,-13.8 -12.9,-29.2 -20.7,-37.8 -8.4,-9.2 -8.9,-11.4 -4,-15.1 1.9,-1.5 3.8,-2.6 4.2,-2.6 2.1,0 7.5,-4.7 7.5,-6.5 0,-4.8 -15.4,-27.9 -20.8,-31.2 -8.1,-4.9 -22.1,-14.5 -23.7,-16.3 -2.5,-2.7 -1,-5.8 4.9,-10 2.5,-1.8 4.8,-4.2 5.2,-5.2 1.1,-3.6 -3.5,-8.8 -16.2,-18.4 -7.1,-5.2 -10.6,-7.2 -30.6,-16.8 -10.8,-5.2 -10.4,-8.3 1.7,-12.2 6.2,-2.1 19.9,-11.8 25.5,-18.2 7.6,-8.5 18.7,-24.6 22.8,-32.7 3.8,-7.7 9.6,-22.5 12.2,-31.2 2,-6.6 -0.1,-12.3 -4.7,-12.3 -3.3,0 -5.8,1.4 -12.8,7.4 -12,10.3 -31.2,22.5 -65.1,41.4 -4.9,2.7 -10.5,5.8 -12.4,6.9 -1.9,1.1 -5.7,2.8 -8.5,3.8 -2.7,1 -5.6,2.3 -6.3,2.8 -0.7,0.5 -1.5,0.7 -1.9,0.4 -0.3,-0.4 1.7,-3.4 4.5,-6.8 12.7,-15.5 29.5,-59.4 23.2,-60.6 -0.8,-0.2 -2.7,0.7 -4.1,1.9 z"
     id="path4" /><path
     class="st0"
     d="m 486,75.8 c 0,3.2 -10.3,17.5 -18.5,25.7 -5.2,5.2 -12.8,11.2 -21.5,16.9 -7.4,4.9 -16.1,10.6 -19.2,12.7 -3.1,2.2 -5.9,3.9 -6.2,3.9 -1.6,0 -15.8,10.5 -17.6,13 l -2.1,2.9 4.8,2.8 c 3.8,2.2 6.6,2.9 13.3,3.5 4.7,0.3 12.6,1.8 17.5,3.2 5,1.4 12.7,2.9 17.3,3.2 8.9,0.8 13.1,2.7 11.9,5.7 -0.8,2.1 -10.7,8.7 -13.2,8.7 -3,0.1 -11,4.3 -11.3,6 -0.1,0.9 2,2.9 5,4.9 2.9,1.9 7.7,5 10.6,6.9 2.9,1.9 6.9,4.4 9,5.5 6.1,3.3 38.5,24.7 41.5,27.5 3.8,3.6 3.6,6.2 -0.5,6.3 -16.3,0.3 -23.4,1.6 -24.4,4.4 -1.2,3 3.6,10.4 9,13.9 7,4.5 14.7,13.1 23.8,26.7 8.3,12.4 11.7,19.1 14.4,28.4 0.9,3.3 2.2,7 2.7,8.3 2.2,4.7 -3.2,8 -13.1,8.1 -5.5,0.1 -11.2,2.9 -11.2,5.4 0,0.7 1.4,3.2 3.1,5.7 5.7,8.4 7.9,13.8 9.4,23.1 2.5,15.5 3.5,41.1 3.8,91.4 0.2,39.2 -0.1,48.6 -1.2,51.3 -1.1,2.6 -3,4.1 -9,7.1 -14,7.1 -28.3,10.6 -49.6,12.1 -16.6,1.3 -25.6,0.1 -34,-4.6 -6.2,-3.4 -13.3,-10 -12,-11.2 0.3,-0.4 5.9,-0.9 12.3,-1.2 10.1,-0.4 12.2,-0.8 15.5,-2.9 3.2,-2 3.6,-2.6 2.5,-3.7 -1.7,-1.7 -8,-1.9 -26.4,-0.9 -14.8,0.8 -15.2,0.7 -17.5,-1.4 -1.9,-1.7 -2.1,-2.5 -1.3,-3.9 1.5,-2.4 10.6,-7.7 19.7,-11.5 6.6,-2.6 9.1,-4.4 15.3,-10.6 10.8,-10.9 10.1,-12.6 -4.1,-9.6 -10.2,2.1 -27.2,1.9 -37.2,-0.5 -12.9,-3.1 -19.4,-6.6 -41.8,-22.8 -4.8,-3.5 -9.1,-6.2 -9.6,-6 -0.5,0.2 0.3,2.8 1.7,5.8 3.9,8.4 8,22.5 9.4,32.5 1.1,7.7 1.1,11.1 -0.4,23.8 -0.9,8.2 -2.6,17.7 -3.7,21 -3,9.1 -7,18.9 -8.5,21.2 -1.4,1.9 -1.9,5.5 -0.9,5.5 2.9,0 17.2,-9 23.9,-14.9 1.5,-1.4 5.5,-6.1 8.7,-10.3 5.9,-7.6 11.7,-13.8 13.1,-13.8 2.5,0 0.8,17.3 -2.3,23.2 -0.5,1 -0.9,2.4 -0.9,3.2 0,0.9 -2,5.4 -4.4,10.1 -5,9.6 -4.6,10.7 2.4,8.6 4.2,-1.3 10.1,-7.2 12.9,-13.1 0.9,-1.9 2.9,-5.5 4.4,-7.8 3.3,-5.1 4.8,-5.1 13.1,0.2 16.4,10.5 29.1,15.4 41.6,16 8.1,0.4 32.4,-1.5 38.5,-3 6.8,-1.7 24.5,-8.2 25.9,-9.5 2.2,-2 4.4,-0.9 4.9,2.4 1.3,7.2 1.2,26.6 -0.1,27.9 -1,1 -36.6,1.4 -178.6,1.6 -158.1,0.2 -177.4,0.1 -178.6,-1.3 -1,-1.2 -0.9,-2.9 0.3,-8.7 0.9,-4 2.4,-13.2 3.5,-20.3 5,-32.3 16.9,-60 33.1,-76.8 6.2,-6.5 22.5,-15.9 36.6,-21.3 11.3,-4.3 14.5,-5.1 34.5,-9.3 16.8,-3.5 37.2,-9.7 47.5,-14.3 17.4,-7.9 22.4,-14.9 28.4,-40.1 4.3,-18.1 -5.5,-37.4 -22.4,-44.1 -15.5,-6.1 -42.5,-8.3 -63,-5.1 -15,2.3 -34.6,6.9 -45.2,10.6 -18.2,6.2 -40.7,19 -44.9,25.4 -3.2,5 -5.7,2.3 -10.1,-10.9 -3.4,-10.2 -3.4,-10.3 3.9,-10.8 3.8,-0.2 8.7,-1.5 12.3,-3 27.1,-11.8 37.5,-16.3 47,-20.4 33.1,-14.1 40.2,-19.6 45.4,-35 2.5,-7.4 1.7,-12.1 -3.4,-20 -5,-7.9 -6,-8.1 -22.8,-6.1 -21.4,2.5 -61.2,7.4 -88.6,10.8 -13.4,1.6 -25,2.8 -25.7,2.5 -2.5,-0.9 -1.5,-4.1 5.2,-17.2 7.7,-15.2 15.6,-25.8 23.8,-32.2 2.6,-2 4,-2.2 15,-2.2 12.8,0 26.7,-1.3 32.6,-3.1 1.9,-0.6 8.2,-3.4 14,-6.3 10.9,-5.3 15,-8.8 27.3,-22.8 10.9,-12.6 26.3,-22.3 40.2,-25.3 4.4,-0.9 10.7,-2.6 14,-3.6 9,-2.8 16.4,-4.6 22.5,-5.4 6.2,-0.8 34.3,-9.8 52.5,-16.8 42.1,-16.1 81.1,-36.2 99.8,-51.4 3.4,-2.8 4.7,-2.9 4.7,-0.5 z"
     id="path6" /><path
     d="m 290,173.4 c -16.5,4.6 -23.2,7 -28.8,10.2 -4.6,2.7 -10.2,9.6 -10.2,12.6 0,4.2 14.5,14.8 20.3,14.8 1,0 4.2,-2.2 7,-4.8 8.5,-7.8 15.8,-13.7 21.9,-17.6 9.3,-5.9 10.8,-10.1 5.1,-14.6 -3,-2.3 -8.4,-2.5 -15.3,-0.6 z"
     id="path8" /></g>
<g
   id="g1822"
   transform="matrix(1.3636364,0,0,1.3636364,6.6470308,22.207406)"><path
     style="display:inline;fill:#ffdd55;stroke:#000000;stroke-linecap:round;stroke-linejoin:miter"
     d="m 17.598257,0.57369297 h 10 V 15.573693 l -5,-4.483 -5,4.483 z"
     id="path349"
     sodipodi:nodetypes="cccccc" /><path
     sodipodi:type="star"
     style="fill:url(#linearGradient1818);fill-opacity:1;stroke:#000000;stroke-width:0.373216;stroke-linecap:round;stroke-linejoin:miter;stroke-dasharray:none"
     id="path1787"
     inkscape:flatsided="false"
     sodipodi:sides="5"
     sodipodi:cx="19.374998"
     sodipodi:cy="3.6562498"
     sodipodi:r1="6.2194562"
     sodipodi:r2="2.3633935"
     sodipodi:arg1="0.94236945"
     sodipodi:arg2="1.570688"
     inkscape:rounded="0"
     inkscape:randomized="0"
     d="m 23.031248,8.6874994 -3.655994,-2.6678561 -3.655415,2.6686483 1.407517,-4.3014696 -3.66762,-2.651849 4.525887,0.0094 1.388701,-4.3075811 1.389635,4.3072801 4.525885,-0.010382 -3.667046,2.6526438 z"
     inkscape:transform-center-x="0.00011167938"
     inkscape:transform-center-y="-0.31815738"
     transform="matrix(0.53588261,0,0,0.53588261,12.117416,5.2465283)" /></g></svg>
