<svg width="177.17" height="177.17" clip-rule="evenodd" fill-rule="evenodd" image-rendering="optimizeQuality" shape-rendering="geometricPrecision" version="1.1" viewBox="0 0 50 50" xmlns="http://www.w3.org/2000/svg" xmlns:xlink="http://www.w3.org/1999/xlink">
<defs>
<linearGradient id="b">
<stop stop-color="#fff" offset="0"/>
<stop stop-color="#808080" offset="1"/>
</linearGradient>
<linearGradient id="a" x1="15.973" x2="29.083" y1="19.171" y2="19.171" gradientTransform="translate(8.6775 .012606)" gradientUnits="userSpaceOnUse" xlink:href="#b"/>
<linearGradient id="d" x1="43.41" x2="54.327" y1="11.497" y2="11.497" gradientUnits="userSpaceOnUse">
<stop stop-color="#7e671a" offset="0"/>
<stop offset="1"/>
</linearGradient>
<linearGradient id="c" x1="17.95" x2="32.018" y1="32.245" y2="32.245" gradientUnits="userSpaceOnUse" xlink:href="#b"/>
</defs>
<path d="m25 46.45h-13.394c-0.66-1.6068-0.991-3.2876-0.991-5.0434 0-2.9742 0.864-5.6448 2.599-8.0176 1.736-2.365 3.971-4.0545 6.697-5.0677-1.168-0.5275-2.125-1.3265-2.862-2.3981-0.737-1.0715-1.101-2.2823-1.101-3.6341 0-1.6896 0.576-3.1562 1.736-4.3923 1.152-1.2438 2.574-1.966 4.267-2.1509-1.346-0.98298-2.02-2.2823-2.02-3.8891 0-1.3518 0.491-2.5129 1.482-3.4774 0.982-0.96449 2.176-1.4423 3.581-1.4423 1.389 0 2.582 0.47786 3.573 1.4423 0.991 0.96449 1.49 2.1256 1.49 3.4774 0 1.6068-0.669 2.909-2.02 3.8891 1.693 0.18978 3.116 0.90609 4.267 2.1509 1.16 1.236 1.736 2.7027 1.736 4.3923 0 1.3518-0.373 2.5626-1.126 3.6341-0.753 1.0715-1.71 1.8706-2.862 2.3981 2.726 1.0131 4.961 2.7027 6.697 5.0677 1.736 2.3728 2.599 5.0434 2.599 8.0176 0 1.7382-0.322 3.42-0.965 5.0434h-13.394" fill="#1f1a17" stroke-width=".98653"/>
<g transform="matrix(3.7944 0 0 3.7944 -139.7 -24.426)" stroke-width=".26355">
<ellipse cx="43.401" cy="11.497" rx="3.1749" ry="3.1749" fill="url(#d)" fill-rule="evenodd" stroke="#1f1a17" stroke-linejoin="round" stroke-width=".43912" style="mix-blend-mode:normal"/>
</g>
<g fill="url(#a)" stroke-width=".28222" aria-label="E">
<path d="m28.709 25.352h-7.0765v-12.287h7.0765v1.3783h-5.5133v3.7988h5.1855v1.3615h-5.1855v4.3703h5.5133z" fill="url(#a)" stroke-width=".28222"/>
</g>
<path d="m18.366 31.364c0.31085 0.19066 0.77796 0.42882 1.2027 0.62025 0.39956 0.18008 1.2116 0.47404 1.7224 0.61953 0.49073 0.14818 1.3943 0.34626 1.8967 0.40436 0.4359 0.05773 1.0591 0.11045 1.7573 0.11847 0.77844 0.0017 1.4437-0.06957 2.0223-0.15179 0.63023-0.09448 1.3244-0.26176 1.7897-0.39246 0.45907-0.13107 1.0044-0.3434 1.3177-0.47001 0.23328-0.09427 1.1133-0.48694 1.5265-0.74829" fill="none" stroke="url(#c)" stroke-linecap="round" stroke-width=".8331"/>
</svg>
