<?xml version="1.0" encoding="UTF-8" standalone="no"?>
<svg version="1.1" xmlns = "http://www.w3.org/2000/svg" xmlns:xlink="http://www.w3.org/1999/xlink" width="200" height="600" viewBox="0 0 200 600">
<style>
.dl { fill:#6882a8; fill-opacity:1; fill-rule:nonzero; stroke:none; }
.du { fill:#758fb4; fill-opacity:1; fill-rule:nonzero; stroke:none; }
.lu { fill:#8ea9ce; fill-opacity:1; fill-rule:nonzero; stroke:none; }
.ll { fill:#9bb5db; fill-opacity:1; fill-rule:nonzero; stroke:none; }
</style>
<g id="swd"><rect class="dl" width="100" height="100" /><rect class="du" width="98" height="98" x="0" y="2" /></g>
<g id="ned"><rect class="dl" width="100" height="100" /><rect class="du" width="98" height="98" x="2" y="0" /></g>
<g id="ed"><rect class="dl" width="100" height="100" /><rect class="du" width="98" height="96" x="2" y="2" /></g>
<g id="el"><rect class="ll" width="100" height="100" /><rect class="lu" width="98" height="96" x="2" y="2" /></g>
<g id="sel"><rect class="ll" width="100" height="100" /><rect class="lu" width="98" height="98" x="2" y="2" /></g>
<g id="wl"><rect class="ll" width="100" height="100" /><rect class="lu" width="98" height="96" x="0" y="2" /></g>
<g id="wd"><rect class="dl" width="100" height="100" /><rect class="du" width="98" height="96" x="0" y="2" /></g>
<g id="nwl"><rect class="ll" width="100" height="100" /><rect class="lu" width="98" height="98" x="0" y="0" /></g>
<g id="cl"><rect class="ll" width="100" height="100" /><rect class="lu" width="96" height="96" x="2" y="2" /></g>
<use x="0" y="500" xlink:href="#swd" />
<use x="100" y="500" xlink:href="#sel" />
<use x="0" y="400" xlink:href="#wl" />
<use x="100" y="400" xlink:href="#ed" />
<use x="0" y="300" xlink:href="#wd" />
<use x="100" y="300" xlink:href="#el" />
<use x="0" y="200" xlink:href="#wl" />
<use x="100" y="200" xlink:href="#ed" />
<use x="0" y="100" xlink:href="#wd" />
<use x="100" y="100" xlink:href="#el" />
<use x="0" y="0" xlink:href="#nwl" />
<use x="100" y="0" xlink:href="#ned" />
</svg>
